/* XPM */
static char *result[] = {
/* columns rows colors chars-per-pixel */
"65 65 253 2 ",
"   c #193619",
".  c #142D0F",
"X  c #223417",
"o  c #111D0E",
"O  c #194C0A",
"+  c #1D5514",
"@  c #154C10",
"#  c #25490D",
"$  c #29570A",
"%  c #264817",
"&  c #2B5C14",
"*  c #285816",
"=  c #385A1A",
"-  c #335210",
";  c #1D6317",
":  c #2C650B",
">  c #2C750E",
",  c #38760C",
"<  c #296717",
"1  c #336B13",
"2  c #376818",
"3  c #2C7417",
"4  c #347B13",
"5  c #3C7B1C",
"6  c #377618",
"7  c #36680F",
"8  c #274A25",
"9  c #275926",
"0  c #355824",
"q  c #365132",
"w  c #386724",
"e  c #2C7626",
"r  c #397724",
"t  c #3E6B35",
"y  c #446B17",
"u  c #437B1C",
"i  c #477919",
"p  c #4B730E",
"a  c #45552A",
"s  c #446B28",
"d  c #447B24",
"f  c #4B7B24",
"g  c #477629",
"h  c #547A25",
"j  c #487936",
"k  c #547A39",
"l  c #556B32",
"z  c #68773C",
"x  c #425C07",
"c  c #775647",
"v  c #785747",
"b  c #7C5A47",
"n  c #775648",
"m  c #785748",
"M  c #7C5A48",
"N  c #517244",
"B  c #6E7E4C",
"V  c #825E48",
"C  c #815E46",
"Z  c #856149",
"A  c #8A6649",
"S  c #8D6A4A",
"D  c #896547",
"F  c #926C4B",
"G  c #97714A",
"H  c #9B744A",
"J  c #9D784B",
"K  c #9C7352",
"L  c #8C7D5B",
"P  c #A47D4C",
"I  c #A97F4E",
"U  c #A07753",
"Y  c #36850C",
"T  c #2B851D",
"R  c #3C831B",
"E  c #398718",
"W  c #318F12",
"Q  c #3B8526",
"!  c #3B9228",
"~  c #398736",
"^  c #389333",
"/  c #36A627",
"(  c #188005",
")  c #46880E",
"_  c #43821C",
"`  c #498819",
"'  c #548819",
"]  c #4C9313",
"[  c #48961A",
"{  c #539B1D",
"}  c #589619",
"|  c #50960C",
" . c #679A1E",
".. c #689415",
"X. c #56A61B",
"o. c #55AE11",
"O. c #66A81A",
"+. c #76A91D",
"@. c #76B418",
"#. c #6EB515",
"$. c #4C8424",
"%. c #438B24",
"&. c #4A8B2A",
"*. c #488829",
"=. c #568A28",
"-. c #449324",
";. c #4B9423",
":. c #4A9829",
">. c #529323",
",. c #5B9B2A",
"<. c #599827",
"1. c #4B8936",
"2. c #588936",
"3. c #4A9736",
"4. c #5D9431",
"5. c #5B9B39",
"6. c #549736",
"7. c #669727",
"8. c #628A36",
"9. c #659B33",
"0. c #699738",
"q. c #74963A",
"w. c #6A9131",
"e. c #49A629",
"r. c #5AA427",
"t. c #57B62B",
"y. c #4AA433",
"u. c #57A837",
"i. c #5CB43A",
"p. c #4AB636",
"a. c #62A323",
"s. c #66A92A",
"d. c #76AA29",
"f. c #68B427",
"g. c #76B521",
"h. c #68A736",
"j. c #75A837",
"k. c #6BB939",
"l. c #77B639",
"z. c #74C42F",
"x. c #588944",
"c. c #4E9444",
"v. c #599543",
"b. c #4C934E",
"n. c #699744",
"m. c #76984B",
"M. c #6D8A4A",
"N. c #58A544",
"B. c #54AB48",
"V. c #69A747",
"C. c #78A746",
"Z. c #6AB545",
"A. c #76B744",
"S. c #76AD56",
"D. c #79AC62",
"F. c #719E68",
"G. c #5BCA51",
"H. c #76C64D",
"J. c #7DC760",
"K. c #8B9B3C",
"L. c #8ABA39",
"P. c #94B83A",
"I. c #87AE31",
"U. c #87C82E",
"Y. c #85964A",
"T. c #9A9747",
"R. c #879855",
"E. c #929C54",
"W. c #AC844D",
"Q. c #B48B4D",
"!. c #B58B4D",
"~. c #BE934E",
"^. c #B49B48",
"/. c #B78C53",
"(. c #BB9654",
"). c #A79749",
"_. c #85AA46",
"`. c #97A549",
"'. c #88B746",
"]. c #85A654",
"[. c #98A957",
"{. c #89B853",
"}. c #97B457",
"|. c #90B14F",
" X c #A9A34C",
".X c #B8A749",
"XX c #AAB249",
"oX c #A8AB57",
"OX c #B9A955",
"+X c #A8B458",
"@X c #B8B658",
"#X c #B7B849",
"$X c #85B967",
"%X c #96B461",
"&X c #91A764",
"*X c #AAB162",
"=X c #B9BB65",
"-X c #AFAF67",
";X c #968A62",
":X c #C59A4E",
">X c #CB9E4E",
",X c #C1954E",
"<X c #C59A51",
"1X c #CA9D51",
"2X c #C9A84B",
"3X c #DDAC46",
"4X c #D4A54E",
"5X c #D4AB4B",
"6X c #DDAD49",
"7X c #D3A947",
"8X c #DBB14B",
"9X c #CCA152",
"0X c #CAAD52",
"qX c #D2A551",
"wX c #D6AA52",
"eX c #DAAD52",
"rX c #CDBC5B",
"tX c #C6B658",
"yX c #D3B555",
"uX c #DFB252",
"iX c #D8BC59",
"pX c #C2B648",
"aX c #E0AF49",
"sX c #E4B34C",
"dX c #E8B74E",
"fX c #EAB84F",
"gX c #E4B84F",
"hX c #E4B552",
"jX c #E8B750",
"kX c #E5BA54",
"lX c #EDBC52",
"zX c #E3BE5A",
"xX c #F0BE53",
"cX c #CABA63",
"vX c #96C546",
"bX c #8DC750",
"nX c #AAC95B",
"mX c #B9CC5F",
"MX c #90D367",
"NX c #B4C768",
"BX c #ADC973",
"VX c #DBC35B",
"CX c #CAC45A",
"ZX c #EEC156",
"AX c #E5C35B",
"SX c #ECC25A",
"DX c #E5C156",
"FX c #F2C254",
"GX c #F0C359",
"HX c #C8C565",
"JX c #D9C764",
"KX c #D6CE76",
"LX c #E4C566",
/* pixels */
"] p p h r O % 0 7.| ) - 6 ~ 6 _ ` & : E @   $ 0.l.h.V.B.= & > > ( ' B.B.r.;.{ j.{.D.2.& % 8.w O p ] p.S.D.V.r.u.J.V.3.B.b.N % & T ",
"` i 5  .7.i.3 O $ ..@., 1 e 0 9 3 2.0.[ ) ` h |.+X X X XE.m.m.[.+X.XtXrXCXcX+XR.m.x.' $.$.>.6 < # = 6.Z.k.g.@.g.h.a.r.N.S.&XS.n.3.",
"g &.7.` :.i.u.<.=.' | T Q 1.> 5 E ;._ 7 g 2.T..X.X:X1X9XyXyXyXzXVXkXSXZXGXzXzXrXtXoX].2.d :.r.7.r 3 y r R o.@.+.@.a.5.S.$XBXZ.B.c.",
"6 ` f.o.| R w.j.q.` E 4 5.V.'.C.V.h.C.R.T.).^.7X5X6XhXkXZXZXFXxXFXFXGXFXFXFXFXFXGXSXiX-X&XS.bXP.h.j.].,.>.{ f.t.X.r.s.s.6.1.u.3.1.",
": ) #.X.r.5.7.w.,.6 4 [ C.}.cX@XoX+X+X@X0X4X6XsXhXlXFXFXFXFXFXFXxXFXFXFXFXFXFXFXFXFXFXVXJX@XmX#XXX#XCX_.0.>.X.X.[ { <.X.[ %.:.&.f ",
"_ } s.'.A.h.X.} -.< + t.}.cXZXzXkXkXhXsXhXkXlXFXFXFXFXFXFXFXFXFXxXFXxXFXFXFXFXFXFXFXFXFXGXfXdXfXhXlXkX@X].;.` ] [ ;.3.>.;.&.%.>...",
"d.h.9.bXA.Y W ] 7.3 3 B.mXLXGXGXFXFXFXFXGXFXFXFXFXFXFXFXFXFXFXxXxXFXFXFXFXFXFXFXFXFXFXFXFXxXfXFXxXxXlXrX+X&.' ] [ 4.9.u 1 : &.<.d.",
"_ ` ) j.s.W Y W Z.N.c.c.oXiXFXFXFXFXFXFXFXFXFXFXFXFXFXFXFXFXFXFXfXxXxXFXFXFXFXFXFXFXFXFXFXGXFXFXxXxXxXcXXXa.$.*.3.r.{ > < e @ < %.",
";.4 $ h $.Y > & X =.l.F.oXtXxXxXFXFXFXFXFXFXFXFXFXFXFXFXFXxXxXfXxXxXFXFXFXFXFXFXFXFXFXFXFXFXFXFXxXxXxX0X`.$.,.9.n.=.) =.q.Y.; * x ",
"J.U.I.l g ] +.+.i h l r |.HXFXGXFXFXxXFXFXFXFXFXFXFXFXFXFXxXxXlXfXfXxXFXFXFXFXFXFXFXFXFXxXFXfXFXxXxXxXoXR.s $ $ i y 6 t.y.!   . . ",
"z.U.U.I.7.E O.7.& 7.l.u.M.Y.GXGXFXxXxXlXFXFXFXFXFXFXFXFXFXxXlXfXxXfXfXxXFXFXFXFXFXFXFXFXFXZXlXZXxXxXGXoXY.Q e %.l.=.y ' ;.^ $.f t ",
"U.O.] l.h.%.r w -  .d.0 w s cXzXFXGXxXlXxXxXFXFXFXFXFXFXFXFXxXjXfXfXfXfXFXFXFXFXFXFXFXxXfXlXxXZXxXAXLX].2.6 r %.>.$.f i u 5 *.=.4.",
"f.a.>.A.Z.$.5.v.=.<.{ 0 $.r.[.@XzXxXxXxXlXlXlXxXFXFXFXFXFXGXxXjXdXdXfXfXxXFXFXFXFXxXxXxXfXxXlXZXSXJX=Xn.$.d u 6 * r &.* & 1 * w g ",
"{ [ 2.Z.A.j.8.2.,.Z.i.` s.l.2.[.KXLXGXxXlXdXdXlXFXFXFXFXFXxXxXdXdXdXfXfXfXFXFXFXFXfXfXfXfXxXSXAXHX&XN x.1.6.s.=.O j c.+ + < + & s ",
"r.3.1.Z.z.l.=.h ` B.B.*.h.Z.s m.BXHXJXFXlXlXdXdXfXfXxXFXFXxXxXjXdXsXsXfXxXFXFXFXxXfXfXxXfXZXVXtX}.n.* j 1.g r.<.& g 1.9 + ; * 2 d ",
"_.h.y.p.u.u.l.l.W u.h.e y.p.e 1.n.S.}.rXkXxXfXdXdXdXfXxXxXxXxXjXsXsXsXfXxXFXFXdXdXsXfXfXfXyX`.q.h f 1.9.=.. < W ` _ r r < + 2 6 r ",
"} ) > = h V.5 Y X.U.vXe ~ ^ / y.3.%.&.V.tXiXZXjXsXsXdXjXxXxXxXjXsXsXhXxXxXxXlXdXdXjXlXVX#Xm.d &   % 5 bX].o * r ' :.1.= 7 4 p } O.",
"MXMXMXA.A.Z.H.f.o.<.9.Z.j 0 bXH.V.h.:.r ! 9.OX9X4X4X4XaXdXxXxXjXsXaXhXjXlXuX6XwX4XqX-XY.r.{ = X = 7 ) < * - @ * | _ 5 } { [ O + < ",
"z.bXmXf.s.s.i 7 : - = <.8.7.a.i.G.H.l.:.B.V.L A F U !./.<X1XqXqXqX1X9X9X<X,XQ.I K F ;XM.$.=.f u ` } @.# % 0.d u f.t.y.| ] %.` E Q ",
"g.O.r.{ &.%.4 Y ] { [ i 4.h.a.i.G.e.i.J.J.{.OXK F S F F K K U U U K K K K F F F F H (.Y.2.i i Q 3.1.r * * E > 7 ' Q R ] _ 2 E E 1 ",
"d.' : f.r.4 > ) @.} %.! ;.} 2 e ~ 5.C.NXCXVXuX7X4X9X1X<X,X/././././.,X/./.,X<X>X1XwXuXyX@XXXM.w 2 2 i 2 < _ R R 3.u 2 6 w 9 T <   ",
"7.4.c.u.e.e.E , $ 1 5 y.<.7.1.1.v.+XtXzXDXlXlXlXFXFXxXxXhXhXuXkXhXhXhXhXsXfXhXlXlXlXfXlXlXSXOXE.2.n.bXf 2 2 %.3.&.s = x.5.Z.< 6 $.",
"h.Z.A.t Q E i i 6 1 6 ! [ >.H.{.oXcXkXxXfXlXlXGXFXGXGXxXxXlXlXFXGXxXGXGXfXxXfXFXFXFXlXlXfXFXDXyXoX}.MX*.w 8 ~ u.%.g w ~ 1.5.< 6 ) ",
"{.l.X.d 2 % s &.h.d.7.< Q 6.nXCXGXxXxXxXxXxXFXFXFXFXFXxXlXxXFXFXGXGXxXxXxXxXFXFXFXFXFXFXFXfXZXFXkXrXoXV.c.9 1.3.< 2 g t t = $.$.r ",
"d.{ Y  ...y k v.<.P.P.= n.&XLXGXGXxXxXxXFXFXFXGXFXFXFXFXxXxXxXFXGXFXGXFXFXFXFXFXFXFXFXFXFXFXFXFXFXSXiXBXD.w *.g X = _ 2.$.R d.h.c.",
"6 ` | I.I...} a.l.u s _.HXJXGXGXFXFXxXGXFXFXFXFXFXGXFXFXFXFXFXFXFXFXFXFXFXFXFXFXFXFXFXFXFXFXFXFXFXFXlXtXoXj # $ C.9._ %.[ ) <.r < ",
"H.n.l g R T W :.bXd.d.-XJXFXFXFXFXFXFXFXGXFXFXFXFXFXFXFXFXFXFXFXGXFXFXFXFXFXFXGXFXFXFXFXFXFXFXFXFXFXFXxXiX+Xs # & 2 < < 3 T 3 T ! ",
"nX_.w.w r y.[ [ t.MXBXAXGXFXFXFXFXFXFXFXGXFXFXFXGXGXGXFXFXFXFXFXFXGXFXFXFXFXFXFXFXFXFXFXFXFXFXFXFXZXxXFXDXVXY.k g e ~ Q r w r.;.E ",
"d.=.& Q -.t.O.| 2 [.JXFXFXFXFXFXFXFXFXFXFXFXFXFXFXFXFXFXFXFXGXeXqX9XlXFXFXFXFXFXFXFXFXFXFXFXFXFXFXFXfXFXZXfXtXT.q N n.g r r [ { ] ",
"} ] 4 %.:.X.r.j.M.pXSXFXFXFXFXFXFXFXFXFXGXFXFXFXFXFXFXFXFXFXxX~.I J hXFXFXGXFXFXFXFXFXFXFXFXFXFXFXFXFXFXlXFXDX@XB x.6.f s 2 = < > ",
"X.r.r.G.z.s.:.0.@XAXZXFXFXFXFXFXFXFXFXFXGXFXGXFXFXFXFXFXFXFXzXP A V wXlXFXFXGXFXFXFXFXFXFXFXFXFXFXfXfXFXZXlXlXiX*X_.4.&.r * X % 5 ",
"-.&.&.z.i.-.V.}.SXGXFXFXFXFXFXFXFXFXFXFXFXFXFXFXFXFXFXDXiX2XW.S M M P /.1XuXGXFXFXFXFXFXFXFXFXFXFXFXFXZXlXFXlXlXVX@XC.:.%.R - & R ",
"_ r 3 a.e.T %XKXFXFXFXFXFXFXFXFXFXFXFXFXFXFXFXGXxXhX:XQ.G A b m m m m Z S W.~.eXkXxXxXFXFXFXFXxXFXxXxXxXfXFXfXfXfXtX}.7.s.k.y 2 3 ",
"U.f.R a.s.z.HXLXFXFXFXFXFXFXFXFXFXFXFXFXFXFXFXdX9XW.D m m v m m m m v m v v M P <XuXxXFXFXFXFXFXxXGXFXfXFXFXfXFXfXDXyXvXvX{.I.7.j ",
"f.f.t.=.0.mXVXGXFXFXFXFXFXFXFXFXFXFXFXFXFXFXFX>XW.M m m M Z S V M m A A V m v v G ~.xXGXFXFXFXxXZXFXxXfXFXfXfXFXFXfXDXnXC.1.U.} 9 ",
"d.<.R h.'.KXAXFXFXxXxXFXFXFXFXfXFXFXFXFXFXFXFXW.F M m M F Q.<XH A M ~./.J Z m v V H kXxXxXFXxXFXFXFXfXFXfXZXfXfXdXfX8XpX_.r.O.;.! ",
"w ' O.w.I.VXDXxXxXlXFXFXFXFXFXFXFXFXFXFXFXFXxXH m m v S 1XkXkXI S V wXjXhXP V m c Z qXjXFXFXFXFXfXFXfXFXfXfXZXfXlXfXfXsXtXoXk.U.P.",
"8 6 } nXCXFXxXxXxXFXlXFXFXFXFXFXFXFXFXFXFXFXGXG M v b F qXhXxXI A V wXxXkX1XW.J H W.5XkXZXfXFXfXFXfXZXfXfXFXfXfXjXjXfXhXyXtX{.5.4 ",
"% 2 f HXVXFXfXFXfXFXFXFXFXFXDXFXFXFXFXFXFXFXlXP Z m v A /.wXhXW.A V wXxXxXkXhXwXeXeXfXFXFXfXFXFXZXfXFXFXFXfXfXZXfXfXsXsXsXyXm.q.+.",
"> r 2.rXDXlXlXlXFXFXfXFXfXFXFXFXFXFXFXFXFXGXxX!.G b m b S P !.H A V wXxXFXFXGXxXlXFXFXfXFXFXfXFXfXZXfXfXfXfXfXfXfXdXsXsXsXgX*X}.'.",
"{ V.$XSXxXkXlXxXFXfXFXfXFXFXFXFXFXFXFXFXFXFXxX7X/.F b v v V A Z V V <XuXxXxXxXGXxXlXFXlXfXFXZXfXlXlXjXlXjXlXjXjXsXhXsXsXsXsXcX+X].",
"{ '.BXzXxXxXlXlXfXFXFXFXFXfXFXFXFXFXFXFXFXFXFXxXuX,XH Z m m c v n M K /.:XwXhXlXlXxXxXZXZXFXfXZXfXlXlXlXlXlXfXdXdXsXsXsXaXaXwXT.x.",
"* z -XhXlXlXlXlXFXfXfXFXFXFXFXFXFXFXFXFXFXFXFXFXxXlX1X/.G A Z b n v n m V H W.wXhXjXlXZXlXfXfXlXlXfXfXlXjXdXjXdXsXsXsXaXsXaX8XT.N ",
"M.).yXkXlXjXlXlXfXfXFXZXdXFXsXFXFXFXFXFXFXfXFXxXxXGXxXkXeX<XW.A m v b m v v C F Q.wXlXfXFXfXlXlXlXxXlXlXfXdXdXsXsXsXsXsXaXaX6X^.M.",
"A.XXdXjXjXlXjXlXZXfXZXfXfXFXFXfXFXfXxXZXZXFXxXGXxXxXxXxXGXxXkXP A m S V V M n v Z J hXjXlXfXlXlXlXlXdXdXjXdXdXsXsXsXaXaXaX3X3X.XR.",
"[.@XdXjXjXlXfXlXfXfXfXZXfXZXfXFXfXFXlXlXfXFXlXjXkXlXxXxXxXxXkXP A V 9XqX,XG V v v Z !.5XlXlXlXlXlXdXdXdXsXdXsXsXsXaXaX3X3X3X3XOXR.",
"NXrXsXdXdXfXfXjXfXFXFXfXFXfXZXfXZXfXlXFXZXjX6X,X!.!.,XqXjXxXjXW.S V 4XkXhX!.H v c M J >XlXlXlXjXlXjXdXdXdXsXsXsXaXaXaX3X3X3XaX2XoX",
"=XiXsXdXdXdXfXlXfXfXfXfXfXFXfXFXfXFXlXZXlXhX9XH S S H !.hXxXhXP A V 4XlXjX<XI m c M H >XlXjXjXfXdXjXjXsXsXsXsXaXsXaX3X3X3X3X3XOX%X",
"NXtXsXhXsXsXjXjXjXlXjXlXlXlXlXlXlXfXlXxXfXjXwXS v v C F ,XeXjXP A V wXhXhX!.F v c C J 1XfXfXdXdXdXjXsXsXsXsXaXaX3X3X3X3X3X3X3X2X[.",
"NXtXsXsXsXsXdXdXdXdXlXjXfXlXlXjXlXlXlXfXlXlXsXJ C v c C H Q.~.H Z C !.,X!.F V v m Z !.5XfXfXdXdXsXsXsXsXaXsXaXaX3X3X3X3X3X3X6X.X].",
"NXrX6XsXsXsXsXsXdXdXdXdXdXlXlXdXlXlXlXlXlXfXlX~.P Z v c v b V C b m A Z b v v b Z H 6XhXfXsXdXsXsXsXsXaXaXaX3X3X3X3X3X3X3X3X6X Xn.",
"NXtX8XaXsXsXsXsXsXsXdXdXdXdXdXlXfXlXjXlXfXlXfXhX>XP A b v v v v v m v v v v C D P :XsXdXfXsXsXsXsXsXaXaXaXaX3X3X3X3X3X3X3X3XiX`.2.",
"0.|.yX8X3XsXsXsXsXsXsXsXdXdXdXdXfXfXfXfXjXlXjXlXfXuX~.P D Z b b m m b M C S P ,X7XsXdXsXsXsXsXsXaXsXaXaX3X3X3X3X3X3X3X3X3X3XHX+XC.",
"6.n.}.5X3X3XaXaXsXsXsXsXsXsXsXdXfXfXsXfXfXfXfXjXfXfXjXsXsX5X:XG V M Q.>X4XeXaXsXdXsXsXsXsXaXsXaXaXaXaX3X3X3X3X3X3X3X3X3X6XyX'.,.< ",
"=.6.v.0X5XaX6XsXaXaXsXsXsXsXsXsXfXsXsXdXdXdXdXdXdXdXdXfXsXjXuXP D C >X6XsXsXsXsXsXsXsXsXaXsXaXaX3X3X3X3X3X3X3X3X3X3X3X3XyX=X*.=.d.",
"h.*.8 *X@XaX3XaXaXaXaXaXsXsXsXsXsXsXsXdXsXsXsXsXsXfXsXfXdXsXsXW.H F 4XsXhXdXsXsXsXaXsXaXaXaXaX3X3X3X3X3X3X3X3X3X3X3X3X5XXX'.t j 5.",
"W W , q l pX5X8X3XaXaXaXaXaXaXsXsXsXaXsXsXsXsXsXsXsXdXsXsXsXsX7X>X>XaXaXsXsXsXaXsX3XsXaXaXaX3X3X3X3X3X3X3X3X3X3X3X3X6XoXq.g %.%.$.",
"y.R 7 % s I.XX2X3X3X3XaX3XaXaXaXsXsXsXsXaXsXsXsXsXsXsXsXsXsXsXsXsXsXsXsXsXaXaXaX3XsX3X8X3X3X3X3X3X3X3X3X3X3XaX3X3X.XK.q.l < 3 2 w ",
"6.d # f =.<.9.K.^.>X3X3X3X3XaXaXsX3X3XsXaXsXaXsXsXsXaXsXaXsXsXsXaXaXaXaXaXaXaXaX3X3X3X3X3X3X3X3X3X3X3X3X3X3X7X.XK.K.4.2 < ; % % % ",
"T 5 u } >.6.[ ` z T..X3X3XaX3X3X3XaX3XaX3XaX3XsXaXaXaXaXaXaXaXaXaXaXaXaX3XaXaXaX3X3X3X3X3X3X3X3X3X3X3X3X7X7X^.K.=.8.2.2 & & ; < - ",
"N.h.k.& y +.#.;.. s 8.XX.X5X6X6X3X3X3X6X3X6X3X3X3XaX3XaX3X8XaX3X6X3X6X6X3X3X3X3X3X3X3X3X3X3X3X3X3X6X7X.X X|.7.f p i =.j.w.g 5 } @.",
"9.j.P.l a # 2 $.3.^ :.k.|.&XtX0X6X6X6X3X3X3X3X3X3X3X3X3X3X3X3X3X3X3X3X3X3X3X3X3X3X3X3X3X3X3X3X3X7X0X#XN j O.X . = y p N 9 O y.;., ",
"3.s.@.a.s.H.y.e   3 [ t x.V.w._.}.oXOX0X4X7X6X6X5X6X3X6X3X3X3X3X3X3X6X3X6X6X3X3X8X7X7X2XqX0X@XoX8.h | e.e.[ d d p [ $.y 1 1 O.@.g.",
"w $.:.2.v.c.^ 3.D.N N D.V.3.r r 3 { <.9.q.Y.[.oX@XtXtX0XwX4X5X6X3X6X6XeXyXyXtX X@X+X|.m.n.P.d.=.<.[ E E %.f.bX{.] y = y *.v.s.l.P.",
"; < | - q c.U.U.b.F.B.t.[ R Q E 4 W / ] # # - & 5 l.&.g K.l.j.nXm.a B M.V.V.C.l.f % q Q / + , } <.2.l < > 3 ,.j.D.U.d.R 1 & 1 5 ) "
};
