/* XPM */
static char *result[] = {
/* columns rows colors chars-per-pixel */
"70 70 253 2 ",
"   c #1C0D0A",
".  c #1A0C07",
"X  c #1E110A",
"o  c #131415",
"O  c #23120D",
"+  c #2B140C",
"@  c #2D170C",
"#  c #34180C",
"$  c #2C1A13",
"%  c #281711",
"&  c #351D14",
"*  c #2D0E07",
"=  c #372319",
"-  c #372813",
";  c #392C26",
":  c #393837",
">  c #2C2928",
",  c #1B1D20",
"<  c #46180A",
"1  c #501D11",
"2  c #47261A",
"3  c #5C2717",
"4  c #4D311D",
"5  c #682A18",
"6  c #732C14",
"7  c #762E16",
"8  c #6A321C",
"9  c #73341D",
"0  c #7B341B",
"q  c #7A351A",
"w  c #71280F",
"e  c #462C22",
"r  c #483428",
"t  c #573728",
"y  c #493933",
"u  c #573D33",
"i  c #693926",
"p  c #753A24",
"a  c #7C3B23",
"s  c #753925",
"d  c #65392C",
"f  c #356C16",
"g  c #34651A",
"h  c #366C1A",
"j  c #3A6D1B",
"k  c #376717",
"l  c #3C731C",
"z  c #3D7A1C",
"x  c #377219",
"c  c #2F6418",
"v  c #3A6C21",
"b  c #3D7421",
"n  c #3E7A22",
"m  c #3E7B2A",
"M  c #315F19",
"N  c #41751D",
"B  c #427B1E",
"V  c #487E1F",
"C  c #594639",
"Z  c #4E4A34",
"A  c #7C422C",
"S  c #75452A",
"D  c #6A4637",
"F  c #734C34",
"G  c #427522",
"H  c #447C22",
"J  c #497E23",
"K  c #4A7C2A",
"L  c #467B29",
"P  c #527835",
"I  c #6C753E",
"U  c #484746",
"Y  c #594D48",
"T  c #5C5545",
"R  c #575756",
"E  c #4C5546",
"W  c #6B5748",
"Q  c #6C564D",
"!  c #596F4C",
"~  c #706E4F",
"^  c #767776",
"/  c #716A66",
"(  c #863A1D",
")  c #833C22",
"_  c #8B3E23",
"`  c #923E21",
"'  c #95431C",
"]  c #8C4124",
"[  c #84442B",
"{  c #8B452A",
"}  c #8C4A2D",
"|  c #854227",
" . c #934B2D",
".. c #964726",
"X. c #9A512E",
"o. c #884C34",
"O. c #934D31",
"+. c #8A5239",
"@. c #955334",
"#. c #9B5434",
"$. c #9C5936",
"%. c #9C5B3A",
"&. c #95573A",
"*. c #A25D3B",
"=. c #A45935",
"-. c #A1522F",
";. c #A3623D",
":. c #AA643D",
">. c #A9643A",
",. c #B4633F",
"<. c #885B48",
"1. c #965C43",
"2. c #855D52",
"3. c #A25E41",
"4. c #986448",
"5. c #866457",
"6. c #9A7557",
"7. c #906E56",
"8. c #A46443",
"9. c #AC6B45",
"0. c #AC6C4B",
"q. c #A66847",
"w. c #B46C49",
"e. c #AA714D",
"r. c #B5724C",
"t. c #AA6D51",
"y. c #A97759",
"u. c #B37453",
"i. c #B97957",
"p. c #987767",
"a. c #8C766C",
"s. c #B67D62",
"d. c #AB7D65",
"f. c #C37B57",
"g. c #C07D63",
"h. c #3E841C",
"j. c #3E8422",
"k. c #44821E",
"l. c #48881E",
"z. c #4E8D1F",
"x. c #458323",
"c. c #4A8324",
"v. c #468B23",
"b. c #4C8B24",
"n. c #4C842A",
"m. c #4D8C2A",
"M. c #468529",
"N. c #518C26",
"B. c #538C2C",
"V. c #52862B",
"C. c #4D9225",
"Z. c #4D922A",
"A. c #489626",
"S. c #529325",
"D. c #529A25",
"F. c #53942B",
"G. c #59942D",
"H. c #549B2B",
"J. c #5A9C2C",
"K. c #5B9B26",
"L. c #548C32",
"P. c #598835",
"I. c #559532",
"U. c #5A9433",
"Y. c #559B32",
"T. c #5B9C33",
"R. c #5C9B3A",
"E. c #5A953A",
"W. c #4E9032",
"Q. c #649938",
"!. c #629732",
"~. c #5BA22D",
"^. c #55A22C",
"/. c #5DA333",
"(. c #5BA537",
"). c #62A334",
"_. c #63A53A",
"`. c #66AA39",
"'. c #6BB23B",
"]. c #64A630",
"[. c #5B8942",
"{. c #69894A",
"}. c #6A9547",
"|. c #75984B",
" X c #6A8855",
".X c #7A8857",
"XX c #799A56",
"oX c #718849",
"OX c #69A945",
"+X c #6EB242",
"@X c #73B445",
"#X c #79A94E",
"$X c #749062",
"%X c #86975A",
"&X c #8B8C5A",
"*X c #B88559",
"=X c #AC845A",
"-X c #85A959",
";X c #899B66",
":X c #999865",
">X c #94886E",
",X c #A98865",
"<X c #B98866",
"1X c #BC936C",
"2X c #A58779",
"3X c #BB9776",
"4X c #AE9470",
"5X c #95A668",
"6X c #93A86E",
"7X c #A8A478",
"8X c #B3AC7B",
"9X c #C3845B",
"0X c #C6945C",
"qX c #C78867",
"wX c #D28D6B",
"eX c #C3956A",
"rX c #C59567",
"tX c #C79977",
"yX c #D79777",
"uX c #D09070",
"iX c #CDA179",
"pX c #E09F7C",
"aX c #999997",
"sX c #8E8987",
"dX c #AC978F",
"fX c #B3AA8D",
"gX c #BABAB7",
"hX c #B0ADAA",
"jX c #9EA196",
"kX c #CE9C84",
"lX c #DBA286",
"zX c #CEAD8D",
"xX c #E9B498",
"cX c #E8AC8E",
"vX c #C6B7AF",
"bX c #EDBAA3",
"nX c #BBC39C",
"mX c #C6C2BD",
"MX c #D2CCB2",
"NX c #F8CBB7",
"BX c #F7CCB4",
"VX c #CFC39D",
"CX c #C8C8C6",
"ZX c #D5CCC7",
"AX c #D3D2CD",
"SX c #DCDCDA",
"DX c #D7D7D4",
"FX c #CFD1CD",
"GX c #FCD9C6",
"HX c #EDDED8",
"JX c #DEE0DE",
"KX c #FFE5D6",
"LX c #EBEBEB",
/* pixels */
"Z.N.l.b.m.b.S.J.J.`._.F.z n m.G.J.F.b.D.B.l.k.B z B N l.k.!.XX6XnXMXMXMXnX#X].H.x.L n c.H.U.L.U.[.[.W.M.l.c.H l H z B k.B G G j k k l N B x ",
"F.b.S.G.H.F.D.T.~.]./.m.z n x.D.G.F.N.D.N.B z z z x B N.XXvXBXGXGXGXGXBXBXGXVX#Xn.v.M.x.m.F.H.Q.OXOX}.m.b.c.H z x l B c.c.G N b k k N V c.B ",
"S.N.N.S.I.D.Z.D.D.T.T.I.M.c.b.F.S.B.B.H.b.l.k.z l n.}.8XbXGXGXGXGXGXBXBXBXBXbXxX8XQ.N.l.m.N.G.!.OXOXY.Z.v.k.z x.z z B c.J G N G N f N B B B ",
"C.C.S.S.J.H.F.Z.B.F.Y.Z.m.v.C.C.b.B.b.C.F.l.l.B J #XfXxXbXbXGXGXKXKXGXBXbXbXbXxXxXzXQ.K.B.C.N.H.T.Y.I.Z.x.n G c.x z H x.K G j l B N x l j H ",
"C.S.S.S.G.H.I.S.b.F.H.I.m.F.b.b.b.v.c.C.D.D.z.l.XXiXcXcXxXBXGXGXKXKXGXBXbXxXcXcXpXpXzX].b.b.v.Z.F.m.m.b.x.H M.c.x c.H G G G G L n.c.B G L G ",
"H.J.B.m.F.B.N.b.l.c.I.T.I.I.I.B.c.M.b.D.~.~.D.|.zXlXpXlXcXbXGXGXKXHXGXBXxXcXpXpXpXpXpX8XQ.k.k.Z.m.M.n.B.B.b.c.x.k.B x.L L K V.G.!.G.N.G.G.J ",
"A.H.m.m.m.v.x.B l.k.m.I.I.T.B.m.B.c.N.K.~.J.C.7XlXpXyXpXlXcXbXbXNXGXBXbXcXpXpXpXyXwXyXiX:Xn.n M.v.x.c.N.N.c.V H B B H c.n.V.V.G.G.B.S.G.G.l.",
"M.B.m.n.b.b.v.H V.D.D.S.N.!.I.v.N.S.z.b.S.S.|.iXiXwXwXuXtXkXlXzXxXxXxXcXpXpXyXwXwX0XwXuXiXXXL L n.c.x.c.c.c.V N L N G J n.c.x.L.B.b.V.V.V.J ",
"F.M.V.U.J.N.N.B.B.S.D.C.b.G.G.b.N.N.b.c.b.!.5XyXwXwXg.qXg.uXkXkXkXkXxXkXyXuXuXwXqXwXqXwXtX7XXX X XP.J H B H J B l l n n G H B c.M.m.B.B.c.N.",
"m.V.Q.OXQ.U.S.F.b.C.C.m.c.b.N.c.m.b.b.m.U.%X3XqXqXf.g.i.g.g.s.g.s.kXkXkXeXqXs.g.f.f.9X9X<XdX/ R R !  XL l B c.B h l v v l l H M.G c.c.c.V G ",
"v.B.T._._./.H.S.F.v.c.m.Z.S.b.k.x.b.m.F.}.4XrXf.i.u.u.u.s.u.i.s.s.g.s.g.g.i.u.i.r.i.f.i.2X/ U y : U U [.n l x.l c h x v h b G G n N N N N G ",
"l.A.B.F.(./.^.~.Y.m.c.m.H.S.l.B k.m.H.OX-X4X<Xi.u.t.0.w.q.w.t.u.u.s.s.s.i.u.r.r.r.w.r.p./ U U U E E E E P m n b g h b x l l b l b b j j N J ",
"v.b.c.b.(./.H.~.).B.x.b.N.N.B z j.F.}.XX>Xp.d.y.t.q.3.*.3.q.3.3.q.u.i.u.u.0.9.0.9.9.t.a.U : u ~ ! P. XU E P b b x x l l b v v x v v k j N N ",
"H x.S.).`._.H.K.).F.l.k.x.z z z Y.$X! U U Y Y / p.4.1.@.` 3.3.3.3.t.u.t.0.q.q.q.;.4.7.U y r F W {.x.b [.! ! b v v c h x x v h v v v g k k k ",
"m W.H./.'.@X@X].~.H.C.b.v.Z.l.b.! Z : ; > > > > Y 5.2.[ _ 1.3.3.3.t.t.0.8.;.*.%.&.<.Y ; r D o.<.7.P v n.E.{.b l n f k f l b g v G v N v k G ",
"v.~.~.`.@X-X@XOX(.S.Z.Z.Z.F.l.{.U > : : : ; ; > > > Y W A o.` O.3.t.u.t.8.#.@.O.A Q , r i A +.1.7..XK H c.c.l f l l j j x l n b v N k j G H ",
"b.G.].'.@X@X@X'./.~.K.K.F.S.v.E : : y D d 4 2 4 e e > y D ) { o.O.3.u.t.3.<._ s Q y e t i A +.8.e.&XoXJ k.k.l f j j f j j b b b b j j j b g ",
"v.S.`.'.@X@X'.`.].].].S.m.b.[.: : W p.o.8 5 8 5 s d e : y D A ) _ 3.w.w.#.) D Q U Y u d s [ &.q.e.,X7XL.k.k.N f h h g h b b b n G l N b G g ",
"C.S./.].+X@X'.'.`.~.K.S.v.l.~ : R dXy.S s s d 5 5 D sXaXU U u d s %.3.3.o.d Q R R aXdX5.F o.@.q.r.*XtX{.B B N j c c g j H n.n.L H l l b G B ",
"/.S.^.(.OX+XOXOX/.H.D.C.b.N.! U dXzX&.S F s i 8 d sXgXhX^ U U Y t [ O.o.s Q Y R aXZXSXvX5.o.&.9.r.f.<XfXL z B N f g g j L P.L.H l l l l l.c.",
"~.H.^.(.`.+XOX`.(.H.S.b.c.n.! R vXd.o.[ o.s s d / gXCXhXaX^ U : u s s s 3 ; R sXFXLXLXJXdXo.#.3.r.i.f.tX{.L N N l j x l H V.M.H l G G n l v.",
"`.^.J.).OX+X@X'.`.I.J.B.L M.! >XdXq.+.o.o.s s d aXCXCXgXhXaXsXR & 3 5 6 d u aXCXLXLXLXLXZX2.1.*.,.r.f.eX7XL.V N.n l j l M.V.n.B l N z b l n ",
"_.^.J._.'.+X+X'._.T./.G.c.L ! jX<X1.1.o.o.a i D CXFXFXCXCXgXhX^ r 3 5 5 s / vXCXJXLXLXLXHXdX&.*.:.r.r.wX3X|.c.b.z j h l H c.B l x B H n l M.",
"_.~.T.).(.^.(.(.(.T.D.S.C.m.[.fXy.1.1.+.o.a 9 5.FXSXJXDXFXhXaXaXY s i 9 s sXaX^ aXLXLXLXLXvX+.*.:.9.r.9XtX7XU.N.M.l l l G H G J m n x l x b ",
"(.(.(.(.C.v.A.H.~.H.v.l.m.Z.L.zXu.8.%.&.o.| p p.DXSXJXDXFX^ ^ ^ 2.7 0 s s dXR ^ / CXJXLXLXZX1.#.>.,.r.i.qXtX6XZ.c.n x j b l b L H H G l l x ",
"OX(.(.(.D.k.b.D.D.C.v.h.M.I.XX1Xt.4.*.&.o.| p dXSXJXSXDXhXU R R a.9 9 s s hXU Y : aXJXJXJXZX4.#.;.>.9.i.9XrXzX}.m.n n l b h h m N x.G l x z ",
"OXOX(.T.S.l.l.D.D.A.l.l.n T.zX,Xt.q.8.#.@.| a dXJXJXSXFXsXo , : a.9 9 s s dX: , o / SXJXJXZX4.#.$.>.9.u.f.qXyX6Xm.x.n z n b v v v H z z z z ",
"+X_.I.B.C.N.A.C.l.h.j.j.m 6XkXi.0.9.8.$. .{ ) dXSXSXDXCX^ o o : a.0 0 ) ) aXU o o / FXDXSXZX1.@.@.;.:.r.i.9XrXzX}.H l l z n H b h J v.k.x.j.",
"+XOX).H.C.m.Z.Z.D.v.v.v.L.vXqXy.r.9.:.$. .{ A 2XSXDXFXCX/ o , R a.s ) ) o.dX/ , o / FXDXDXvX1. .O.$.%.9.r.*X9XtX8XG z b l z H l h m M.M.L B ",
"+X-XOX/.b.x.m.I.~.^.C.H.#XzXqXu.9.9.:.X. .| ) p.DXDXFXmX^ o > ^ 5._ o.o.A sXaX: , aXCXFXZXvX<.{ } X.$.:.9.i.f.wX8XP.m n n l b j h l m.E.E.V.",
"`.+X`.(.J.H.K./.~.^.^._.fXiXqXr.9.9.>.X...| A 6.AXFXCXCXhXU R aX2.o._ _ _ p.hX^ ^ gXCXFXZXfX+.{ } } X.%.:.r.i.9XtX;XL h x x x n V c.B.U.U.V ",
"(.`.`._.J.~.~.^.^.D.^.'.zXiX*Xr.9.:.$...] ) | <.ZXFXCXgXgXaXaXjX2.` 1.` o.2.dXgXgXgXCXFXZXd.o.[ F }  .$.>.,.r.9XqX7XL x h x x H l.N.G.B.n.N ",
"Y.OX_.(.T.H.~.H.C.C.!.5XzXqXi.r.:.;.O.] A o.| +.hXCXCXgXgXhXhX2X<.O.O.#.#.&.p.hXhXvXCXFXvX5.o.6.&X+.o.O.$.;.9.r.9X3XoXn l f f k.v.B.S.V.J N ",
"OXOX(.^.Z.D.H.H.~.Z.U.8XrX9Xr.9.:.#.| [ 6.:XF | p.vXCXvXgXhXdX2.O.O.#.3.3.#.4.2XhXvXmXvX2Xo.[ ;XE.~ A |  .$.;.9.i.qX:XP J G l z v.m.L.L.n.j ",
"OXOX/.Y.m.W.Z.Z.H.A.Q.8XuXi.0.>.$. ._ F Q.}.F a 1.dXmXmXgXhX2X1.-.#.=.3.3.3.1.6.dXhXvXdX2.) s ;XQ.Q.F | { X.%.:.r.*X4X!.m.G H x.M.n v.b.V.k ",
"W.(._.T.Y.A.Z.D.S.H.-X3X9Xr.9.=. ._ 0 I ).Q.~ 9 s t.hXhXhX2X2.O.O.` O.=.=.#.=.3.1.p.dX<.[ s D  XP.!.I a A { @.%.9.*X4XOXc.z B z L G H n.J k ",
"j.(.(.`.Y.J.H.S.C.H.6XtXi.0.>.@.[ q 9 Q.(.`..Xi 9 A 2.2Xa.<.o.` ` _ ` ` ....-.O.o.+.o.a 0 8 D {.V.Q.oXp a ) } $.8.y.4X|.c.N l N G H B B J G ",
"j.(.(.(.).~.S.D.D.D.7X<Xr.q.$.} | 9 S '.'.+X#Xt 5 7 9 s ) ) ) ( ( 7 ( 7 7 7 7 ( 0 s s 8 8 5 W }.L.K [.S a a | O.%.0.=X%XB.n.N B n.b.c.B N H ",
"Y.Y.Y.^.~.J.S.J.~.J.fX*Xe.;.@.{ a a S ].'.'.#Xd 5 9 5 9 7 7 6 ( 6 7 7 7 7 w 7 7 w 6 5 5 5 3 ~ P.n.H K F 9 a a } $.0.d.5XI.L.L M.H n.c.B G H ",
"(.Y.Y.(.).I.H.(._./.fX<X9.%.O.| a S F `.+X(.Q.Y 5 5 5 5 5 w 5 6 5 6 5 w 5 w 3 3 3 5 5 3 3 3 / M.W.n.B.F s 9 a } &.q.,X6XL.E.n.H H G n G c.V.",
"(.Y.Y.(.(.Y.F.R.(.`.fX1Xq.$.} a a p <.'.'.^.~.W 3 3 3 3 1 3 1 1 1 1 1 1 1 < < < < < 1 1 1 2 a.L.F.S.K.~ i 9 9 { &.4.,X6Xn.L.L.m m v h b K U.",
"(.A.Y.Y.(.H.Z./._./.8X,Xe.&.} S 9 p ~ ~.].^.(.~ e 1 1 < < 1 1 1 < * * < * < < t F <.2._ s 9 sX%XU.G.!.%X8 8 p [ &.e.4X-XL.E.E.L L v v v N J ",
"Y.A.W.W.F.C.k.A.J.Y.5X4Xe.&.o.8 8 4 oXl.S.H.|.a.s s 1.u.g.uXg.2X4.d 5 1 5 s t.g.g.lXlXyXwXyXlXkX3X6X-X:X4.@.} O.%.y.4X|.Y.E.E.L.M.c.c.H H M.",
"(.(.Y.Y.Z.v.C.S.^.^.#X3Xy.&.[ p S S &XG.!..Xp.,Xg.g.g.g.g.g.g.g.u.O.) ( 0 ` 3.3.w.w.,.f.f.f.f.f.qXs.<X*Xf.r.9.%.4.y.7XL.m.m.m.m.F.B B c.W.(.",
"(.(.~.T.H.C.A.S.C.D._.8X<X4.O.} @.1.4X%X&Xd.i.qXf.f.w.w.w.3.*.-.O._ 0 7 7 0 ) ) ` ` ` ` 3.=.3.,.w.w.w.r.f.w.w.3.q.4X;XV.N.b.Z.F.N.k.B x.m.U.",
"~.]./.~.Y.Z.Z.H.C.C.!.5X3Xt.&.*.9.w.s.y.i.f.f.w.w.-.-...` ( ( 7 7 w w w w w w w w ( 6 7 7 ( ) _ ` ..=.*.*.=.=.q.d.7XP.c.b.B.H.B.b.H c.x.H M.",
"~.~.~.~./.Y.I.G.C.C.J.OX8Xs.q.*.*.9.w.w.>.=.-.' ( ( ( 7 w w w w w 5 6 6 5 w 5 6 6 5 7 7 0 ) 0 ) _ {  .#.&.4.8.d.4X~ K H c.L.E.m.x.B B N H L ",
"^.^.D.S.~.!.J.b.l.b.J.J.OX4X<Xt.3.*.$.#...] ( ( ( ( 7 0 7 ( 0 0 0 0 0 a 0 ) ) 0 ) 0 ) ) ) ) _ _ O.O.&.3.t.y.d.3XXXL L L M.L.Q.L.M.N x l b L ",
"D.A.A.D.S.T.~.S.z.D.~.^./.#X4X=Xe.0.4.#.@.{ { ) ) _ ) ) ) ) 0 ) q ( ( ( ( ( ) _ | | | | { { { X.@.%.1.0.y.<X4XXXP.L L H V.L.U.L.J x f j j l ",
"h.h.v.A.C.H.~.G.F.S.^.(.(.(.@X5X,Xy.0.*.1.O. .{ _ _ _ _ _ _ _ ( ] ( ( ] _ ] ] ] ' ] ' ......X.#.*.8.e.y.,X&XQ.n.J K H J n.V.V.M.l l N j g x ",
"A.A.A.A.m.C.J.I.m.m.H.(.`./.`.#X%X,Xy.q.3.%.&......._ _ ( ] ( ' ] ' ' ( ] _ ] ' ' ' ' .. .X.X.$.8.y.>X%XP.P.B.N.L B B B H n.M.c.l j j k M g ",
"j.z.k.n v.C.H.S.m.C.S.F.H.C.H.S.F.F.%X=Xt.8.;.#.....` ..' ' ' ' ' ' ' ' ..' ' ' ' ' ....} o.<.:X%XQ.U.B.N.c.V.l.B H H J H H c.c.H j j g g l ",
"A.l.n l x.A.H.H.F.N.b.v.j.b.C.k.l.l.C.Y.OX;X:X6.4.#.} ..X.-.=.=.=.=.>.>.>.:.:.8.q.e.=X4X-X}.J.T.B.G.G.V.c.c.H B N J H H H J n.c.c.H n b j f ",
"h.h.j.z c.Y.).!.J.b.k.k.z b.S.B k.l.b.S.S.B.P P..X4X1X*X*X*X*X*X*X*X*X*X<Xi.*X<X1X1X1XzXXXF.H.T.G.V.B.V.l.B l N b H H G H J J c.c.G j j f k ",
"h.z h.h.n.U.OXQ.!.l.z z B l.z.V V l.b.b.c.v.l l m.6XkXkXtXeXeXeX1X*X*X1X<X1XeX1X3XtXtXfX|.b.B.I.G.J V.n.c.J l n b G L H N V G J V k k f f f ",
"h.x x x B m.m.H.m.N z h.l.l.V k.n.N.H.Y.C.z.l.L %X4XkX3XiXtXtX1XrX1XrX1X1XeX1X1X1X3XtX8X%XV.G.Y.G.n.L.B.n.N j l j J c.c.B N N l.V j f f l l ",
"h.z B B b.S.B.m.B.c.N V z.v.z M.m.Z.Y.Z.Z.U.oX~ C D y.1XeXtX8XiXrXeXrXeX1X1XeX1X1X4X,X<.~ >X|.V.G.I.G.M.L H H N J x.j.x.z l l N f f l.l.J N ",
"h.h.h.h.k.Z.B.L.F.S.N.S.J.C.c.v.N.I.R.}. XD t & % @ 2 6.1XrXrXeXrXrXrXrXrXrX1X1X*X6.D # 2 t D a.%XU.B.B B c.N k j j x z B N x f k f N N N N ",
"A.l.k.k.v.c.V.U.Q.].K.K.J.H.l.z.G.R.#X~ C e - +   O O Z 6.<X0XrXrXrXrXrX0X0X*X=X4.D & @ & = ; C Q &XoXM.B N l k j f h x l.V B x f f j G N N ",
"^.C.c.M.c.M.L.T.`.].~.!.K.D.z.z.I.OX$XC ; $ O .     . O 4 =X*X*XrX0X0XrX0X*X*X6.d # O O O % $ & y Q >XP.B l f j g f x N V k.B z N k j j k G ",
"_.I.Z.m.m.I.L.I.I.Y.R.(.).G.N.b.I.;XQ y ; O     . .   . O 4 4.*X0X0X0X0X*X=XX.4 * O O O O   O % & y Q 7Xv k l N k x j N N N N N B j j g k k ",
"E.E.(.(.R.U.I.v.W.I.OX_.`.].G.I.}.a.Y y = %     . . .   . @ - S >.*X=X=Xe.S < @ +         O o % = y C a.[.b N N N N j N J B N f l x g v k M ",
"W.I.R.R.Y.F.b.m.v.I._._.).Y.K.T.XX/ C e = %     .   .   X O @ # 4 oXoX~ S < @ @ % O O     O O % & r u / XXn.N N J J G N c.J N f g h f k k M ",
"W.m.F.I.F.A.b.b.A.Y.T.(.T.S.!.OX-XQ u ; > %   o . . .   O O X * # I m.m.- @ @ @ % O O       O % & r t W fXP.G j N G c.N.G.N.z h h l l k k k ",
"n.n.m.Z.Z.Z.A.v.Z.Y.(.).).F.F.Q.XXQ Z e = $ % X o X X O O O X X - {.V.J Z * @ @ @ O O X     O % $ e t Q fXP.B l j G n.N.N.c.B f N B N j f f ",
"L L c.m.L.F.H.T.I.T.E.U.I.m.T.R.{.W t 2 = $ $ % O O O O $ + # # r Q.B.K I # # # & $ @ O O % % $ = e t W 6XL.c.H N N J c.N N l N l.l.n.J N N ",
"n H b.Z.F.I.Q.(.Y.G.F.S.v.M.T.T.P.~ Z 2 = & $ $ @ O @ + @ - < 4 ~ l N N P Z 1 # # $ $ % % % $ - = ; r F ;XK N M.V.c.c.n.B f x j J H J N l N ",
"G v.N.S.Y.T._.T.H.S.B.b.k.v.B.B.P.P.! r r = = - = & = = - ; Z I J f j k l P Z 4 - & @ @ @ @ @ # & 2 4 W  XG N L B.B.N.N.J x l l N N N l f k ",
"L G.D.Y.T.)._.T.H.S.m.v.l.k.H M.c.c.P. X~ ! T C C T T C ! P P.G f f x N N N.U.~ C 2 $ # # # - & 2 e C 7.G N V J L.U.V.V.V.J V N N N N l j j ",
"V.Q.R.R.R.H.T.T.).b.k.j.H G z v.M.L m m.F.~.G.B.B.B.I.c.l.l l k f l B l.J l.V B L {.~ W W C C W / .X.Xk k N J J P.Q.V.J L G G J G V x x x k "
};
