/* XPM */
static char *result[] = {
/* columns rows colors chars-per-pixel */
"70 70 256 2 ",
"   c #260A0B",
".  c #39050A",
"X  c #3A0B10",
"o  c #291617",
"O  c #351616",
"+  c #290F10",
"@  c #35241C",
"#  c #3C2A1D",
"$  c #38261B",
"%  c #28241E",
"&  c #0E1733",
"*  c #2B1D23",
"=  c #372627",
"-  c #3A2C34",
";  c #332730",
":  c #1E0C0C",
">  c #460204",
",  c #4C0305",
"<  c #43030D",
"1  c #48080C",
"2  c #530204",
"3  c #5B0305",
"4  c #490411",
"5  c #530414",
"6  c #491919",
"7  c #581819",
"8  c #51130C",
"9  c #69070A",
"0  c #76080C",
"q  c #6E1315",
"w  c #432B1D",
"e  c #57341E",
"r  c #542A1B",
"t  c #662D1D",
"y  c #4D1723",
"u  c #432B2A",
"i  c #4A3525",
"p  c #573B27",
"a  c #473638",
"s  c #523031",
"d  c #6B3D25",
"f  c #673B26",
"g  c #743A24",
"h  c #6C2A34",
"j  c #6C1025",
"k  c #366C16",
"l  c #366B1B",
"z  c #3A6D1B",
"x  c #356619",
"c  c #3C731C",
"v  c #3D7A1D",
"b  c #38721A",
"n  c #2F6418",
"m  c #3B6C21",
"M  c #3D7421",
"N  c #3F7A22",
"B  c #315F19",
"V  c #41751D",
"C  c #427B1D",
"Z  c #487F1F",
"A  c #5B432B",
"S  c #554739",
"D  c #67452C",
"F  c #774329",
"G  c #6A4C33",
"H  c #684937",
"J  c #6C5236",
"K  c #74563A",
"L  c #744835",
"P  c #427523",
"I  c #447C23",
"U  c #4A7D23",
"Y  c #487A2A",
"T  c #4F742D",
"R  c #6F7233",
"E  c #152A4C",
"W  c #2F334C",
"Q  c #1D3D66",
"!  c #553C42",
"~  c #733044",
"^  c #274467",
"/  c #594748",
"(  c #524B4B",
")  c #785B44",
"_  c #70514B",
"`  c #7C6349",
"'  c #71724F",
"]  c #756E75",
"[  c #62625F",
"{  c #900910",
"}  c #B70716",
"|  c #AA0813",
" . c #B41827",
".. c #B22E35",
"X. c #85332D",
"o. c #C70617",
"O. c #D8071C",
"+. c #DC121F",
"@. c #E3071E",
"#. c #D51428",
"$. c #E90C22",
"%. c #E91729",
"&. c #F21128",
"*. c #D02D32",
"=. c #E92332",
"-. c #854A2D",
";. c #884D33",
":. c #975536",
">. c #8D5032",
",. c #A85938",
"<. c #906C3A",
"1. c #AE653E",
"2. c #8D3849",
"3. c #B83642",
"4. c #E03346",
"5. c #885648",
"6. c #94544A",
"7. c #AD5350",
"8. c #85694A",
"9. c #977849",
"0. c #866956",
"q. c #8B7755",
"w. c #977A58",
"e. c #916B4F",
"r. c #AB6446",
"t. c #B76A47",
"y. c #A67D41",
"u. c #A97E41",
"i. c #AB6B5A",
"p. c #B46C58",
"a. c #BA745B",
"s. c #B27655",
"d. c #B15866",
"f. c #967A67",
"g. c #8C6D68",
"h. c #AB7865",
"j. c #B6716D",
"k. c #C9504C",
"l. c #C9754A",
"z. c #C87859",
"x. c #D67C59",
"c. c #D0764C",
"v. c #CA586B",
"b. c #C97C64",
"n. c #D06C72",
"m. c #E25C65",
"M. c #C1422F",
"N. c #3E841C",
"B. c #3F8322",
"V. c #44821D",
"C. c #49831E",
"Z. c #468A1E",
"A. c #4D911E",
"S. c #458323",
"D. c #4A8424",
"F. c #468B23",
"G. c #4B8B24",
"H. c #4C842A",
"J. c #4D8C2A",
"K. c #46842A",
"L. c #528C26",
"P. c #538D2C",
"I. c #54862B",
"U. c #4D9225",
"Y. c #4E922A",
"T. c #4A9826",
"R. c #53932C",
"E. c #5A932D",
"W. c #549A2B",
"Q. c #5A9C2C",
"!. c #539725",
"~. c #588936",
"^. c #559532",
"/. c #5A9433",
"(. c #5B9C34",
"). c #599937",
"_. c #4E9032",
"`. c #658B3B",
"'. c #659736",
"]. c #6F9033",
"[. c #5BA22D",
"{. c #55A22C",
"}. c #5DA333",
"|. c #5CA438",
" X c #63A335",
".X c #63A43A",
"XX c #65A93A",
"oX c #69A934",
"OX c #5B8940",
"+X c #6B9747",
"@X c #7A8856",
"#X c #789855",
"$X c #708D4A",
"%X c #68A946",
"&X c #78A94C",
"*X c #7C8C68",
"=X c #6EA756",
"-X c #878859",
";X c #918E58",
":X c #AC8045",
">X c #A5855E",
",X c #998566",
"<X c #859B64",
"1X c #958B72",
"2X c #A78A65",
"3X c #A38876",
"4X c #AF9170",
"5X c #90A16B",
"6X c #AEA672",
"7X c #88A85A",
"8X c #DA8359",
"9X c #C3885A",
"0X c #E5855A",
"qX c #E9885C",
"wX c #F08E5F",
"eX c #DA8567",
"rX c #D08A71",
"tX c #E88C66",
"yX c #F18F62",
"uX c #EC916C",
"iX c #F4936A",
"pX c #EA9477",
"aX c #F49877",
"sX c #E58A77",
"dX c #29528F",
"fX c #2E6DA8",
"gX c #606C8A",
"hX c #9D7A8B",
"jX c #CB7986",
"kX c #348FAF",
"lX c #309FDE",
"zX c #689ED5",
"xX c #63A1B9",
"cX c #8F8594",
"vX c #AC9090",
"bX c #ADAB97",
"nX c #A997A5",
"mX c #B4A8B3",
"MX c #8EA0AC",
"NX c #CD948F",
"BX c #F09C83",
"VX c #F2A188",
"CX c #D2AAB5",
"ZX c #D29D9B",
"AX c #94ACD0",
"SX c #B2B7CB",
"DX c #A2BAE3",
"FX c #C8BBC7",
"GX c #B4CCEB",
"HX c #9FC5E9",
"JX c #C8D4E9",
"KX c #CAD6ED",
"LX c #D8E5F6",
"PX c #EAF0F8",
"IX c #D9D0D9",
"UX c #C7C0AE",
/* pixels */
"Y.L.Z.G.R.G.!.[.Q. XoXP.C I I.].$X' I.].I.D.Z V.C V V A.V.C.D.U m x c K.F.G.Y.Y.N K.I H.R./.R./.OXOX_.K.Z.D.I c I c C V.C P C m x k V V C c ",
"R.G.!.E.R.R.!.Q.[.XX XE.R *.%.%.$.$.*.k.s.R T U c c b C C C.V.c z c I F.J.K.J.G.N.H.S.S.Y.R.E.'.%X%XOX_.G.H.Z v b v C D.U P V m x x V Z D.V ",
"!.L.L.!.E.!.A.!.R.[.].*.=.4.m.m.v.jXv.4.*.*. .5.T P V.V.D.D.C c c m N J.^.J.J.J.I V.H.H.J.!.P.'.%X%X|.R.F.V.v S.b v C D.U P V P V k V C V C ",
"U.G.L.!.Q.W.!.A.L.R =.=.4.CXIXCXjXjXjXCXj... . . .9.$XD.I.K.I c z M N ^.|.^.J.K.I H.L.L.L.J.L.W.(.).^.U.S.N V D.b v S.S.U P c c C b c V c C ",
"U.!.U.R.E.W.A.].3.&.=.m.CXjXjXjXv.d.d.3.hXd. . .}  ...w.#X`.~.I M M J. X.XP.L.K.I K.L.E.G.G.G.U.Y.J.J.G.S.S.U K.c I I P P P P Y H.D.C P I U ",
"W.Q.L.J.E.I.<.%.&.&.4.ZXLX4.3.v.v.hXFXhX7.d. .| } }  .{ X.{ X.;.' H._.W.(.J.K.J.Y K.S.U.Z.N.V.J.U.H.D.P.P.G.D.S.V.Z I I Y Y I.E./.E.L.E.E.I ",
"U.^.R.J.L.R M.&.&.&.4.ZXKXv.3.ZXmXCXSXhXd.d. .| | { { { 0 0 q q g I.H.J.(.J.D.H.K.S.C J.D.V.v G.G.S.D.P.L.D.Z I V.Z S.H.I.I.I.^.E.E.E.E./.C.",
"S.J.J.H.R *.$.&.&.&.=.jXFXjX..hXmXCXnXjXd. . .{ q 0 q q q 9 0 9 q ~.K.J.J.J.J.Y.Y.G.v J.L.C.v C S.v V.D.D.D.Z V I c M I H.D.I _.L.L.D.H.H.D.",
"L.D.L.].,.&.&.&.&.@.#.k.NXjX3.d.vXvXn.4.*.{ { 0 q 0 9 9 q 9 9 9 q K.K.J.J.J.G.G.G.G.v J.S.I v I S.C Z C C I I C M M N M I S.v S.K.J.L.L.L.H.",
"U.L.'.&X%.&.$.$.$.O.O.#. .d.d.hXv.4.#.| { j 9 9 3 2 , , > 2 8 q ' S.B.F.F.G.J.G.C Z I H.I M S.S.D.G.D.C c C D.C l z l M z M I D.P D.D.U U P ",
"G.P.].=.&.&.&.$.#.O.o.o.o.}  .=.%.o.{ 0 9 9 2 2 , , > > , > , 9 @XF.S.F.S.H.J.J.J.~.OX~.I N S.G.Z.U.G.I b v I v n l l m l M P I M C V V V P ",
"F.U.R $.&.$.$.@.$.O.o.o.o.o.$.$.} { 0 9 3 5 2 2 , , , , > > > 8 -XJ.G.J.D.J.J.I.( a S a ( T Y K.N.G.J.I l M N M x b M z z z M M M P z z V U ",
"F.L.<.%.&.@.@.@.O.O.o.} } $.&.} { 9 3 3 3 2 2 2 2 2 , , > > > 1 @XJ.T.J.J.R.K.[ a i = = o % T P c S.S.M x m M M z b c c M m l z P x m z V V ",
"v U r.%.@.@.@.O.O.o.o.o.$.&.o.0 9 3 2 2 2 2 2 2 2 2 2 , > > > 7 @XP.W._.J.^.+XS - ' +XOX+X@X( OXI v v M V c z M b n l b M m m b m m B B V x ",
"C ~.t.&.@.@.O.O.O.o.o.O.$.O.0 9 3 3 3 2 2 2 2 , 2 2 , , > 1 r h f.2X3X4X6X5X' / [ T F.L.Y Y Y N v b l K.D.V b b N l x k l M l m m m m V x V ",
"L.Q.k.$.@.O.O.O.o.o.} @.$.{ 9 3 3 3 3 3 2 2 2 2 , , 8 7 f ;.,.k.x.x.8XeXb.a._ a *XT _.D.N K.K.b b x z V.D.D.C k c c z b b c N M V V x z P P ",
"L.].k.$.@.O.O.o.o.} o.O.o.9 3 3 3 2 2 2 2 2 , 8 8 t g ;.r.c.x.x.tXx.eXx.z.7.s s S ) -X`.~._.I z N c c V.Z.V.c l b b l l c z M M z V z M m z ",
"D.E.k.$.@.@.O.o.o.| O.o.{ 9 3 , , , , , , > > r g :.t.x.x.tXyXsXsXtXsXx.a._ u s _ 6.p.w.-XOXN v N N I S.V.C c x x x x l M M M I P z c M P x ",
"G.E.t.@.O.O.o.o.} | O.| 9 , .     o O u 6 w r -.p.8XtXpXaXaXaXiXuXx.x.p.5.a s / _ i.z.z.a.w.@XI v v v C C C V z x n x c I H.K.Y P M v M V C ",
"[.E.9.+.O.o.o.} | } } 0 3 .     + O O O @ = u s 5.i.b.sXpXaXsXuXaXb.p._ / gXAXSXSXnXvXj.b.b.s.-XR N c v v v v V x x x l I ~.P.Y c c c c I Z.",
"[.Q.;X+.O.o.o.| | | { 9 ,   + o . . > 6 r p e s p f _ 0.h.j.j.b.sXz.7._ ] AXJXJXLXKXJXnXj.b.z.a.-X$XT v v c V C c z z c Y P.H.I c M I M v S.",
"oXQ.].+.O.o.| | { { 9 3 >   o 1 > > r -.:.t.a.p.5.K _ [ ] [ _ 5.b.z.z.4XMXDXzXzXAXGXLXJXSXvXb.b.a.i.,X~.H.S.Z G.N c z c S.J.U I v c M v v N ",
"XXW.].k.o.} | { { { 3 2 . o 1 > > 8 g 1.8XuXpXrXs.cXMXSXSXmXcXvXsXaXsXrXhXfXfXdXfXlXHXKXGXnXjXeX9Xz.h.,X#XH.U J.N l l v I D.I c b I B.M c I ",
"XX[. X7X#.} | | { 0 3 2 . O 1 > 8 g t.0XyXaXVXh.mXLXPXPXGXAXAXAXvXBXVXsXrXgX^ gX[ Q lXHXGXHXnXj.5._ 6.h.h.;X`.L.D.v z c M C I Y N M c c M M ",
"|.|.|.).w.#.| { { 9 2 , 1 , > , g t.c.wXaXaXpXbXLXPXPXHXfXdXdXdXkXvXVXaXpX4X_ ^ E & E lXHXHXMX! u - u _ i.a.2X;X~.Y M m M z M K.U I M c z b ",
"%X|.|.|.E.r... .{ { 3 , , , > 1 >.c.qXwXaXaXrXGXPXPXJXlXdXdXgXE dXAXVXVXVXrXrXd.! E E kXkX] ( ; ; ; u s 5.p.a.h.w.@XT P M z m N c S.I c c v ",
"%X%X.X}.!.I.-X7.3.{ 3 2 , > 1 7 M.x.wXwXiXaXrXJXPXLXHXlXE Q E & E zXUXVXBXBXtXb.i.! - W a - ; * * ; u u / 6.i.p.j.h.w.$XN M m m m S.N.b b N.",
"%X XE.Y.G.!.U.E.].9.X.g t L w.4XqXx.wXwXaXVXpXSXLXGXHXlXQ & & & E MXpXpXb.p.5.s a - - ; ; % * o o * u i h L 6.r.p.p.h.h.,XI N M l I G.B.S.B.",
"&X%XXX{.T.Y.Y.Y.^.U.Z.F.J.U.W.6X0XqXwXiXaXaXaXCXJXKXHXlXfXQ E ; W ] 5.s s a ! - - ; ; ; * * : : + o y r e f f 6.7.p.i.i.h.1X~.m l M K.K.U U ",
"%X&XXX|.J.S.J.Q.}.{.T.U.J.R.T.VXqXqXwXyXiXaXaXj.gXnXSXxXkX^ W a u ! ! ! ! a u * O = o o : o o : + X 1 X 4 y t g r.z.a.i.h.h.,XT m M _.).).D.",
"XX%XXXXXW.!.W.[.}.{.{.Q.Q.Y.L.rX0XqXyXiXiXiXaXL H / / ( ( - a a u ! s a s ; * o o o o o o O . . . . . . X ! g.h ;.p.b.z.i.h.f.1XOXU P./.~.U ",
"|.XXoXoX X[.[.[.{.T.{.[.[.U./.8XqXwXyXiXiXiX8Xa u u u a - u - = = * = = * o o + X X X X X X < < . . . . y cXGXgXy :.b.b.a.i.h.3X6XP.E.P.H.V ",
"{.%X.X}.Q.W.{.W.!.U.W.Q.[.Q.6X8X0XwXiXiXiXaXeXu @ o O @ = = o o   + o + O O X . 4 4 4 4 4 4 4 4 4 . < . / AXKXSX~ j k.sXb.p.h.h.3X+X_.P.Y P ",
"%X%X|.).R.R.W.W.[.U.J.W.[.oX6XqXqXwXyXiXaXaXpXr.r $ O O X + o . . 4 < < < X . . . < 4 4 5 5 5 4 4 < . y gXSXJXJXhXj ..tXeXa.p.g.g.bX_.H.Y z ",
"%XXX|.W.J._.T.T.W.T.A.!.}.7X8XqXwXwXiXiXaXtX8X:.t 6 < < . X < 4 4 4 4 . . .         . . , 5 5 5 5 4 4 s cXSXJXKXnXh 3.n.b.p.i.g.g.bXP.J.I.x ",
"_.|.|.|.^.T.!.R.!.U.!.{.T.6X0XqXwXyXiXpXeXt.6.t 6 < > 4 5 4 5 5 4 . .   : : + + O O y 7 7 7 j 7 j 7 y ~ nXmXIXFXnXd.v.z.z.i.d.g.g.nX~.D.U z ",
"T.|.|.|.Q.Q.W.R.U.T.!.Q.!.9X0XwXwXyXuXuXz.:.t 5 < 4 4 4 5 5 5 5 . .     : + y j ~ 2.2.2.2.2.2.6.6.:.6.p.rXNXNXrXb.z.z.p.i.6.0.g.] bXC Z I P ",
"K.{.|.|.}.[.!.!.W.A.A.Q.7X8XqXqXqXtXuXeXr.t 6 _ h y 5 5 5 5 5 4 . + + y ~ 7.v.jXn.x.n.tXeXeX8XeXn.x.z.z.a.t.p.r.r.6.6.5.5._ _ _ g.<XD.C V I ",
"^.^.).). XQ.W.Q.}.W.G.E.6X0X0XqXqXyXpX9X6.t h PXIXnX_ j 5 5 5 < . s 7.v.n.n.jXsXsXeXeXz.l.t.t.t.1.1.,.,.:.:.>.;.F g d _ H _ g.g.1X_.D.C I Y ",
"|.{.).{.}.W.R.}..XW.G.'.8Xc.0XqXqXtXpXx.:.7 7 IXPXKXSXhXh 5 5 1 h v.n.aXBXpXn.x.a.t.1.r.:.:.:.>.>.-.-.-.-.g F F L f D L ) ` 0.] T I P V H.D.",
"|.{.).).|.^._.|.XX[.T.'.9Xx.qXqXqXtXpXeXr.j X mXPXPXLXFXcXh 7 h v.BXBXpX8Xz.t.1.:.>.-.F F F F g F F F g d f d f f H L K ) g.#XH.N m m M K./.",
"|.{.{.|.|.{.Y.{.XX{.T.'.c.c.c.x.8XqXaXpX9Xg 5 0.PXPXPXJXSXvXa.sXpXeXz.t.1.:.>.-.F D d d d d d d f d d d d F D G L K ` ' #X+XOXK.I m m m P U ",
"_.T._._.W.U.S.T.{.T.!.'.9Xc.x.0X8X0XqXVXBXk.X.h mXIXIXCXBXaXpXeXl.1.1.>.-.F d d d d d d d D d D D D D L H L D ) ' #XOXR.).).).^.H.S.D.I I K.",
"|.|.{._.Y.F.U.!.W.{.{.].:Xc.c.c.x.8X0XiXaXaXtXn.pXaXaXiXuX9Xl.r.,.>.-.F d d d d d d d D d d D D D D _ ,X<X=X&XH.Y J.K.S.L.K.J._.P.C C D._.|.",
"}.|.}.{.W.U.J.Y.U.!.{. X7Xl.l.l.l.c.8X0XtXqXtXtXqXqX8X8Xl.1.,.:.-.F d d d f d D f f D D A D J J J ) ) 1X#X).).I M I I U J.G.J.R.J.V.V.S.J./.",
"[.oX[.}.W.Y.Y.W.G.U.[.oX7X1.t.l.l.l.l.l.l.z.c.l.l.l.s.1.,.>.F F f f f f f e p e e A A D G G K K ) ) ` f.5X/.P.P m M I D.L.R.R.Y.G.Z S.S.U K.",
"[.[.[.[.[.W.^.W.!.U.Q.oXoX:X1.1.1.1.1.1.1.1.1.,.:.:.-.F g f e e e e e e e i p A A D G J K K K K _ ) ` g.1X*XJ.m m M M K.D._.).P.H.C v I I I ",
"{.{.!.!.[.'.Q.J.Z.G.W.[.[.oXy.,.,.:.:.>.-.>.L F g d d f e f D G G p p e e e A D G J J K K K K ` ) ` ` g.1XvX).Y D.M I Y U P.+XP.S.c z M P P ",
"T.T.A.T.E.(.[.!.A.R.{.[.[.}.&X;X<.>.;.-.F F F D D D G J ) ` ' @X;XG A A A A A G J J J K K K K ) 0.) ` g.f.vX=X_.I.Y I I I.~./.P.U b k z c z ",
"A.N.F.F.J.Q.Q.Q.L.!.{.}.|.|.oXoX&X-X` K K K K K ` 8.-X-X#X#X+X'.5XK J A A D A G G J K K ` ) ` ` ` 8.` 0.-XvXbX~.H.I I I Y P.P.K.c c c z x b ",
"T.F.T.J.F.T.W.E.Y.F.W.|.|.|.oXXX.X'.].+X&X$X#X$X#X<X7X<X7X<X#X#X5X>.J D A G G J J K K ` ` 8.` 8.0.0.0.0.f.3XCX+XI P I Z I K.H.S.c z z x n x ",
"F.T.N.B.F.!.!.!.J.J.R.W.W.T.Q.E.U.J.!.!.!.!.].#X,Xw.0.0.` ) K ) K J K K K ` ` ` 8.' 8.e.e.e.q.9.e.q.q.q.,X1XbXbX~.I U U I U H.K.U z m x B M ",
"F.N.v b B.W.Q.W.R.G.G.Z.F.F.U.V.C.Z.U.Q.+X;X,Xf.,Xf.g.g.0.0.) K K H H H ) ` q.f.w.;Xh.>X:X2X>X>Xf.w.w.w.f.3X1X( ] *X~.N I U H.U D.I M z z k ",
"N.F.B.v H.^.(. XQ.L.V.N.S.G.A.C V.Z.!.$X-Xf.f.3XvX3Xf.g.0._ ) _ H H H / H J ` q.,X>X2X2X4X4X4X2X2X2X,Xw.f.,Xf.u ( [ [ OXI U U D.D.P c z z k ",
"N.N.N.B.D.).+X X'.C.v v C C.L.Z C.Z.~.w.w.h.3X3Xf.f.g.` ) ) _ H H S S / / / _ ` ;X2X4X4X4X4X4X4X2X2Xw.f.,X3X' = % - ( *XY Z V D.Z x x k k k ",
"N.b k b V.F.J.^.L.v v V.Z.Z.Z V.C.L.<Xe.0.w.q.q.) ) J H D p p p p p p S a ! ( / ) q.>X2X2X2X>X2X>Xw.>Xw.2Xf.! = = ; ! ( $XV V C.Z c k k k c ",
"v v C V.G.!.R.K.P.S.V Z A.S.v S.J.).q.8.8.5.K J J <.<.y.:X:Xy.y.<.G A A i i S ( ( ` 8.9.q.;Xw.w.w.w.w.;Xq.J # % % ; ; a ] b c C k b Z C.C.V ",
"N.N.N.N.V.J.P.~.E.R.L.L.Q.!.S.G.P.+X8.) K J D <.u.:X:Xu.:Xu.u.u.u.u.1.e.J i u i ( _ ` 9.e.9.9.;X9.9.e.K i $ @ @ @ @ = - [ _.v k x k V V V V ",
"T.Z.V.V.S.G.P./.'.[.Q.Q.[.W.Z.A.E.&X' J G K <.y.u.u.u.u.u.u.u.u.u.u.u.u.y.<.D A S / q.w.w.e.e.8.) G A # # $ @ % @ @ = - ( *XU b k k z P V V ",
"[.T.D.D.K.K.P./.oXoX[.[.Q.E.Z.A.!.[.@XG G <.1.u.u.u.u.u.u.u.u.u.u.u.u.u.u.u.<.J i _ 3XbX2X) A i w # $ $ @ $ @ @ % = = = a <XH.v V x z z z V ",
".X^._.J.J._./.^.^.).%X|.oXQ.Z.L.R.R.#XA J <.y.:Xu.y.u.y.u.u.y.u.y.u.y.u.u.u.u.<.G ' ~.P `.A e # # # $ $ $ @ $ @ # = # # a *XH.M C z z m x x ",
"^.).|.|.).).^.G.J.).)..XoX'.E.R.R.R.L.' J <.<.u.u.y.u.y.y.u.u.y.u.y.u.u.u.u.u.y.` @XM m V A i w w # # $ $ @ $ $ # # # - a *XT l b l x x x B ",
"_.^.).'.).R.J.F.U.^.|. X}.R.Q.(././.P.~.`.R <.<.u.u.y.y.y.u.y.y.y.u.u.y.y.u.y.;X@X~.c l B ) e w # # w # $ # # # # # # # S *XY l x l x x x B ",
"J._.R.^.R.T.G.F.T.^.}..X(.!.'.XX.X}.E.L.R.' $XR 9.<.y.y.y.y.u.u.y.y.y.y.u.1.9.$XH.S.M x m ' A i i A e i i A - # # # # # - *XY l z c c k x x ",
"H.H.G.Y.Y.Y.U.F.R.).|. X(.R.R.(.'.).^.H.H.D.I OX-Xq.e.<.y.1.:Xy.u.1.u.y.:X-X$XT V Z V k V ' J A e A A e A p i i i # # # S %XZ b c C c c z k ",
"Y Y H.J.J.^.^.(.^.).(./.^.J.(.).P.H.D.D.C V.C.L.R./.+X#X@X@X-X-Xq.;X7X$X~.M z k b C.V k V C @XJ G D A A p i i i # # i i [ N v c D.D.U U V V ",
"N I G.U.Y.). X(.(.R.R.Y.F.H.(.).P.U D.D.I V.D.Y.Y.^.P./.M M V U U V V V x x k b k C Z V Z C ~.;XK G D A p p i i # i S _ ~.l b c Z P I I b V ",
"N F.J.R.^.(.XX(.W.L.!.G.V.F.L.^.H.D.G.J.G.S.S.R.R.R.P.I.v b c C C z k k z V C b k C C.C.C.D.P.].$XK J A p i i i A S ' ~.K.b b b V V V V k k ",
"H.W.W.^.(.|.XX(.E.!.J.Z.V.S.I K.D.S.K.J.H.F.G.R.^.J.H.P v b v c k k c z Z C.V.c k Z V Z C.I.Q.A.H.+X@X) A A S S @X#X~.H.H.P I C V V c V z z ",
"H.'.).).(.W.}.'.[.G.S.S.B.I C S.K.N N K.J.W.W.R.R.R.L.V.V.k k k k c C C.U C.V.b k k V L.I.E.].C.Z S.I x b Y `.D.~.+XI.U U Y P Y U Z b k z k "
};
