/* XPM */
static char *result[] = {
/* columns rows colors chars-per-pixel */
"65 65 256 2 ",
"   c #070607",
".  c #1A1719",
"X  c #11170E",
"o  c #241D19",
"O  c #1B3A0B",
"+  c #153212",
"@  c #272E14",
"#  c #231D22",
"$  c #282428",
"%  c #342B34",
"&  c #3C363B",
"*  c #35312A",
"=  c #1F2121",
"-  c #483638",
";  c #473430",
":  c #1C480A",
">  c #1C590B",
",  c #1A5816",
"<  c #194516",
"1  c #244909",
"2  c #29580B",
"3  c #264916",
"4  c #285817",
"5  c #335917",
"6  c #364A16",
"7  c #1C6510",
"8  c #29680B",
"9  c #2A6817",
"0  c #376818",
"q  c #2B7616",
"w  c #377918",
"e  c #2F730B",
"r  c #1D5023",
"t  c #2C5924",
"y  c #335D25",
"u  c #3B5D2B",
"i  c #355628",
"p  c #3A5634",
"a  c #3C5937",
"s  c #30492B",
"d  c #296927",
"f  c #35632A",
"g  c #3C622A",
"h  c #386825",
"j  c #377926",
"k  c #3B6734",
"l  c #32782E",
"z  c #4B551B",
"x  c #76481A",
"c  c #446819",
"v  c #467719",
"b  c #4C7710",
"n  c #445C2A",
"m  c #464835",
"M  c #475935",
"N  c #575938",
"B  c #574D30",
"V  c #634739",
"C  c #6A5332",
"Z  c #4B642D",
"A  c #44662A",
"S  c #467926",
"D  c #557A28",
"F  c #4C6432",
"G  c #486836",
"H  c #546B34",
"J  c #5B6A35",
"K  c #576636",
"L  c #487738",
"P  c #56753A",
"I  c #56652D",
"U  c #636C39",
"Y  c #676938",
"T  c #776839",
"R  c #69723B",
"E  c #76733C",
"W  c #647728",
"Q  c #3D3E41",
"!  c #4B3D49",
"~  c #483A44",
"^  c #563C45",
"/  c #5A3A5C",
"(  c #3E4542",
")  c #3A7757",
"_  c #434B49",
"`  c #474649",
"'  c #594549",
"]  c #585647",
"[  c #50544C",
"{  c #624944",
"}  c #63454D",
"|  c #654947",
" . c #6A544B",
".. c #7B5D44",
"X. c #74574A",
"o. c #6C4B53",
"O. c #664751",
"+. c #704F56",
"@. c #755259",
"#. c #765756",
"$. c #6A5554",
"%. c #5D6747",
"&. c #487943",
"*. c #587946",
"=. c #516D48",
"-. c #696744",
";. c #667846",
":. c #767A48",
">. c #6A6656",
",. c #706A59",
"<. c #7B6558",
"1. c #7C7959",
"2. c #70704D",
"3. c #524B6F",
"4. c #6A5F6E",
"5. c #A13526",
"6. c #8A5529",
"7. c #985C36",
"8. c #89562E",
"9. c #A4583A",
"0. c #866739",
"q. c #99653A",
"w. c #877631",
"e. c #A2643D",
"r. c #A6683E",
"t. c #A1703D",
"y. c #814D1F",
"u. c #875749",
"i. c #915B49",
"p. c #AA5C4C",
"a. c #8A6746",
"s. c #9A6745",
"d. c #887849",
"f. c #99774A",
"g. c #826356",
"h. c #89695A",
"j. c #857657",
"k. c #997657",
"l. c #916B59",
"z. c #AB6643",
"x. c #AB6B45",
"c. c #A66946",
"v. c #B16D48",
"b. c #A07F4C",
"n. c #AB7249",
"m. c #B4724A",
"M. c #B7794D",
"N. c #A97754",
"B. c #B37B54",
"V. c #B37955",
"C. c #A06D53",
"Z. c #9A7667",
"A. c #8C7064",
"S. c #A4796C",
"D. c #D45F41",
"F. c #388619",
"G. c #379316",
"H. c #2E8711",
"J. c #2B8428",
"K. c #3A8625",
"L. c #3A9727",
"P. c #379032",
"I. c #38AA23",
"U. c #468719",
"Y. c #57891A",
"T. c #4A951A",
"R. c #58971B",
"E. c #498A0C",
"W. c #6A9919",
"Q. c #57A718",
"!. c #4BA819",
"~. c #65A61A",
"^. c #73AC1A",
"/. c #478827",
"(. c #568828",
"). c #489525",
"_. c #579627",
"`. c #4A8537",
"'. c #578736",
"]. c #4A9637",
"[. c #579736",
"{. c #679827",
"}. c #659638",
"|. c #6C8B30",
" X c #49A328",
".X c #59A527",
"XX c #5AA538",
"oX c #50AF33",
"OX c #67A726",
"+X c #6AB428",
"@X c #66AA37",
"#X c #75A837",
"$X c #78B637",
"%X c #74B12A",
"&X c #75C531",
"*X c #6FC91B",
"=X c #588546",
"-X c #5C9648",
";X c #598952",
":X c #4F9248",
">X c #678749",
",X c #75864B",
"<X c #679748",
"1X c #749849",
"2X c #678856",
"3X c #7A8956",
"4X c #769456",
"5X c #679554",
"6X c #58AA4A",
"7X c #69A646",
"8X c #69B748",
"9X c #77B645",
"0X c #73AD55",
"qX c #6FA964",
"wX c #718C64",
"eX c #6DC34C",
"rX c #6DC65D",
"tX c #3C8745",
"yX c #87B630",
"uX c #9D9F2D",
"iX c #95CD3A",
"pX c #868857",
"aX c #8D8F56",
"sX c #A1804D",
"dX c #A58846",
"fX c #B9855D",
"gX c #AC8A52",
"hX c #89B053",
"jX c #9B8568",
"kX c #8B9868",
"lX c #B48968",
"zX c #AB8E69",
"xX c #88AC64",
"cX c #A5AD64",
"vX c #C68B5D",
"bX c #C4905D",
"nX c #C79466",
"mX c #D39A6C",
"MX c #D99D71",
"NX c #CF9A70",
"BX c #D9A376",
"VX c #CEA97B",
"CX c #E3B37E",
"ZX c #8AC856",
"AX c #8CC86B",
"SX c #A2CA60",
"DX c #3D54A9",
"FX c #4A58AF",
"GX c #64639D",
"HX c #3B5DCD",
"JX c #566CC7",
"KX c #887494",
"LX c #6F85A6",
"PX c #96AD81",
"IX c #DBB182",
"UX c #E5EC9F",
/* pixels */
".X XR.yXE.T.6XQ.oX6X1 e 0 Y.oXK.hXT.$X(.v A |.D L.w qXz yXE.c &Xj cX8 R.SX0 P.#Xv ~.D 5 OXU.U.U., + }.6XO H.q .XI e X *.L b 6 c T.",
".X.Xv %XY.U.].Q.).=XS ).D .XL.).$X).9X'.'.'.>XS ).j <Xc ^.).t _.j @XL v ZXL.].|.Y.~.c e (.).'./.e 3 /.].> J.w OX0 5 z }.<X_.5 S U.",
"Q.+Xq W.|.d q OXR.1 -X7X%XrXq %X!.).<X;X5X1X:.G 8XK.T.v R.6Xr 7 H.H.;X, oXoX@X2 +X{.e G.6 /.<X|.R.w c /.G.j E.#Xe i 4X%XhX$XU.].0 ",
"T.L.(.~.G._.> U.7X0 l l $X}.3 {.q /.<XP *.,X3XL 1X4X$XxXR.:X, ).l .Xj l @X].@Xw +X$X9 8 w w (./.~.b D 0 w F.U.D Y.|.'.@XT..X/.S v ",
"E.L.XXOXH.+X4 K.-XU.h 9 $X|.@ `.7 /.=XP U :.3XP ,XxXyXSXOX:Xq XXK.@Xq `.#X:XXXF.%X#X8 2 v 9 /./.OXb '.0 9 v L.D _.{.(.6Xe _./.w c ",
"G.].qX XS T.{.=Xr G.).v &X9X5 L L P *.;.;.R -.F ;.H |.ZXyXh T.OX).oXP.OX(.8XK.d 7Xv 8 b b Y._..X+X0 j _.3 0 P.'.e 6 (.'.: =XXXv 5 ",
"T./.7X8XS ~.%X'.s K._.w *X9Xk :X=.:.:.*.R J Y K J J }.cXW.h .X^.R.oXj U.U.yX_.`./.4 E.Y.U.S '.[.R.0 _.}.k 0 S ].9 2 (.P > D ).F.g ",
"D w /.AXl iX*XS `.f Q.l Q.@X:X5X*.pX:.R U F Y U H R ,XSX[.L .X*X.XP.4 0 v iXZX8X> < ~./.[.9 /.[.q 8 yX_.0Xc (.I., H.D j 2 E.w G.*.",
"q w F.U.'.9X.X X{.#XXX9 ^.U.5X3XG ;.*.R N Y N ] M E R R =X, Q.I.6X].<X@X/.#X(.s w /.U.y c 4 l d < l F.j ).4 t r &.j S F.:XJ.9 W.yX",
"q F.w F.|.8X_.oX%X9X-X9 pXw 5X3XA *.H Y N Y N B M R R K >X, Q.I.6X).hX$X/.@Xf + S _.v 5 0 7 q 7 < &.q d H.4 r + ;Xq v F.:Xl 5 W.yX",
"].q eX_.l _._.8XOXP.1 K.G 4XJ 4XP J g m -  .V ; ; Y N :.H qX[.$X^.F..X(.&.J.9 2 [././.5 F., q j 8 8 q d u 5 2 2 oX3 [./.&.< O c Y.",
"].U.9XOXl }.OX0XR.K.0 `.G 4XU >XH F u m m  .' - - C V -.=.qX[.$X^.L..X(.L j 9 0 (./.).0 U.7 7 q e e l l 0 f 9 ,  X9 }.S l < O v Y.",
"R.yX@X#XS 0X7XAX8 S  XqX`.kXR P A i s ; - O.} } ' ; - m m >.;X.X(.XX+X_.S h c R.9 w L.!.U.q 3 1 H.^.F.F.E./.d 3 u T.kXi h O 1 h _.",
"S OXXX$XhX7X-XAXU.w ].qX'.,XE H u p m m | o.O.O.o.^ - - - ' %.>X=X/.+XD _.Y.v b j j T.T.[.j c v j (.w 9 b h 9 f y G.>Xh F.0 0 /./.",
"( (.oXiXUXP -XZX@XF.L 5XR P E H u u B M | +.O.o.+.O.} ; ; - ^ 4.wX8 @XI ^.^.R.1 (.(.G.D 8Xl $XyX&.n 9 > e O 0 :X9 J.5 /.!._.Y.OX0 ",
":X-X9X&X}.#Xw qXxX-XP k R U E J F u ] ' o.+.o.o.@.O.O.} ^ ; - ^ ] >.2X3Xc Q.e . '.(.8 5 U.(./.$Xc D : w 2 , L 9 j 8X1X5 2 5 5 Q.).",
":X-X9X&XK.$XF.qXxX5XU u U U E K K n ] } o.+.o.o.@.O.o.} ^ - ; - ` ,.2.kXu R.q X _.(.2 : b R.K.#Xw (.O U.1 d L 9 P.eXhX4 @ 1 3 Q..X",
" X@X@XG.6X0XAXk pX,X:.F E Y J y ` } o.O.o.@.+.+.@.+.+.} } O.^ ; ; - ` O.1.1XS X 9 /.1 0 9XF.{.8 v 6 5 h c b v L.{.'.O 9 X U.5 7 !.",
"oX@XXX:X6X0XAX&.pX2.E F E Y I p ' } o.o.+.@.+.+.@.+.+.O.} O.^ ^ - - - ' >.2.*.O , U.h U.6X_._.e D 5 5 (.b E.w L./.`.: 0 1 w 0 7 !.",
"ZX[.[.ZXqX0XxX*.pXF :.J E K F ' { O.o.o.+.@.+.@.@.+.+.O.O.O.} ^ ~ ; - - ` ' wX5 4 w =X%Xj OXG.9 |.9 4 7Xb R.2 ).9 L 7 0 e 0 w 2 ).",
"@X_.0XZXxX;X4X;.-.-.Y U E Y U ] } o.o.o.+.@.@.@.@.+.+.O.O.O.} ^ ^ ^ - ; - ^ ' ] =.*.*.1X=X].G.0 b 8 7 H.7XK.3 0 9 K.i p O u S < v ",
"XX).9X0XhX*.3XR K Y K T T Y K | ' o.o.o.+.@.@.@.g.+.+.O.O.o.^ ^ ^ ^ ~ % ; - ^ ] >.*.;.5X2X:Xv h Y.0 > e 9X].O 6 9 j G i * L j 4 z ",
"XX0 @X-X&.,X3XU R K T E K U F ] } O.+.o.+.@.@.@.@.+.+.O.} O.} ^ ^ ^ ^ - - % - m a [ ;.*.3X2Xh L 0Xj : b Q.AX6 z + : S r W.7Xj /.3 ",
"7XL <X;.;.*.2.Y E Z J U K H M { } O.+.o.+.@.+.@.@.+.+.O.} o.} ^ ^ / - ^ ^ - m N K K %.;.P ;.*.P qX-X9 Y.!.[.3 h j 9 3 y w -X].[.S ",
"qX=X=X;.:.K Y N E Z F F K M N } } O.+.O.+.@.+.+.@.+.+.O.} O.} ^ ^ ^ ^ - ^ - V Y R J N Y F U :.G *.rX/.{.).j < l eXh + h , :X[.[.-X",
"*.xX0XH a U M Y n N N g N Y  .} ^ O.o.O.o.+.+.o.@.o.o.O.} O.^ ^ ^ ^ ^ ^ ^ m Y N M M n M f M -.-.g A y Z `.S J. Xq w g (.7 K.j c A ",
"}.xX1XH n Y N K n K N a M .. .} } } o.O.o.+.o.+.@.o.o.O.| o.} ^ } ^ ^ ^ ' n  .N m M n n u m K -.g *.L F '.S P.[.q q A U.> l /.c v ",
"iXSX=.U F n N N N J g u p Y | ' ^ } O.O.O.+.o.+.@.o.C u...u...T u.X.8.X.T g X.C - - M * m N Y Y G kXPXP ;XH =X|./.9 S P.+ s .X_.~.",
"<XxXL J Z Z n J F K U Y T u...u.u.u.u.u.u.u.u.i.i.u.a.f.d.f.l.f.a.f.f.a.a.:.a.0.....M N B I F F M 2XkX%.L R L G t 7 w H.7 0 /.R.W.",
";XqXG H Z F n W g U w.f.C.n.f.c.z.p.v.p.p.v.m.m.n.s.f.sXb.b.b.b.sXsXsXsXb.b.f.a.N.V.N Y T N F Z M M 2.:.A E Z g < , H.H.G.q w ~.|.",
"5XxX=Xk Z H R pXpXzXBXBXnXBXBXBXMXMXMXMXBXBXBXBXMXV.N.sXb.b.b.b.sXsXb.b.b.sXb.a.NXBXpXR sX:.2.K s n ;.R u %.2X=.k t h q  Xs >X_.Y.",
"qXeX2X*.A G E :.pXnXBXMXnXmXMXMXmXMXMXMXNXNXMXMXMXlXk.sXb.b.b.b.f.sXsXb.b.sXsXa.NXMXsXR sXpXa.Y s n J J g F *.=.&.k G 0 P.3 =X[.U.",
"8X@XxXpXy y I K E n.B.M.n.v.v.z.c.c.z.z.6.7.v.m.m.s.f.sXsXsXsXsXsXsXsXsXsXsXf.0.m.B.N.Y 0.0.0.Y t U g y u u f g k J pXL u j h @XF.",
"oXXXkXpXg u F I E b.m.x.x.z.9.7.7.9.p.9.y.7.z.v.v.s.f.sXsXsXsXsXsXsXsXsXsXsXsXa.n.n.n.Y E T 8.I t K g t A u t f G H 3X*.a K.d .XT.",
"/.=X*.2XH Z n z s.n.x.x.c.e.8.x x 9.7.9.9.e.p.r.z.i.f.sXf.sXsXsXsXsXsXsXsXsXsXa.c.n.q.Y A W T u 5 y n i K N F g J Z 2X;.=XtX< w {.",
"j /.`.P G f n I f.fXB.B.V.n.c.q.c.i.u.7.i.7.6.z.z.7.f.sXsXsXsXsXsXsXsXsXsXsXsXa.7.t.c.T J 0.7.z n i n i N K Z Z g g ;.L H k q U.E.",
"w F.j L G d A F a.fXb.N.N.C.N.b.N.f...X.C 7.y.e.v.i.s.f.b.b.f.c.b.b.b.b.f.f.f.a.6.q.c.0.T s.r.C x n Z y I F A F t i J f H G /.T.w ",
"Q. X*.k R K i p F j.o o o # o * ; j.K M M ..i.z.z.c.C x 0.s.C 8.s.C.s.s.c.f.s.s.7.r.x.c.q.c.c.7.8.8.0.n u u t y t A g t ;X;X-X/.[.",
".X6X*.G ;.K i s a d.          # % 1.M a p ..e.z.z.z.6.x q.gXq.q.V.V.B.gXB.n.c.s.t.x.r.q.n.x.c.s.q.q.d.I u n 5 f d M f g ;.2X;X(.}.",
"$X-Xk *.3X=.i p M 2.        # $ & 1.G a p ..s.z.v.v.q.7.bXCXVXVXBXIXCXCXCXvXM.n.n.v.6.x c.x.x.x.x.x.x.0.I n Y I t U Z J 2.P &.w R.",
"oX<X&.*.2.=.p p ( j.      . # % ! 1.M a a ..s.z.v.v.9.x.nXjXj.j.j.A.pXA.lXnXM.M.v.n.7.6.c.x.x.c.x.x.x.0.n K Y J t J h H :.&.-Xq U.",
" XOX=X;.U G p p a d.    X # % Q ' 1.G p p X.s.z.v.r.m.D.MX,._ _ _ _ _ ( jXbXM.M.v.x.q.7.x.x.c.x.x.x.x.T A U T E i I t G :.=X6Xq G.",
"rX!.<XR A K s i p j.  . # % ~ ~ ' 1.M i i ..s.9.y.y.r.m.mX,.o $ Q = = Q jXt.6.x.v.v.M.vXvXvXvXvXvXvXvXfXsX,Xy g y J g F ;.2X2XxXxX",
"6XQ.5XR H M i i p j.. . $ & ~ ~ ` 1.M i i ..q.9.6.6.r.m.mX,.= % ( = $ Q zXt.6.t.t.t.M.s.i.a.a.f.k.C.V.f...Y t Z y I A G H 3X=XkXhX",
"I #X0XR 1.F i s p j.. $ Q ` ! ` ' 1.u s s ..q.z.r.v.v.m.NX,.% ~ ( % Q ! Z.gXq.r.q.r.M.; o o $ & ! ' g.- o $ % %.y y F P f 3X=.P $X",
"K._.4XP :.n t i i jX]  .@.#.#.<.<.3XM i i ..s.z.9.7.r.m.mX,.~ ` ( Q ! ` jXvXv.e.6.q.M.; X . % & ! ! <.; # % ~ -.F Z u g y G *.=X-X",
"T.).4XP E p i i a jX$.#.<.<.4.g.h.1.G p p ..s.9.7.7.r.v.mX,.~ Q ` Q Q Q jXvXM.e.7.e.B.; . # % - ~ ! <.- $ ~ ~ 2.K K g G f G ;X*.`.",
"+X!.;XR H p p p a Z.` ! ' ! ' ` O.1.M p p ..c.9.y.r.v.m.mX,.. $ Q = = Q jXvXM.v.r.x.gX; $ % ~ ~ ! ! ,.' Q ~ ! k.Y I u >Xf 2.2X0 w ",
"+XQ.}.;.P M a p a Z.~ ! ! ! ! ! ' 1.[ a a X.z.9.6.6.z.m.mX,.$ % Q # $ ~ jXvXM.m.m.v.V.C V  .X.#.#.#.k.g.X.#.#.k.I I g 2Xg *.=X6 2 ",
"OX#X.X4XJ M a a a jX! ` ! ! ! ! [ j.=.a a ..z.9.e.x 9.m.MX,.* ~ ` % Q ` jXvXM.m.v.m.M.fXfXfXfXfXfXfXvXfXfXfXfXsXn I g ;.F k &.+ + ",
"1Xc D pXpXj.:.<.2.zXS.Z.Z.Z.Z.Z.Z.k.<...<.l.i.9.s.q.x.r.nX,.` ` ` Q ! ` jXnXV.V.q.7.N.V.V.V.V.B.V.V.c.n.V.V.m.q.B Y I A f f -X=.* ",
"5X8 D pXZ.k.k.j.j.lXlXlXlXlXlXlXzXN.l.l.h.l.i.5.i.C.n.7.vX,.` ` ` ( ` ` jXnXV.V.0.6.N.N.N.C.C.N.N.n.0.s.N.N.n.7.I T J g f f <X*.s ",
"w /.yXaXS.a.<.g.g.g.g.g.g.g.g.g.g.g.g.g.u.FXFXp.FX4.#.x N.>._ _ ` _ _ ,.jXS.h.g.u...l.Z.g.g.g.g.<.<.C C g.u.uXW T T 2.;X*.=.4Xk k ",
"F.}.{.3XA.#.#.X.#.X.#.C ..#.#.X.X.+.+.X./ HXFXp.GXFXO.V zX,._ _ ( _ ( >.jXk.T X.g.h.Z.Z.#.X.X.X.X.X.V | #.0.uXE T uXR L ;X*.,XL L ",
"G.hXS :.l.| ' { { { { B V { { V V V | } 3.HXGXu.GXFX/ V zX,.` _ _ _ ( ( jXa.V { h.Z.Z.Z.| x V V } { ' { { w.uXw.C |.W h -X5X,X;.;.",
"H.}.v :.A. .V { { { ' V V { { ' V V V } } KXGXu.KXGX} } S.,.[ _ _ ( [ ( Z.0.V { A.Z.Z.Z.C V V V { { V { | w.uXa.N E E G 5X*.*.J *.",
"e G./.;.h.| { ' { { ' { { { { V B V V V 5.D.u.O.p.D.5.{ zX,._ ( _ ( _ ( jXa.V { Z.S.A.A.@.O.{ { { { { {  .n.s.C m Y a.2.>Xk k k k ",
"H.'.A E h. .{ { { { { { { { { V V { { } / KX4.+.4.FXO.' zX,.[ ( ( 3.( [ jXA.V  .Z.S.A.A.#.| ' { { V ' { { t.uX..V W uX:.@Xk |.`.@X",
"G.|.Z ,Xj. .' V { ' | V { { { { { { { } DXJX3.g.GXHX3.| zX<.[ [ =.` [ [ jXh.X. .Z.S.A.h.#. .{ { { { | | { w.uXa. .|.|.>X+Xp }.`.7X",
"0X$X$X0XxX2.] %. .-.>.>.>.>. .$. .$.$.$.O.FXGXlXJXDX4.zXIXIXVXNXPXIXVXlXIXIXk.$.S.S.A.g.X.$. . . . . . . .T uXdXdXuXG >X{.f t H h ",
"@X%X%XXX#XP G D =.3XaXP J ,XH P J H K ;.=.GXKXS.LX) %.aXzXaXcXcXcXkXaXpXcXkX:.:.Z.S.A.A.1.] [ m H W M ] -.U uXdXgX|.=.'.A 4 k H 5 ",
"Q.T.+XT.!.K.d G.J.qXSXK./.hXU. XR.H.K.8X/.2XjXl.kXL.v '.P F hX$X'.3X'.g L ].[.<XZ.Z.Z.A.4Xn i + T.!.4 A '.`.M j.aX,X=.S O > L A 6 ",
"E.U.U.F.+Xd q L.J.0X(.T.E.hX6X[.0 w 0 0 w M U W P  XU.w ).}.+X{._.i l w 3 w [.P pXA.Z.A.'.{.E.{.yXE.0 0 0 S (.z D |.4 F.8 R.c b h ",
"w F.w U.oXq P.oXJ.=X9 U.F.0X6X=Xc v 3 2 q A D (.c oX_.9 G.@XQ.{.{.O 7 e : 2 _.A 2.j.pXj.L @X!.^.yXw w v 5 v .X2 2 {.2 e T.+Xw U.w ",
"OXE.T.:Xh (.$XrXw i @ < > 7XJ.G {.v r O 5 #XZX>XS oXhX, : _.d cX^.X < O : > H.5 G 1XhX|.;X=XI.w |.5 e OX2 T.8Xd 1 h |.6 iX+XF.w q "
};
