/* XPM */
static char *result[] = {
/* columns rows colors chars-per-pixel */
"81 56 229 2 ",
"   c #4B3839",
".  c #754C2F",
"X  c #143D55",
"o  c #173E58",
"O  c #1B304B",
"+  c #232441",
"@  c #292945",
"#  c #382644",
"$  c #2D3A56",
"%  c #023563",
"&  c #572747",
"*  c #4B304C",
"=  c #6D2E4E",
"-  c #17435C",
";  c #1C4B64",
":  c #184A66",
">  c #1A526C",
",  c #165777",
"<  c #0F597F",
"1  c #21536D",
"2  c #2E516B",
"3  c #255A74",
"4  c #275C77",
"5  c #314D69",
"6  c #2B627D",
"7  c #26637A",
"8  c #34637D",
"9  c #2D5464",
"0  c #504D52",
"q  c #4B526F",
"w  c #6A4E6E",
"e  c #59646D",
"r  c #2F293E",
"t  c #931837",
"y  c #A61C3E",
"u  c #A2213F",
"i  c #8D582B",
"p  c #B07030",
"a  c #9F6631",
"s  c #D2791A",
"d  c #AB1E41",
"f  c #922F50",
"g  c #AA2749",
"h  c #B7274B",
"j  c #B73758",
"k  c #B13254",
"l  c #B13D62",
"z  c #C72D55",
"x  c #C8355A",
"c  c #D2355D",
"v  c #D53C62",
"b  c #DA3C65",
"n  c #D93B66",
"m  c #CB3D61",
"M  c #916C49",
"N  c #965070",
"B  c #BC4161",
"V  c #AB5071",
"C  c #9A415F",
"Z  c #C84768",
"A  c #DC446B",
"S  c #D54469",
"D  c #D84E72",
"F  c #D85678",
"G  c #C95072",
"H  c #E2446C",
"J  c #E44B75",
"K  c #E84975",
"L  c #E6557B",
"P  c #F5527C",
"I  c #F14F78",
"U  c #E5851A",
"Y  c #E6861B",
"T  c #D89135",
"R  c #E68B24",
"E  c #E68E2B",
"W  c #E98D22",
"Q  c #E9932B",
"!  c #E6943C",
"~  c #E79736",
"^  c #F19B2C",
"/  c #FFAB2A",
"(  c #F7A42C",
")  c #F8AA34",
"_  c #FFBB3D",
"`  c #FEB337",
"'  c #EDA135",
"]  c #B09861",
"[  c #CE9652",
"{  c #E69A46",
"}  c #E69E52",
"|  c #FFBD43",
" . c #FCB84B",
".. c #FABA56",
"X. c #ECA74F",
"o. c #EAAF66",
"O. c #D0A25E",
"+. c #FFC24C",
"@. c #FFC046",
"#. c #FFC453",
"$. c #FFC45B",
"%. c #FFC859",
"&. c #FFCB6B",
"*. c #FEC864",
"=. c #FFCE72",
"-. c #FFD27B",
";. c #135D82",
":. c #166688",
">. c #146C96",
",. c #18749A",
"<. c #2E6582",
"1. c #256986",
"2. c #326A86",
"3. c #336D8A",
"4. c #396789",
"5. c #287897",
"6. c #387A95",
"7. c #30738B",
"8. c #1B7AA4",
"9. c #2D7FA1",
"0. c #4D6E8C",
"q. c #736B8A",
"w. c #B06F8E",
"e. c #8A6D8C",
"r. c #DB5B81",
"t. c #EA5B84",
"y. c #F75986",
"u. c #DC6A89",
"i. c #E76589",
"p. c #F2648A",
"a. c #ED6D92",
"s. c #F56991",
"d. c #EC7395",
"f. c #F3799A",
"g. c #F47FA0",
"h. c #35869A",
"j. c #2C829A",
"k. c #1E82A8",
"l. c #1793B4",
"z. c #2387AA",
"x. c #3A8AA5",
"c. c #3896AC",
"v. c #2994B6",
"b. c #349CB7",
"n. c #258FB3",
"m. c #34A3BC",
"M. c #3AA6BC",
"N. c #158CA7",
"B. c #47879E",
"V. c #4897AD",
"C. c #7193A8",
"Z. c #44A8BA",
"A. c #6A93A6",
"S. c #289BC2",
"D. c #13B5D0",
"F. c #2EA6C8",
"G. c #3CABC2",
"H. c #33ADCC",
"J. c #36A8C4",
"K. c #3AB2CB",
"L. c #36B4D1",
"P. c #39B6D2",
"I. c #3CBCD5",
"U. c #3FBFD8",
"Y. c #43B1C5",
"T. c #48B9CB",
"R. c #43BDD2",
"E. c #4FB7C8",
"W. c #79B4C9",
"Q. c #6EB4C8",
"!. c #12C2DB",
"~. c #3FC0D8",
"^. c #0CD6EC",
"/. c #0DEDFE",
"(. c #42C4DA",
"). c #4ACBDE",
"_. c #48C6D9",
"`. c #54C9D8",
"'. c #5BD2DE",
"]. c #59C0CD",
"[. c #6CCBD8",
"{. c #4DCEE0",
"}. c #4FD1E1",
"|. c #54D4E3",
" X c #5BDAE6",
".X c #5FDCE8",
"XX c #5AD5E2",
"oX c #61DEEA",
"OX c #65D9E3",
"+X c #65E1EB",
"@X c #6BE5ED",
"#X c #6CE9EF",
"$X c #73E6EE",
"%X c #65EAF1",
"&X c #8B9AAE",
"*X c #8EA8BA",
"=X c #AFB786",
"-X c #F886A5",
";X c #F593AE",
":X c #FAA3BA",
">X c #E6829F",
",X c #8FCBAF",
"<X c #AAC098",
"1X c #FFD98D",
"2X c #FFE6B5",
"3X c #82B5CB",
"4X c #87B8CD",
"5X c #90BCCF",
"6X c #F9B5C8",
"7X c #99C6D7",
"8X c #8FC8D7",
"9X c #AACCD9",
"0X c #B7DCE7",
"qX c #90E8EF",
"wX c #BDE2ED",
"eX c #AFF1F5",
"rX c #FCC3D3",
"tX c #C6DDE5",
"yX c #C4E3ED",
"uX c #CBEBF3",
"iX c #C6E7F1",
"pX c #D3EEF5",
"aX c #D9F2F7",
"sX c #ECFAFC",
"dX c #E5F6FA",
"fX c #F0FDFE",
"gX c #FFF7E5",
"hX c #FFECC9",
"jX c None",
/* pixels */
"jXjXjXjXjXjXjXjXjXjXjXjXjXjXjXjXjXjXjXjXjXjXjXjXjXjXL H H A D F jXjXjXjXjXjXjXjXjXjXjXjXjXjXjXjXjXjXjXjXjXjXjXjXjXjXjXjXjXjXjXjXjXjXjXjXjXjXjXjXjXjXjXjXjXjXjXjXjX",
"jXjXjXjXjXjXjXjXjXjXjXjXjXjXjXjXjXjXjXjXjXjXjXy.f.-X:X;X:X;X;Xf.d.i.A b c jXjXjXjXjXjXjXjXjXjXjXjXjXjXjXjXjXjXjXjXjXjXjXjXjXjXjXjXjXjXjXjXjXjXjXjXjXjXjXjXjXjXjXjX",
"jXjXjXjXjXjXjXjXjXjXjXjXjXjXjXjXjXjXjXjXjXjXI s.;X:XrXrX6X6X6X;Xf.6X:Xd.H v D jXjX+ jXjXjXjXjXjXjXjXjXjXjXjXjXjXjXjXjXjXjXjXjXjXjXjXjXjXjXjXjXjXjXjXjXjXjXjXjXjXjX",
"jXjXjXjXjXjXjXjXjXjXjXjXjXjXjXjXjXjXjXjXjXI y.s.-X-X-X-Xy.y.s.-Xs.f.i.L K L i.A r.l # jXjXjXjXjXjXjXjXjXjXjXjXjXjXjXjXjXjXjXjXjXjXjXjXjXjXjXjXjXjXjXjXjXjXjXjXjXjX",
"jXjXjXjXjXjXjXjXjXjXjXjXjXjXjXjXjXjXjXjXH P y.y.s.-X-Xf.y.P s.f.y.f.t.K K L a.J i.D x & + jXjXjXjXjXjXjXjXjXjXjXjXjXjXjXjXjXjXjXjXjXjXjXjXjXjXjXjXjXjXjXjXjXjXjXjX",
"jXjXjXjXjXjXjXjXjXjXjXjXjXjXjXjXjXjXjXjXH P y.y.y.-X-X-Xy.y.s.>Xt.a.a.K K t.a.H t.r.n j & + jXjXjXjXjXjXjXjXjXjXjXjXjXjXjXjXjXjXjXjXjXjXjXjXjXjXjXjXjXjXjXjXjXjXjX",
"jXjXjXjXjXjXjXjXjXjXjXjXjXjXjXjXjXjXjXjXH I P P P s.-X-Xp.P s.f.y.a.a.t.K t.a.H t.i.b c z & + jXjXjXjXjXjXjXjXjXjXjXjXjXjXjXjXjXjXjXjXjXjXjXjXjXjXjXjXjXjXjXjXjXjX",
"jXjXjXjXjXjXjXjXjXjXjXjXjXjXjXjXjXjXjXjXH H I I P p.f.f.p.I y.f.t.t.a.t.K t.a.A J i.H n b x = + jXjXjXjXjXjXjXjXjXjXjXjXjXjXjXjXjXjXjXjXjXjXjXjXjXjXjXjXjXjXjXjXjX",
"jXjXjXjXjXjXjXjXjXjXjXjXjXjXjXjXjXjXjXjXA A V 0.0.q.w.d.p.I p.a.K t.t.K H L L b H i.A n n D Z * + jXjXjXjXjXjXjXjXjXjXjXjXjXjXjXjXjXjXjXjXjXjXjXjXjXjXjXjXjXjXjXjX",
"jXjXjXjXjXjXjXjXjXjXjXjXjXjXjXjXjXjXjXjXjXb S w 8 <.<.e N H L a.K K a.K H L L S b i.A n n r.S l # jXjXjXjXjXjXjXjXjXjXjXjXjXjXjXjXjXjXjXjXjXjXjXjXjXjXjXjXjXjXjXjX",
"jXjXjXjXjX; - jXjXjXjXjXjXjXjXjXjXjXjXjXjXb b c l q > > 1 q V F c v F D A i.J b n u.A v v r.n S k + jXjXjXjXjXjXjXjXjXjXjXjXjXjXjXjXjXjXjXjXjXjXjXjXjXjXjXjXjXjXjX",
"jXjX4 4 ; ; jXjXjXjXjXjXjXjXjX+ @ @ @ jXjXv v S n n B N 5 - 0 F c c G S x D c b n i.n v n F c S v = + jXjXjXjXjXjXjXjXjXjXjXjXjXjXjXjXjXjXjXjXjXjXjXjXjXjXjXjXjXjX",
"jX3.<.1 ; jXjXjXjXjXjXjXjX+ q *XtXiXiX0X3X&Xw.q.0.B.V.Y.M.M.V.V.q.N V D m G z z z F S v A S c S S z & jXjXjXjXjXjXjXjXjXjXjXjXjXjXjXjXjXjXjXjXjXjXjXjXjXjXjXjXjXjX",
"3.<.jXjXjXjXjXjXjXjXjXjX$ &XpXsXsXsXsXdXpXeX8XQ.Z.Z.G._.`._.~.G.b.k.2.9 0 = f k x G m x G v z S Z z g # jXjXjXjXjXjXjXjXjXjXjXjXjXjXjXjXjXjXjXjXjXjXjXjXjXjXjXjXjX",
"jXjXjXjXjXyXiXiXwX9XjX@ 4XdXsXsXfXsXsXsXdXpXwX4XW.T.Y.T. X X{.~.P.K.M.K.M.6.3 $ = N x x Z z z S S z m = + jXjXjXjXjXjXjXjXjXjXjXjXjXjXjXjXjXjXjXjXjXjXjXjXjXjXjXjX",
"jXjXjXjXpXsXsXsXsXpX&XC.aXsXfXfXfXfXsXsXsXaXuX9X4XQ.E.E. XoX X}.).).~.~.(.R.K.m.5.$ # = j h h j m z S h * jXjXjXjXjXjXjXjXjXjXjXjXjXjXjXjXjXjXjXjXjXjXjXjXjXjXjXjX",
"jXjXjXaXsXfXsXsXsXdXC.tXdXsXfXfXfXfXsXsXsXdXuXyX4X3XE.T.`.+X.X X{.{.{.(.(.(.(.U.P.v.<.<.* = g j k j x h f jXjXjXjXjXjXjXjXjXjXjXjXjXjXjXjXjXjXjXjXjXjXjXjXjXjXjXjX",
"jXjXwXdXfXfXfXfXsXpX*XpXtX9XsXfXfXsXsXsXdXaXuXuX7X3XQ.E.`.oX.X.X{.{.(.{.{.(.(.).U.R.9.3.3.5 = k h j h g h & jXjXjXjXjXjXjXjXjXjXjXjXjXjXjXjXjXjXjXjXjXjXjXjXjXjXjX",
"jXjXaXsXfXfXfXsX9XyX7XyXA.: &XsXfXfXsXsXdXpXuXiX7X4XQ.T._.oX.X.X|.{.{.(.(.(.(.(.(.(.Y.6.6.<.3 q f x g y h f jXjXjXjXjXjXjXjXjXjXjXjXjXjXjXjXjXjXjXjXjXjXjXjXjXjXjX",
"jX7XaXsXsXfXfXC., 0.7X0X5 % &XdXsXdXsXdXaXuXuXiX7X3XW.E.].oX.X X X{.{.(.{.(.U.(.(.(.R.x.6.3.2.4 5.w y y k g t jXjXjXjXjXjXjXjXjXjXjXjXjXjXjXjXjXjXjXjXjXjXjXjXjXjX",
"jX3XpXdXsXsXaX9X4.C.4X9XtX9XdXsXdXsXdXaXuXiXwXwX8XW.W.Z.`.oX+X X X{.{.{.(.(.(.U.(.(.U.M.6.4.3.3.7 z.4.f k d y jXjXjXjXjXjXjXjXjXjXjXjXjX! ! ~ ' ' ~ ! jXjXjXjXjXjX",
"jXA.wXpXpXuXpXpXwX[.Q.8XyXaXaXdXdXaXaXuXiXwXwXwX4X3XQ.B.`.+X X X X}.{.(.(.(.(.(.U.(.U.Y.6.3.3.3.8 z.8.9.w u y jXjXjXjXjXjXjXjXjXjXjX{ X. .$.=.*.*.*.o.X.} jXjXjXjX",
"jXe 7XuXuXwXuXiX[.'.[.4X7XiXuXuXuXuXuXiXwX0XwX7XW.3XB.Z.'.oX+X X X}.{.U.).(.U.U.U.U.U.U.6.3.3.3.2.5.v.8.,.w t t jXjXjXjXjXjX@ . [ X.$.&.1XhX2X-.&.$...X.} } jXjXjX",
"jX$ W.9XiXuXwX8X`.$XOX3X4X7XyXuXiXuXiXiXyXyX7XW.8X*X8 Z.oX X X X X{.(.{.(.(.U.U.U.U.U.U.x.3.3.3.<.2.S.v.8.:.* t jXjXjXjXjX# M o.o.1X1X1X-.&.%.+.#.*.*...{ Q jXjXjX",
"jXjXq W.8X0X0XT.+X#X#XQ.3X3X5X7X0XwX0X0X7X5X3X7X9X0.7.`.oX X X X|.R.c.(.(.R.U.U.I.I.U.~.c.3.4.<.<.<.n.S.n.;.: * jXjXjXjX* O.o.o.1XgX1X%.%.%.&.=.=.*.+.` ^ E jXjXjX",
"jXjXjXq A.4XQ.|.#X#X#XOXQ.3X3X3XW.3X3X3XW.5X5X8XB.5 E.+X+X X X X`.XXG.{.{.I.U.U.I.I.P.~.b.3.2.<.<.<.z.S.S.1.; ; 1 jXjX0 o.o.o.=.gX1X%.%.&.-.=.%.@.@._ ` ( R E jXjX",
"jXjXjXjXjXC.T.+X@X@X#X#X'.Q.W.W.3XW.3X9XuXyX4X0.2 Y.OXoXOX X X_.Y.|.{.(.U.{.U.U.I.I.P.~.J.2.2.<.8 4 9.S.S.4 1 - > jXjX} } } X.2X2X&.-.-.=.%.+.@.@._ _ ` ) R E jXjX",
"jXjXjXjXjXjX_.+X+X#X#X#X@XOXE.Q.Q.Q.W.5XA.8 $ 7.`.+X+X+X+X XZ., Z.|.{.R.U.U.U.U.I.P.P.P.J.2.<.<.<.<.5.S.n.3 7 - : ,.O.{ { ' +.1X-.-.&.%.+.+.@.@.@._ _ ` / E E jXjX",
"jXjXjXjXjXY.|.+X+X#X@X@X@X@X@XXX`.Z.B.6.B.Y.'.OX+X+X+X+XE.7 , < b.}.{.~.U.U.U.U.I.P.P.P.H.3.8 <.4 6 7.S.9.3 1.; > ,.e ' ~ ..-.-.&.#.+.+.+.+.@.| _ +.+. . .{ { jXjX",
"jXjXjXjXjXK. X+X+X+X@X+X@X+X@X@X$X$X@X#X$X@X@X@X+X.X`.h.> < < < Z.{.{.~.~.U.U.I.I.P.P.L.K.3.6 <.6 1 1.S.1.1 8.> > ,.j.[ } =.*.#.+.+.#.#.%.%.*.&.&.&.*.$. .! ! a jX",
"jXjXjXjXjXG. XoXoX+X+X@X#X@X#X@X$X$X$X$X$X$X+XOXE.h.> , :.:.k.,.M.{.{.U.U.U.I.I.P.P.L.L.H.3.4 4 4 1 1.n.3 1 k.> > >.>.e {  .#.#.*.*.=.=.&.&...#.+.@._ ` ) ! { M jX",
"jXjXjXjXjXY.|..XoXoX@X@X$XqXeXeXeXeX#XqXqX[.V.7 : , < :.N.j.k.:.Y.{.~.U.U.U.I.I.P.P.L.L.H.2.<.4 4 3 5.8.; > k.: , >.< 0 { *.=.=.=.*.%.+.| | ~ ' _ `  . .X.{ ! i jX",
"jXjXjXjX2 G._.|.|. X+X+X$XqXqX$X[.].c.7.7 3 j.1.< < :.k.,.k.z.:.E.).~.U.U.I.I.P.P.L.L.L.F.1.6 4 4 3 7.1.; 7 k.- , ,.: 0 [ ..#.+.| | _ @._ _ ) _ ..$... .( W R . jX",
"jXjXjXjX$ M.K.'.`.E.c.h.h.7.7.7.7 j.h.c.M.Y.Z.h.< >.:.5.5.q.e 3 {.(.U.U.U.I.I.P.P.L.L.L.F.<.6 3 ; ; :.3 1 ,.8.- ;.>.o 9 a ~ ) _ _ ~ ~ ' _ @.#.$.#. .` / W W Y . jX",
"jXjXjXjX+ c.G._.|. X|.'.'.].T.T.T.Z.Z.Y.Z.K.G.M.7 N.0.0.N J x 2 {.U.U.U.I.I.P.P.L.L.H.F.v.6 6 1 - ; > 1 > l.;.X >.< X 3 p E ~ ` ) ~ ~ ^ +.$...X.` / / ( Y Y U   jX",
"jXjXjXjXjX; G.G.(.}.|.|.|. X X X XXX`._.]._.T._.1.e.a.P H H l h._.R.U.U.I.P.L.L.H.F.F.F.z.4 4 3 - - ; 1 < ,.< - >.X : $ T Q Q Q ( ~ ! X.#. .R R ( / / Y Y Y p r jX",
"jXjXjXjXjX+ c.M.M.K.}.'.|.|.|.|.|.|.|. X|.|.|.|.c.V L P K H = R.I.P.P.L.L.L.H.H.H.F.F.F.5.7 7 7 1 ; > - :.,.- - , X O a E E E E ~ X... .` / ^ W / / W Y Y Y i jXjX",
"jXjXjXjXjXjX+ m.M.M.M.K.).}.}.|.|.|.}.}.}.}.}.}.`.q Z J n j 1.(.P.L.L.L.H.H.H.H.F.F.F.F.1.3 > , 1 ; - - >.>.- - X O   E R R E { { ! E ^ ( / / / ( Y Y R R R   jXjX",
"jXjXjXjXjXjX+ + c.M.G.M.G.G.K.R._._.{.}.}.}.).}.}.M.q f N 5 Y.P.P.L.L.H.H.H.F.F.F.F.F.F.7 > > : - o o , 8.:.- O + jXjXjXQ ~ ] <X[ E R R R E ~ ~ ~ ! ~ E E p # jXjX",
"jXjXjXjXjXjXjX+ + j.m.J.G.m.M.G.M.M.~._.).).).).).).T.h.5.K.P.P.L.L.H.L.H.H.H.F.F.S.v.z.: ; : - - - > l.^.,.O + jXjXjXjXjXjX} ,X%X,XO.! ! ! Q R Y Y U U s   jXjXjX",
"jXjXjXjXjXjXjXjXjX@ $ b.m.m.m.M.M.M.J.m.J.G.K.R.R.(.(.~.~.P.L.H.H.J.F.F.S.v.v.n.z.k.k.:.- : : - X : l.N.: + + jXjXjXjXjXjXjXjX! O.,X%X,X{ W Y Y Y Y Y s . jXjXjXjX",
"jXjXjXjXjXjXjXjXjXjX+ + 2 c.J.J.m.m.M.m.m.m.m.m.b.m.b.m.v.v.n.n.n.n.z.z.z.k.z.z.l.D.!.!.^.^.!.:.X O O @ jXjXjXjXjXjXjXjXjXjXjXjXjXjX[ ] <XR Y Y Y Y s . i jXjXjXjX",
"jXjXjXjXjXjXjXjXjXjXjXjX+ + ; 0.c.m.b.m.m.m.m.b.m.b.b.v.0.q.w 0.z.n.z.n.n.S.!.^././.^.D.N.:.o O + jXjXjXjXjXjXjXjXjXjXjXjXjXjXjXjXjXjXjXU Y Y Y U s a jXjXjXjXjXjX",
"jXjXjXjXjXjXjXjXjXjXjXjXjXjX= # * e 0.V.b.b.m.b.b.v.n.6.j j h d f 4.8.z.n.D.!.D.S.l.: - o O jXjXjXjXjXjXjXjXjXjXjXjXjXjXjXjXjXjXjXjXjXjXjXjXjXjXjXjXjXjXjXjXjXjXjX",
"jXjXjXjXjXjXjXjXjXjXjXjXjXS n n G C & & * w b.v.v.n.z.0.G F D x z y q ,.k.k.k.z.N.jXjXjXjXjXjXjXjXjXjXjXjXjXjXjXjXjXjXjXjXjXjXjXjXjXjXjXjXjXjXjXjXjXjXjXjXjXjXjXjX",
"jXjXjXjXjXjXjXjXjXjX@ F -X:X>XF S F G h d t jXjXjXjXjXjXu.d.r.r.G x k jXjXjXjXjXjXjXjXjXjXjXjXjXjXjXjXjXjXjXjXjXjXjXjXjXjXjXjXjXjXjXjXjXjXjXjXjXjXjXjXjXjXjXjXjXjX",
"jXjXjXjXjXjXjXjXjX@ J :X:Xt.p.a.r.S D B h d jXjXjXjXjXjXu.>XS D D D Z j jXjXjXjXjXjXjXjXjXjXjXjXjXjXjXjXjXjXjXjXjXjXjXjXjXjXjXjXjXjXjXjXjXjXjXjXjXjXjXjXjXjXjXjXjX",
"jXjXjXjXjXjXjXjXjX& P y.d.t.K J F F G B j g jXjXjXjXjXjXF u.b n n m Z Z jXjXjXjXjXjXjXjXjXjXjXjXjXjXjXjXjXjXjXjXjXjXjXjXjXjXjXjXjXjXjXjXjXjXjXjXjXjXjXjXjXjXjXjXjX",
"jXjXjXjXjXjXjXjXjX& K t.t.p.H n c c S B B jXjXjXjXjXjXjXF a.i.i.i.r.r.Z Z @ jXjXjXjXjXjXjXjXjXjXjXjXjXjXjXjXjXjXjXjXjXjXjXjXjXjXjXjXjXjXjXjXjXjXjXjXjXjXjXjXjXjXjX",
"jXjXjXjXjXjXjXjXjX@ k H b K F n c z h C N jXjXjXjXjXjXjXi.;Xi.t.r.D n h h # jXjXjXjXjXjXjXjXjXjXjXjXjXjXjXjXjXjXjXjXjXjXjXjXjXjXjXjXjXjXjXjXjXjXjXjXjXjXjXjXjXjXjX",
"jXjXjXjXjXjXjXjXjXjX# j b n D n z z k q.jXjXjXjXjXjXjXr.d.d.L L H n c h d # jXjXjXjXjXjXjXjXjXjXjXjXjXjXjXjXjXjXjXjXjXjXjXjXjXjXjXjXjXjXjXjXjXjXjXjXjXjXjXjXjXjXjX",
"jXjXjXjXjXjXjXjXjXjXjX* k x x Z h g C l jXjXjXjXjXjXjXA P p.d.d.t.D v z h # jXjXjXjXjXjXjXjXjXjXjXjXjXjXjXjXjXjXjXjXjXjXjXjXjXjXjXjXjXjXjXjXjXjXjXjXjXjXjXjXjXjXjX",
"jXjXjXjXjXjXjXjXjXjXjXjXjXh h h k y jXjXjXjXjXjXjXjXjXH K I I H L F D Z C @ jXjXjXjXjXjXjXjXjXjXjXjXjXjXjXjXjXjXjXjXjXjXjXjXjXjXjXjXjXjXjXjXjXjXjXjXjXjXjXjXjXjXjX",
"jXjXjXjXjXjXjXjXjXjXjXjXjXjXjXjXjXjXjXjXjXjXjXjXjXjXjXL L L L J A m Z N # jXjXjXjXjXjXjXjXjXjXjXjXjXjXjXjXjXjXjXjXjXjXjXjXjXjXjXjXjXjXjXjXjXjXjXjXjXjXjXjXjXjXjXjX",
"jXjXjXjXjXjXjXjXjXjXjXjXjXjXjXjXjXjXjXjXjXjXjXjXjXjXjXH A A S S r.&Xe.* + jXjXjXjXjXjXjXjXjXjXjXjXjXjXjXjXjXjXjXjXjXjXjXjXjXjXjXjXjXjXjXjXjXjXjXjXjXjXjXjXjXjXjXjX",
"jXjXjXjXjXjXjXjXjXjXjXjXjXjXjXjXjXjXjXjXjXjXjXjXjXjXjXjXjXA v v e.0 # jXjXjXjXjXjXjXjXjXjXjXjXjXjXjXjXjXjXjXjXjXjXjXjXjXjXjXjXjXjXjXjXjXjXjXjXjXjXjXjXjXjXjXjXjXjX"
};
