/* XPM */
static char *result[] = {
/* columns rows colors chars-per-pixel */
"70 70 247 2 ",
"   c #2B5415",
".  c #255A13",
"X  c #2C5C14",
"o  c #2B561C",
"O  c #2C5E19",
"+  c #335C1A",
"@  c #335D18",
"#  c #2F610F",
"$  c #2D6214",
"%  c #2E6B14",
"&  c #2C6319",
"*  c #2E6A1A",
"=  c #266816",
"-  c #326415",
";  c #396516",
":  c #346B15",
">  c #3A6D15",
",  c #34641A",
"<  c #39661C",
"1  c #346C1B",
"2  c #3A6C1B",
"3  c #2D741B",
"4  c #2E7518",
"5  c #347316",
"6  c #3C7315",
"7  c #357B16",
"8  c #3C7C15",
"9  c #35731B",
"0  c #3B731C",
"q  c #357B1B",
"w  c #3C7B1C",
"e  c #355C23",
"r  c #30562C",
"t  c #2E6324",
"y  c #356523",
"u  c #3A6520",
"i  c #356C22",
"p  c #3A6C22",
"a  c #3A6A2B",
"s  c #357322",
"d  c #3C7422",
"f  c #357C21",
"g  c #3D7B23",
"h  c #3D752A",
"j  c #3C7D2A",
"k  c #3A7B35",
"l  c #426E1D",
"z  c #406F17",
"x  c #437516",
"c  c #427B16",
"v  c #42741C",
"b  c #4A761B",
"n  c #437C1C",
"m  c #4A7D1D",
"M  c #487C14",
"N  c #53771C",
"B  c #446E2B",
"V  c #427423",
"C  c #4A7523",
"Z  c #437C22",
"A  c #4B7D24",
"S  c #44742B",
"D  c #4A7629",
"F  c #437C2B",
"G  c #4C7D2B",
"H  c #517E24",
"J  c #52792D",
"K  c #4B7D32",
"L  c #427734",
"P  c #507C34",
"I  c #3D8415",
"U  c #34811C",
"Y  c #3D831C",
"T  c #3C8B1C",
"R  c #3C8B17",
"E  c #3D931B",
"W  c #348222",
"Q  c #3D8323",
"!  c #3D8A23",
"~  c #3E882A",
"^  c #3D9022",
"/  c #438516",
"(  c #488716",
")  c #448B16",
"_  c #43841C",
"`  c #4A851C",
"'  c #448B1D",
"]  c #4B8B1D",
"[  c #488A16",
"{  c #538D1D",
"}  c #53881A",
"|  c #44921D",
" . c #4C931E",
".. c #4C9B1D",
"X. c #489918",
"o. c #53941D",
"O. c #529C1D",
"+. c #5B9B1E",
"@. c #509916",
"#. c #57A61E",
"$. c #67A21D",
"%. c #448323",
"&. c #4B8423",
"*. c #448B24",
"=. c #4C8B24",
"-. c #44842A",
";. c #4C842B",
":. c #458B2B",
">. c #4B8B2B",
",. c #528525",
"<. c #528C24",
"1. c #5B8C23",
"2. c #54852B",
"3. c #538C2C",
"4. c #5A8D2C",
"5. c #58852C",
"6. c #459224",
"7. c #4C9324",
"8. c #459A22",
"9. c #4C9B24",
"0. c #44922C",
"q. c #4C932B",
"w. c #4C9B2B",
"e. c #469C2F",
"r. c #539324",
"t. c #5B9425",
"y. c #539B24",
"u. c #5B9C24",
"i. c #53942C",
"p. c #5A942C",
"a. c #549B2B",
"s. c #5B9C2C",
"d. c #468432",
"f. c #4D8431",
"g. c #458A34",
"h. c #4D8B32",
"j. c #4B883A",
"k. c #528532",
"l. c #548D33",
"z. c #5B8D34",
"x. c #568B3A",
"c. c #469232",
"v. c #4D9432",
"b. c #4C9A32",
"n. c #499D38",
"m. c #549433",
"M. c #5B9432",
"N. c #559C33",
"B. c #5B9B33",
"V. c #559239",
"C. c #5B953A",
"Z. c #569B3A",
"A. c #5B9B3A",
"S. c #639C25",
"D. c #639D2C",
"F. c #689C2D",
"G. c #62942C",
"H. c #639634",
"J. c #629C33",
"K. c #649B3B",
"L. c #699D39",
"P. c #6A9937",
"I. c #709D31",
"U. c #628A33",
"Y. c #4DA22A",
"T. c #4CA223",
"R. c #53A223",
"E. c #5CA225",
"W. c #5BA925",
"Q. c #54A22C",
"!. c #5CA32C",
"~. c #54A92B",
"^. c #5CAA2D",
"/. c #53AA23",
"(. c #4EA536",
"). c #54A333",
"_. c #5DA334",
"`. c #5BAB34",
"'. c #53A63A",
"]. c #5CA33B",
"[. c #5CA93A",
"{. c #55AC36",
"}. c #5CB12E",
"|. c #63A325",
" X c #62AA26",
".X c #63A32C",
"XX c #63AB2D",
"oX c #6CAC2B",
"OX c #6AA62C",
"+X c #62B22E",
"@X c #68B62A",
"#X c #63A433",
"$X c #69A433",
"%X c #63AB33",
"&X c #6AAC34",
"*X c #64A43B",
"=X c #6BA43C",
"-X c #63AB3A",
";X c #6BAC3B",
":X c #71A53C",
">X c #73AB3C",
",X c #72A936",
"<X c #64B434",
"1X c #63B23A",
"2X c #6BB23C",
"3X c #6BB637",
"4X c #72B336",
"5X c #74B43B",
"6X c #74BB3A",
"7X c #76B836",
"8X c #72B328",
"9X c #559640",
"0X c #5B9B42",
"qX c #5A9342",
"wX c #548A41",
"eX c #629D41",
"rX c #639847",
"tX c #719E43",
"yX c #689951",
"uX c #5CA542",
"iX c #5CA942",
"pX c #56A946",
"aX c #63A342",
"sX c #6CA442",
"dX c #63AB42",
"fX c #6AAB42",
"gX c #63AD4A",
"hX c #6DAD49",
"jX c #72AF43",
"kX c #76A948",
"lX c #6BB444",
"zX c #68B844",
"xX c #73B343",
"cX c #7BB344",
"vX c #73B34B",
"bX c #76BA47",
"nX c #71AC51",
"mX c #6CB353",
"MX c #7CB454",
"NX c #74B752",
"BX c #7DC14A",
"VX c #86B957",
"CX c #82B14D",
"ZX c #85C34B",
"AX c #88C658",
"SX c #A2D25E",
"DX c #9AD477",
/* pixels */
"6.` ` =.A. .r._.u.*X;X7.w F a.r.%X<.w.i.1.n T ` c n 1 [ Y n 3.3.2 ; n %.:.=.s.r.i G h n B.H.>.l.x.g.l.-.=.r.D f %., _ m Z d &.2 + 0 , _ g 2 ",
"B.( s.M.4._.! J._.5X!.6.2 q.d >.w.-.` u.+.w $ _ 6 2 7 ;.=.n n 6 2 v =.q =.V r.r.: r.Z 1 a.B.1.aX*XyX0X>.p.<.<.5 6 & w <.&.l 0 A O - 0 ,.s.V ",
"<.3.] t.B.s.| E.<.w.N.m.:.0 s.^.4.H.4.y.A 7.] 5 q g g _ A ] d , v , + #Xm.C._.v.` w i.<.>.7.t.$XK.NX3.=.} w c ;.7 n %.&.,.2 _ d v - _ / 9 ,.",
"y.s.<.*.a.i.%...&.M.*Xs.#X<.a.q m.>.*.!.m.|.&.q _ Z a.' k.7.n Z 0 V i Z.lXM.i.j &.-.1.1.;.o.<.E.;XhX-.i.%.0 p x.w A Z _ ;.i 2 X n x 6 ; - [ ",
"s./ 7.3.7.i.V.%.i.i.m.;.;.Y =.Q =.>.` ) E.<.{ c =.6.7.>.M.A *.0 9 p G -XH.i.%.2.Z c.D.q.7.%.i.0.9.7.;.i.g %.g C.X Y &.Z d V 1 G ;.;.c S G n ",
"8.x.3.i.D.,.J.r.o.w i.=XZ.v.;.M.g ;.*.r.<XoX6.w *.i.<X-Xu.q.*.g d 2.i.^.Y.h.>.>.F %.7 I _ q _ =.m._ 2 p.p.i.n ,.d ;.0 S S u V.4.=Xi.*.3.4.,.",
"' =X_ *.>.*.Z g { 5 Z ].p..X-.<.&.` ,.p.bXu. .' _. X&XR.%Xl.l.l.x.A q.` .X3.;.` k.Y g %.r.9 v =.4.n &.p.1.` _ &.Z ' A <.2.k.z.M.` s.m.$Xp.6 ",
"q.-.l.Z *.r._ w p.a.D.=.-.B.J.A 7.s.o./ :.o.v Q 7.w.^.t.%XaXm.Z.l.&.f F ).;.>.=.m.s.%.2.s.w : Y :.| c %.>.Z ,.2 ;.d 9 d ,.,.0 v.l.` ` ;.V V ",
"B.a.S C.m.r.p.;.] y.9.9._ 6.p.<.i.p.r.1 M.R n -.g Q ^. .s.H.m.;Xi.%.' -.0.i.&.&.=._ &.m.Z 0 d n =./ d n &.F c ` : Z s d Z : ` Z &.m.3.<.r.%.",
"*.Q sXxXH.K.1.=.=.=.! 7.h t.5.m ,.=.*.+ l.w m.q.d *.^.w.i.M.%Xi.Z n *.' =.&.=._ T 2 _ w.0 9 *.=.*.u.V n 0 s V v : 2 1 0 2 9 ;.Z -.` 4.&.<.0 ",
"%.&.*X*XvX].a.;.q.a.:.4.>.w Z Y 6.%.m.r.*Xt.` 5 =.` <.d g i.&.*.=.g - *.=.%.7.s.%.p.;.* A Z n <.4 q.2.w w w ,.n : O 2 p 1 + >.%.A w &.1 A e ",
"] ] ` :._._.7._.b.Z w i.q.] 7.Z _ y.u.%X;XB.-.Q F ] 7.n B._ g 7.t.Q.;.s.<.V.=.m.t.6.%.r.%.V w s.6 ` =.p 5 3 n w < - w 2 0 v F : %.2 0 : A G ",
"U w ;.A A.4Xq.u.fXM.g C =.3.6 5 n >.C.r.Y.>.&.A q -.m.g N.*.p.*.*.*.a.g V N.q.-.=.C.p >.M.;.0 x s 7.l.0 & i i a w X h 9 s + * 2 n y * - ` > ",
"%.5 B.!.].>.a.r.;Xi.=.n 9.& q %.t.-Xs.s.%Xm.*Xw.!.7.d >.9X>.#XZ.-.>.R.u._ p.m.v.] i.g m.*X;.0 d T 5 1 2 0 $ d v w @ 5 w g B n 1 0 B X + v + ",
"y wX0.w.jXVXjX|.!.>.s.I E.0./ { 6.w.!.CXw _.J.!.%X;XVX3.J.p.D.J.m.W.^.7.< M.B.M.r.< n i.Z + F _ A : & Z.G 6 2 w V ; - $ 6 C 1 %.s C u b # < ",
"#Xu.~.E.jXDXcXiX2X] u.R m.i./ %.-.].mXgXxXa.%Xa._._.aXC.a.%.*X=Xl.T 6.%.0.y.:.;.V d r.;.d f.i.% V $ v 6 0 A 0 $ Z : , , 0 * 6 s 2 v + d 2 V ",
"u..XlX5XvXAX@Xs.)..X&X7.dXs./ T q.fXNXAX`.9.R.Q N.<X!.fX).s.B.].q.V Y ~ _.y.A G ;.d h.6.D f.%.1 w 1 F x w Z 6 $ n , 6 0 : 2 <.d > < < p < < ",
"%.,.-X3XvXxX3XvXu.^.|.,.b._ 4 w r.w.h.`.f.m.*.|.=.m.3.f.W.S.>.h.v.r.d.! _ :.s.y.v | p A V.l.6 w =.9 3.*.' n d . - & @ 0 d j y S F v 2 w Z   ",
">.i.&X<XB.ZX4X~.7.&Xu.&.6.m *.8 *.N.].lX0X`.9.7.;.J.Z.f.O.` >.a.n ] s.=._ i.4.2 &.*.2 <.n 9 - w n Y v 0 w V p i : . : 0 g f.l.C ,.u V 1 %.b ",
"^.u.0.-X1XnXmXuX_.Q.9.=. ._ 3 F n r.E.BX7.y.' =.V.i.Q.y._ V.n &.;.<.a n 5 w Z d d % v g %.d w 7.Z q : 0 6 5 &.Z 0 X 2 0 0 sXH.%.6 0 n 2 r.7.",
"q..X~.`.].vXvX_.y.r.7.%.A r.b.g I %.O.%X7. .i.*.7.7.q..X0.7.=.=.>.i.g p i s &.q.1.2 w 5 %.g 9 q.*.3 Z d w : w ` V - n 0 *.x.m.%.6 A ,.s ) -.",
" XQ.q.m.-X;XnX6X!.m.i.4.%.<.m.:._ w I ) Y I a.u.y.] 6.y.-.Q._ =.>.6.q.0 F p 0 =.-.%.' -.1 0 6 g 0 2 &.i 0 Z { t.9 n * V &.H.t.` l 0 < 1 ) - ",
"lXo.p.;XxX;XBXXXM.].#Xs.3.* ] 7 7.Y &._ !. .8 a.Q.%.%.' *.X.I ;.*._ G Z 9 p.&.%.l._.s 1 ;.;.;.:.C F :.>.M.j <.7.%.x : 9 %.>.v 9 v g %.0 9 d ",
"2Xa.%XB._.).m.6Xv.#X!.7.] | *.w Q :.7.a.A.R.= q.~.n I q { 7.q Q ` p V 8.%.M.C.B.b.K.*.m.3.;.,.-.F :.-.<.=.&._ Z 4.p 1 F d n %.L Z 0 w 1 1 Z ",
"].%.uXZ.7.*.9.y. X9.w ' ! s.h a.a.N..X=Xn q i.q...*.f %.! : 4 : Z 3 6 i.w._ a.i.F =X:.p.p.S S S G 2 _ V <.n / :.*.p : 1 0 g p z.Q 2.p n 0 , ",
"gX].pX%Xo.0  .#.a.9.] _ d B.j i.Y.w.Q.i.] *.=.t.w ~ 9.*.%.w E * *.%.-.w.Q.p.p.A.fX8.A.l.j j.K F g f.6 r.;.c 1 1 Q f.7 w d 9 o Z 5 r.Z 9 n 8 ",
"VXSXB..X|.: w 8.6.o._ Y J a.O.8.E.R.] q t Y.6 s._ g ` =.] 6 _ * d a c.t.*.r.&.=.5Xr.pX=XA.m.Z ;.g %.A.;.h.m.%.d u.-.f Q :.w h u < 3.d i h V ",
"gXJ.4.q.=.=.i.9._ _ ! q s 4.h.=.7.o.! !.|.r.#X;.] :. .] 7.#X' I I =.Z w.Q >.<.:.m.=.w.4.g.%.g A q =.>.9 6 w 0 ` n A 2 w w 6 f.i p Z Z _ %.%.",
"MXu.C.<.y.o.0.q.o.I q Q m.>.i.' 7._ a.K :.Y S &._ ` 7._ ~.W.I 7 Y w.Z 7.u.q.:.&.N.%.u.Z.;.%.d y * s :.6 0 p - l %.V _ -., [ &.Z 0 6 f.%.2 0 ",
"#XAXfXM.=._ ;.U.!.`.R.:.M..X%.6.T i.;Xu.!._.7.=.%.Q , T { 1Xi.w &.a.7.w.' q.=.*.a.m.h.iX-.a.Z B w 2 &.n 9 g K 0 0 n 9 w g d 0 , 9 9 :.gXB H ",
"1XlX5XB.D.q.7.sX<XR.q.s.N.s.6.-.>.0.[.t.c.a.6.' _ w !.s.E `.*Xm.s.[ *.Q.w g Z >.R.a.i.s.i.>.;.r %.o.=.%.g A l.a p g : d w , q g o.>.4.sX_ n ",
"_.aXA.#X=X&X#XR.| 6.^.<XQ.T q.o.{ a.!.Q.~.|.7.r.6.Q O.o._ 9.r.w.| <.w &.! g :.q.q.N.!.I d N.B.k >.Y w >.L ;.p.%.s.Z 3 - : 5 n 7 1.] <.J.C M ",
"(.MX_.s.<.B.;Xw.w.<.i.a.s.-.9. .=.p.oXQ.%X.X4X4.a.7.| ] s.q.] | _ *.*.>.l.6 *.*.q.-..X2 p.*XfXd.g g e Q i F ;.y _ w * 1 O c % Q ] <.>.>.C < ",
"(.fXdX{.(.>.r.y.].>.,.=.i.%X_ 6._ y.~.e.xX3X6XeX^.%.E *.M.6XY f Y t.) q :.-.u. ._ a.$X>.r.B.F ;.R.' ;.%.Y 6 B.h >.2 Z V C n X _ ' B.f.C.V 6 ",
"mX*X`.=.F q.N.8.v...' m.Y.;.Y.! w.9.Y.`.<XN.7X%X[.u.| *.Q.zXb.T =.I n 4._ w &.r.l.Y.m.u.%.G :.<.m.i..X%.r.n p =.*.n F G.q.Z Z n Y h r.!.S > ",
"9Xw.vXm.N.q.=.:.2.r.a.y.^ <.y.Z q.7.6.q.}.N.N._.!.o.r.8.<X).*.[ ' I V.=.: ' &.<.9.U g b.g g :.%.l.>Xs.A >.<.5.%.C =.H.4.0 2 n 6 4.a &.p.v : ",
":.#XbX#X#XJ._.a.7.=. .p.r.E.a.A.0.6.#...<X2X@X}.7.) q 7.q.XXa.s.7.2 0.4.r.;.i.&.<.Q :.f.1.Z F B.*.A.B.i f.F > ( &.3.F &.&.Z : w 2 _ n v 6 <.",
"F 6.m.J.B.-XT .._.| a.r.s.v.%.j.].Q.o.Y.BX3X}.7XW.^ W ).0.p.a.B.:.:.B.Q 0 &.&.` *.5 v.W 7.w x Q.A.F < g M.V.] > K _ g ;.;.} 1 + r.,.Z V 0 A ",
":.b.N.fX#X.X/ 6.*X9.7.' w.9._ K J.XXQ.;XAX1X4X@X7.Y.~ ).]..X$X-Xe.' m.Q A a.=.' >.s ].w i 9 _ *.h.w 2 a.s.3.{ 0 0 ] 3.;.N.P.h + [ 3.G ` 3._ ",
";XzX>.$X~.s.l.*X]._.q.w t./ ` F V.]..XE.%X[.s.E.U Q y.Q.4X6.i.`.:.:.! &Xw.i.dXB.%.Q =.O %.%.0 7.%.A 4.G.w 2 *.v <.3.s.m.&.qXj.>.:.V p 0 %.k.",
"nXa.c.hXs.^.g 4.#X^.T ' 6.w ^.9XdXN.' *X7X7.8.s.=.;.w.0.-.<X1X^.o.%.Y OX=.^.*XB.p.f ! i.g A p._.p.sXD.<.g F d C ;.=X=.%.F P *XZ ! p e V ;.kX",
"(.y.@.Z.gXT.>.Q.%X`.| Y.y.Q.*.6.6.*.*.+XXX*.2XQ._.y.W ..!.].u.XX^.,XB.6.J.sXqXK B.i.:.:._ d V u.>.Z 9.*X-.=.d %.{ b %.r.%.K.hXv ;.e p p X c ",
"w.y.v.A.a.u.w _ a.Q.r...8 f #X7.' :.=.%.`.).] u.<.r.w.9.3X^.a.*Xa.M.A.V.x.*X[.!.6.=.*.,.s.1.;.&.:.:.4X>.w ' u.N.1.i &.>.w.eX=X;.2.-.;.d _ Q ",
"pXs.g j 0.0.:.w.8X8.Y.R.W.g >.$.:.*.&.|.} Q I % n ] #.y.V -.y.7.#XZXp.qXpXN.a.q.1.0 g eXK.G <.2 9 G.a.1X%.&.*Xs A :.g T <.v.-.U.).d w 7.a.vX",
"`.<XXX;Xw.' w.=.q.~.t.D.*X,X_.w _ %.s.s.oX*.4 n 9 ] _ R. XT.6._.-X7.a.9 :.D.:.=.#X3.9 t.l.G t.Y =.*.=.>XB.m.K.0 ~ m Z Z 4.9 >.>.a.n v %.=.#X",
"}.`.u.a.a.r.Y V.` ' r.D.^.5X4X<X7.6.=._ E x 6 _ w _ Q.XXY.>.oXJ.:.~ ] 7.c.3.N.i.=.=.] t.2.>.,.R.s.Z V 3.<.;.l.1 q s ,.v t.6 uX&.=.Z =.,.n B ",
"7.q.s.R.Q.m.Q.K.a.q.*X;XoX0.!.f s.y.] ) 7.' w.` I -.^..XU 6.s.2XQ.y.] 3.*.i.K.s.eX7.cXJ.I n v m w 0 [ 7.A.q =.- b y V =.=.B sXi.1 n V V 9 4.",
"t.XX+.O.&XB.*XV ) Q %X^.$Xw.-Xv.s.<.` 8 *.| w.s._.v./.i.Q.W.O.Q.p.%XI q.Q <.m.g 3.|.=X;._ !.2.$X7.e 6 g l.d.r.Z 3.2 Z ;.V j.MXA.9 Z 2 : G B ",
"E T *.Q 3.A oX#.y.3.#X9.~.).bXN.l.g 6.] n g ).s.<X1XXX;XT ` ` ] ,.<.7.&.*.h.>._ 8.s %Xg =.a.=.bX0 Z 7 Q V %.F ;.4.V Z 2.;.=X<.H.n - - 6 0 & ",
"9.U v.| *.r.;XK.p.a.^.-X].<XlX`.6X~.^.-.%. ./.[.3X<Xo.=.q r.Y ' s.p.L q.A V V n &.1 i.q ;.].#XK.V >.q c n &.0 S d v Z m %.G ;.g 0 v } : - 9 ",
").9.i.i.0.7.&Xm.=.:.=.2X-X+XzXB.2X9.|.*.N.o...=.q.|.r.=.] 7.7.6.a. XG r.m r._ *.d & Z *.p._.&XM.0 w s _ c ;.v ` -.5 _ c d s Z Z $ > V < X 5 ",
"T @.R s -.6.$X<.e.T _ :.w.7.u.Q.&.! q.9.6.t.7 w 6.&.] 5 =.7 n $ j S.*.8._ 2 0 i * O y p M.J.-Xi._ ` G >.t.>.6 _ w n G A C 1 ,.g 9 w - < @ j ",
": i.q : %.6.s.y.Q.t.7.Z _ ` *.w ] g *.6.^.Z Q._ Q 7.Q :.q n ' q.9. Xn >.0 V 0 w - Y V *.A.B.a.r.=.4.:Xk.i.:.2 v _ G.V n ` 2 J.,.' Z - < v 6 ",
"Y &.Z 5 ;.s.sXs.bXZ Y Y &.s.oX. ` I y.r.|.` 5 V i.=.&.6.w R.3.i.r.p.=.p.l.V Z n Y _ %.;.<.] a.uX$X,.r.` c n v w., v Z p Z -.V ;.<.C d 1 Y # ",
"X.Z  .<.;.K.vX;XF._ w 7 Z ] <.- ` w 7.g y :.Y _ %.*.: r.Y 7.r.;X!.$XfXs.N.3.Z _ m $ > >.&.t.s.3.h.h V F _ V 1 % p l.%.G g n * %.0 O + > $ % ",
"5 Y . 5 T d h N.4.X / T ! _ 9 ] ;.J.H.XX..+.M 4 q ' ' o.:./ s.6X-XhXVXi.t.M.,.*.: M @ u.b ,.<.A.=.&.s.eXH H d w ; ,.A Q 6 ` < @.G v 6 - 6 n ",
"E ` w v <.6.;._ sXn n v 6.=.F :.>.n.v.J.!. .R ) f ~ *.-.' :.*X5XB.*XVX*X*.A r.i._ 1 5.n w 6 c ! s.p.S.;.v :.1 } 4.w Y %.v / : &.+ : c r.b 0 ",
") 8 w 1 w t.i.z.B.7.c t.)._ <.8 <.q._.9.T O.%.E.:.T q Q 9._.q..X#X;XNX*X=.,.;.<.0 0 h : %..X%.l.S.<.t.9 _ l.n - D c % 3 w C : v 2 X } G l ; ",
"T ' %.=.*.;.k.wX$XoXs.y.<.s.=.( ] N.fX) q P.T -.2.B...i ) 7.r.F.s.y.CXY D p.;.=.d 0 r 2 5 =.q.>.v 6.;.n c v X > p . - 2 2._ H : 6 : 2 p 0 6 ",
"E.>.&.,.Z <.P q.>X!.N.a.S.9.w ] Q.a.q.x q.P.=.m.L.z.s.] I W.;.o.o.=.L.i.6 =.] *._ 2 9 $ 1 V ;.w 6 i.V 3.A 6 6 n ; = w : n v _ M n v < M _ g ",
"MXz.p.*.j.v.;.g.!.).uXhX).m.>.,.i.[ |.0 %.l.R.>.:X,X&.] 4.i.A 0 2 0 D 0 d &.=.&.i.V ` + : $ 5 & 1 / w w 6 X , n x > Z ` V &.5 : b , 2 p @ X ",
"aX;X_.N.uXA.$X! *.V.dXfXzXP.t.:.:.r.B.w w j B.q.i.F.4.=.H.q.g d w > %.u 0 %., 8 a q 9 u ; , : 2 <.x w Z : - : 2 b : : 5 Z <.: x n 0 w , v X ",
"*Xg.*Xq.#Xg.=X7 r.M.aX;X$X0.D.=.V.5.l.1 t.g J.,.Z F t.,.) Y w n 1.i   p < 2 n q.d  .i 2   0 < 5 < n 0 < 6 n 2 2 =.H 9 6 C w 0 : , 1 e , 1 @ ",
"s.! i.%.;.' ` T *X0.dX2X>.*.4.B.5Xs.y.m B.2 Z ` >.=.&.w 8 g I / g w ` 0 *.w - ` Y w W : O X o n : Z z 8 ( ` ; V < p <.=.I.&.8 = p w q - @ 6 ",
"K ;.%.q.A.' 6.T *.'.aX*Xa.E.K.c.K.*Xm.3._ ] - &.>.r.S &.n - _ Z %.0 <.Q & a.8 # ; ] Z c < 5 7 v +.1.q } t.] m 0 X 2 k.&.,.{ _ X p _ Z ; x 6 ",
"F A ;.-.;.B.N._.B.L.<.z.J.V a.m.2.;.m _ S 7 I 4.v.C.d Y w 0 & w 1 p.7.<.g 1 ; 6 5 n D , 2 7 0 ;.Z 2 n Z <.] <.Z 2 ! C &.m 0 8 ; S.Z >.,.x - ",
"d x ,.*.g A.#X#X].=.i.>.w -.jX=X<.;.' > -./ : a.B.i.%._._ i 2 r.7 q ;.c $ X < 5 1 d I } : n ;.<.*.O v %.&.0 g -.H.M.&.w , : - A ,.;.Z V 0 x ",
"2 ' &.!.w.M.#Xq.!.=.=.r./ 7.p.L.A &.6.p.r.6.o _.>.i.1.x.6., 2 r.' : 8 O 2 > m 0 < F [ [ ( =.4...*.6 ` 1.&.2 2 :.&.z.` <.;.7 0 1 0 d : 6 g w ",
"F B.w.V.*X!.MXs.a.3.7.U _ 0 n ;.*.I h =.-.Y c.l.dXZ.0 : =.7 x c X @ c : <.=.&.: 6 [ N %.,.<.$X1.6 D.t.2 @ b > s f.tX%.V ,.m.&.5 2 0 n n $ d ",
"k.B.].C.B.7._.#XJ.1.%.9 >.I n 7.-.m.g n ;.|.).=.a.m.w w _ : 2 0 - 0 _ ,.H _ _ % Y 5 l p.-.=.G.z.` &.V @ - n b n x.cX;.v 1 J V ;.Z A v 5 6 ; "
};
