/* XPM */
static char *result[] = {
/* columns rows colors chars-per-pixel */
"65 65 256 2 ",
"   c #0B0B0C",
".  c #050A0B",
"X  c #0C130D",
"o  c #171A0E",
"O  c #0B0D13",
"+  c #0B1313",
"@  c #0B1A1C",
"#  c #0B1719",
"$  c #131414",
"%  c #141C14",
"&  c #14151B",
"*  c #1A141B",
"=  c #141B1B",
"-  c #1B1B1D",
";  c #1A1615",
":  c #140D11",
">  c #231B1D",
",  c #241819",
"<  c #211B0F",
"1  c #0E221B",
"2  c #14231D",
"3  c #1B241B",
"4  c #182819",
"5  c #1C371E",
"6  c #18200F",
"7  c #25271B",
"8  c #27371C",
"9  c #36311D",
"0  c #0B1C22",
"q  c #091829",
"w  c #1C1B23",
"e  c #161B27",
"r  c #0A1C33",
"t  c #141E32",
"y  c #231D23",
"u  c #291C26",
"i  c #301E2B",
"p  c #0D2529",
"a  c #142323",
"s  c #1B2423",
"d  c #152A24",
"f  c #1C2B24",
"g  c #12242B",
"h  c #142C2B",
"j  c #1C2C2B",
"k  c #1A252A",
"l  c #1C332B",
"z  c #1A3628",
"x  c #0A2638",
"c  c #172935",
"v  c #0D3238",
"b  c #1B3533",
"n  c #1C3A33",
"m  c #173738",
"M  c #242324",
"N  c #2B2324",
"B  c #222C25",
"V  c #24242B",
"C  c #2B242C",
"Z  c #222C2A",
"A  c #2A2C29",
"S  c #33252D",
"D  c #372927",
"F  c #233326",
"G  c #24342C",
"H  c #233B2C",
"J  c #2B3B2C",
"K  c #2A3827",
"L  c #363829",
"P  c #232D33",
"I  c #292935",
"U  c #342B32",
"Y  c #362B36",
"T  c #233333",
"R  c #243B33",
"E  c #24333A",
"W  c #2A343B",
"Q  c #2B3C3C",
"!  c #293936",
"~  c #343B34",
"^  c #363938",
"/  c #462B2B",
"(  c #48342C",
")  c #5A3A2D",
"_  c #4A3736",
"`  c #553B35",
"'  c #472931",
"]  c #64322D",
"[  c #36481D",
"{  c #1A472A",
"}  c #1C4439",
"|  c #1A532A",
" . c #27452A",
".. c #38472A",
"X. c #375528",
"o. c #264738",
"O. c #334432",
"+. c #394838",
"@. c #2A5838",
"#. c #395838",
"$. c #27542B",
"%. c #39642C",
"&. c #38673A",
"*. c #377737",
"=. c #296D35",
"-. c #1C632B",
";. c #45482A",
":. c #48562B",
">. c #464837",
",. c #584637",
"<. c #485739",
"1. c #565738",
"2. c #584E2C",
"3. c #654A38",
"4. c #665939",
"5. c #75543B",
"6. c #784834",
"7. c #476539",
"8. c #58673A",
"9. c #557738",
"0. c #4C7130",
"q. c #676738",
"w. c #766739",
"e. c #68763A",
"r. c #76793A",
"t. c #69712C",
"y. c #0A3848",
"u. c #163944",
"i. c #0D2D47",
"p. c #2B3C43",
"a. c #283644",
"s. c #323946",
"d. c #2D2B43",
"f. c #533645",
"g. c #6C374C",
"h. c #174648",
"j. c #184E51",
"k. c #274746",
"l. c #364946",
"z. c #295646",
"x. c #385947",
"c. c #2A5754",
"v. c #365556",
"b. c #2F4752",
"n. c #396747",
"m. c #376F50",
"M. c #3B7460",
"N. c #35596A",
"B. c #474745",
"V. c #564944",
"C. c #475745",
"Z. c #595A46",
"A. c #485756",
"S. c #545356",
"D. c #695744",
"F. c #745647",
"G. c #755654",
"H. c #6A5653",
"J. c #476645",
"K. c #566947",
"L. c #477548",
"P. c #587849",
"I. c #576756",
"U. c #467656",
"Y. c #4F7155",
"T. c #676644",
"R. c #776747",
"E. c #687A46",
"W. c #666958",
"Q. c #667658",
"!. c #787150",
"~. c #5A5861",
"^. c #4F7264",
"/. c #677966",
"(. c #74756F",
"). c #635B68",
"_. c #895336",
"`. c #9A743D",
"'. c #847845",
"]. c #8B7155",
"[. c #8C7768",
"{. c #B0754F",
"}. c #359237",
"|. c #37A13E",
" X c #599837",
".X c #4F8D33",
"XX c #67883A",
"oX c #718F38",
"OX c #56A938",
"+X c #56AE37",
"@X c #6EAF3A",
"#X c #6CC73D",
"$X c #338749",
"%X c #3BA24C",
"&X c #598845",
"*X c #4E8E51",
"=X c #698848",
"-X c #769A47",
";X c #698555",
":X c #7C9757",
">X c #708D4A",
",X c #53AC50",
"<X c #70AE4E",
"1X c #778767",
"2X c #6F8B6D",
"3X c #7EAC69",
"4X c #52A067",
"5X c #55C747",
"6X c #75CD4B",
"7X c #71D166",
"8X c #89913A",
"9X c #87AF3C",
"0X c #BFB33E",
"qX c #99D73E",
"wX c #97984A",
"eX c #859857",
"rX c #8C8850",
"tX c #B09452",
"yX c #89A855",
"uX c #8DB24F",
"iX c #B2AF55",
"pX c #908E70",
"aX c #AC906A",
"sX c #8EB16B",
"dX c #B1AB6F",
"fX c #C7B550",
"gX c #C6A16B",
"hX c #88C645",
"jX c #8AD548",
"kX c #97D956",
"lX c #91D051",
"zX c #A9D056",
"xX c #95E451",
"cX c #94D069",
"vX c #ADD072",
"bX c #ABE453",
"nX c #D6CA6C",
"mX c #DACF6E",
"MX c #79A488",
"NX c #95AE84",
"BX c #B2AB83",
"VX c #A4A795",
"CX c #C5B98C",
"ZX c #B4CA8A",
"AX c #B8CFAF",
"SX c #D3D38E",
"DX c #E7D799",
"FX c #E6D08E",
"GX c #CFD5AB",
"HX c #E5DAA4",
"JX c #E3D9B3",
"KX c #E0E3AB",
"LX c #E7E8CC",
"PX c #D7EAE9",
"IX c #CBE3E6",
"UX c #D4E3DD",
/* pixels */
"o.J T J G K L O.#.n.U.J.K.T.1.>.>.<.+.>.>.<.<.8.<.<.Q.pXaXiXnXnXnXgXwX=Xe.1.:.:...L K K +.$. .F F Z w M M M B s s k h a 2 a g a a ",
"*.o.G G G K L O.#.x.*XQ.K.Z.Z.W.Z.>.J.8.,.>.2.8.=XeXVXAXAXHXDXmXFXnXnXdX>Xq.1.:.;...O.J O.K O. .G F B V B B s B s V s @ = @ a d d ",
"=.#.J ~ J J O.+.#.x.P.*XI.Z.I.W.Z.Z.Z.E.4.q.T.!.sXAXIXIXUXDXDXDXJXHXdXiXwX>Xe.8.q.+.O.O.O.K O.#.@.J F F G A F T T Z k = = 2 d d a ",
"#.*.&.O.O.+.<.<.J.C.L.*XW.W.W./.Q.D.Q.eXrX].yXsXAXPXIXIXLXDXDXJXJXJXFXiXwXrX!.tX'.<.<...O.O.O. .K L K G J F G Z T G V w = a a a a ",
"&.*.&.#.O.#.<.<.C.J.*X;XG.~./.pX1XW.!.eXaXpXcXZXIXPXPXPXLXKXFXHXDXFXmXtXtXtXtXtXrX!.<.+.O.+.+.<.^ L J J J F H G F f j 3 3 2 a a 2 ",
"L.L.*X9.<.>.8.C.C.^.^.[.G./.NXNX1X!.(.eXaXaXNXAXPXPXPXPXLXDXmXFXFXFXfX0XtXiXgXaXtXE.8.T.Z.V.1.F.,.! F F Z Z G H F B B B s a a a a ",
"!.E.=XK.<.>.>.C.I./.Q.[.G.W.2XNX(.[.1XeXaXpXZXGXPXPXPXLXDXFXmXmXnXgXfXtXtXiXgXdXdX1XE.E.T.B.,.F.f.I F B j j G O.G 7 7 3 3 a d a a ",
"e.&XP.7.Z._ _ B.^.2X(.[.G./.pXpXaXSXdXSXdXaXZXKXUXPXLXmXmXmXmXmXfXfXfXtXgXdXvXvXsXsXsXeXT.D.D.F.,.^ A F G G J O.;.( D M - w s a e ",
"J.K.T.Z.R.` _ C.2X;XpX[.G.(.].dXKXDXKXKXBXdXKXKXKXDXzXbXqXhX0XzXfX0XfXtXiXcXsXsXcXsXpXpXpX!.G.F.f.L F G Z l G G ,._ D D > > - a a ",
"J.C.P.T.H.f.Y B.Y./.eX[.G.].[.SXDXKXDXSXZXZXZXSXmXnXqXxXqX@X X@X9XfXfXiXsXsXcXsXsXsXNXaXaX{.].F._ ~ F A j Z f l ,.,.` D 7 y & - a ",
"n.<.Y.Q.F.` d.B.I./.1X[.G.[.CXJXKXSXSXcXcXcXcXxXxXqXjXjXhX#X5X6X5X7XuX7XcX7X3XsXsXdXBXaX{.aX].H.f.+.+...H H G B D.5.( D N > & # # ",
"x.&.P.Q.!._ a.C./.2XpX].!.[.DXHXKXZXbXcXxXxXxXxXxX6X@X0.<X|.|.+X5X5X,X*X4X4X4X2XyXdXBXgXgXgXaXH.B.C.#.#.J  . .F D.F.` D N * $ = % ",
"L J.P.!.F.` a.I.VXVXVX].].VXGXSXmXbXbXxXqX@X@X<X<X,X.X7.%.-.{ { -.}.$X{ z.*XM.4X*X*X3XaXgXdXaXH.B.C.J...;.K F F D.F.,.D D * & = 0 ",
"L <.&X;XG.( s.S.(.GXGX].G.SXSXbXxXxXxXxX#X X X@X X<XoX<X,X=.{ d =.OX,X@.o.c.*XM.M.U.M.*X3XdXdXG.f.+.+.>.#...F B 3.5.( U D - - & a ",
"L D J.;XF./ d.pXJXAXSX[.Q.vXkXxXjX#X#X@X@X.XX.@X9XxXxX6X,X,X=.5 7X7X7X4Xm.M.z.o.b.h.h.c.v.:XsXG.,.^ L.K.#...K f 3.F.( D C - - @ a ",
"` D ~ T.D./ E VXLXAXZXrX-X6XjX6X+X0.OX.XX.:.[ X.@XhXjX,Xm.$X*.,X7X,X$XU.M.z.v k.h.h.j.z.c.c.*XW.V.+.&XK.7.O...F 4.5.( D M - - e a ",
"5.` D ( ( ` W VXGXHXdXyX7X<X@XjX.XF $.@.$. .8 .X@XOX Xn.@.z.#.&.H x.m.n.m.} v M.$X$Xv } c.c.h.h.+.<.*XK.#.#.+.#.D.D._ D y e a a j ",
"e.5.) 9 / ( I pXSXGXvXkX9XoX0..X$.@.h.z.} H 6 0..X%.@.h.j.@.8 4 H U.m.{ #.7.m.*XM.j.v v } j.j.j.h.o.n.J.J.<.<.7.Z.3.( D - e g a l ",
"e.r.,./ / ' a.aXgXvXkXlXlXbXhX.Xh } h.o.5 6 8 X.%.X. .} } 4 4 4 z c.k.n.*.,X<X,Xm.j.y.} } h.h.j.k.h.o.J.#.7.<.7.1.,.( D - g q h G ",
"e.rX,.( / D d.aXfXcXlXbX9XoXoX0.*X@.d 1 9.[ 9 7 o 4 % %  .4 4 5 n.z.k.m.@.o.@.n.j.j.j.y.v h.h.j.j.y.h.&.9.7.<.C.D.` ( D w g g j R ",
"w.8X2.3.( / Q pXzXcXkXlXoX:.%.<X<X.X%.X. X0.X.4 ; o $ $ % z  .-.{ { | n.@.d z } h.y.h.v d v v h.j.j.u.b.J.J.L.n.T.` ` D e x e j R ",
"w.'.8.r.` / ^ yXkXuXuXoX9XlXxXjXhXqX#X.X.X}.@.| + $ s c n .X.X,X|.=.{ 2 z h d d v y.v v h { } h.j.j.y.j.k.z.n.<.D.3.` L a g a f G ",
"8.q.4.'.) 9 8..X.Xt.oX9XlXxXqXxXjX@X@X@X.X-.y.v d 6 d p &.,X,X5X%X$XM.} d p g Z V v p z @.=.@.j.y.y.y.y.i.v z.n.K.F.) D s g g Z l ",
"t._.2.4.;.:.+X+X.X@XhXbXbXqX9XhXjXoXXX0.=.n.{ 1 5 o s 1 %.+X5X+X|.|.$Xm.n l j # 4 $.{ } j.j.j.h.y.j.j.p.m h.h.n.<.3.,.D N a g j H ",
"q.w.;.2.2.XX+X+X.X#XlXzXcXyXXX-XzXuX<.#.-.$.1 6  .X 6 4 [ *.OX}.-.-.| z.o.z  .5 4 1 4 v h.h.z.} m v k.o.n } v z.C.,.` / N k h b H ",
"1.;...:.1.@X5XOXOXhXvXvXzXlX:XP.-X9.J +.z 4 X 5 X.F 4  . .%.*.| | -.z.-.{ @.$.{ z % d m h.m } z 4 n m v v h.j.} n.L ( / D 3 g h R ",
"1.;...1.2. X,X&X XXXcXcXoXt.;.9 D N 2 # 1 6 6  .#.X.6 7 4 5 5 1 1 p p 1 @ d f z { p v h 1 4 $.@.$. .2 @ p v x u.x.A D D D > e c R ",
"1.....,.( X.*X%.<XuX0.#...< < 6 < / 6 6 6 4 4 H  .1 X X # @ @ z | p v d w s 2 2 v v p p 1 z m.m.} o.1 # p d h j.x.M N N D > e j T ",
"8.;.;.4.,.9 [ X. X=XX.D F [ [ 9 0.r.oX-X&X9. .5 % X # e q #  .*.}.@.n j * : = a h c v h p } } m v } 4 1 @ 1 h h.x.M u 7 7 , e k l ",
"8.;.+.D.) ( ;.;. ...8 K 8 =X<XuXzXuXoX9Xe.&X%.{ A C w # 0 z *X,X*X*X&. .H $.*Xn.@.1 h b m @ @ p v h 4 % 1 a } } n.N N y C w e e l ",
"8.>.;.4.2.) ( ^ I.C.0.9.7.<XuXe.8Xr.t.t.t.0. .5 4 K #.z - $.*X&.m.&.@.o.z.L.*X*Xn.v x p @ p h v h a d h 1 2 n o.x.A N > M e q e j ",
"8.;.>.4.3.) 9 U I.3XuX<X&XOX.X:.t.t.t.9 9 [ 8 8 %.@X<X&X&X .l a % 1 4 {  .&.n.z.z.} p q O 0 q 0 2 2 # % % d o.n.n.A > y w e q q l ",
"8.;.>.q.5.) D d.E.yXeXeX=X@.X.9.[ o ; < 7 8 9 #.lXuXoX=X9.&.z 1 X X X 6 5 &.@.z.z.k.h.u.e p q j $ > L D &.n.x.L.n.A > > > e q q j ",
"<.;.<.T.5.) / u.E.:X:XeXrXw.7.L ;.( ( < 8 o % 9.uX9XoXXX9.X.z = X . : . 3 d b o.o.u.u.u.v x c } k.k.V.V.J.U.U.U.n.A > > M e i.t j ",
"K.:.<.T.5.) ' b.Q.:XeX1XaXF.4.1.>.4.:.9 [ 9 7 :. X9...8 F f 0 + . . ; : O & - s w = c h v i.c n h b.V.V.J.U.U.^.U.A > > u q r r g ",
"J.<.<.T.5.) Y d.I.;X;X=X].>X<XuX+XOX&XK $.X.[ 7...7 %     + e O + : * O e e & w g b n a + 0 q h n h _ f.n.L.J.n.U.~ N u u e q t 0 ",
"K.7.J.R._.) ' s.I.2X=X=X<X6XuXhX@X.X*.%. .5 % 4 % X . . :   * u : * & & w e b g g n h h p # q q k.m E Q l.n.Y.L.L.^ C u w e r q a ",
"7.J.L.R.'.) ' s.~.;X&X%.<X<X X=XL.n. .|  .6 . X   X ; , * : : i C O e y e a h j h 0 p u.u.v x p h.a.u.u.x R m.U.U.+.C V e t r q e ",
"K.9.P.R.'.) ' d.A./.&.0.,X<X&X .H l m h.o.% $ > * , > D S : u S e * C & & $ % # 0 # 0 g x v v x E j.j.u.g n U.U.U.O.i y t t r q g ",
"P.P.=X'.w.3.' b.N.;XI.0.X.8 O.l c 0 v n l - D U ' _ u u ` , ' u S U e & : - w e c g h c m u.c.^.^.^.^.A.A.U.U.k.U.^ i u w t r q p ",
"=X=X>XrXw.,./ d.v.(.W.Q.;.% s b b h h d f _ V.).[.).f.i ' ' i D ( I e - w y t g c m T c c m o.;X2X(.).~.v.^.n.x.A.~ C I e t t q p ",
"yX-X-X8Xr.q.' d.s.I.I.I.Z.1.7 a j d 3 4 <.S.' W.pX[.g.f.f.' / ] D u y y u y M 3 z I./.c.v.I.I.1X(.(.).).A.^.A.k.A.! C C t c r r q ",
"sXsXeXwXr.q./ d.s.C.Z.K.V.V._ ~ +.^ l.x.S.V.s.~.[.pX].].] ' ] f.i I i & u s 4 4 s.NXpXpXMX2X1XY.).).S.).A.v.k.} x.Y S S e c r q q ",
"uXyXeXwXr.4.] d.a.f.K.K.V.3.>.d.x.x.x.l.C.>.^ l.^.(.[.{._.] ] _ i Y y * U C.J.I.(.2XpX1X/./.Z.C.V.S.f.~.A.v.o.k.k.^ S C V c x r # ",
"-X:XyXwXoX4.) W a.s.C.C.>.1.>.W +.k.p.p.! ~ U W l.A.1X{.6.6._.' u / y * Y l.Y./././.W.W.^.~.B.+.B.l.B.A.v.v.k.x.W Y i Y t t x t # ",
"yX-XyXyX>X4.' I d.Y _ ~ >.1.,.W Q ! n Q T ~ ! T E C.(.tX6.6.]./ u , y * Y O.C.I.I.I.S.I.C.l.+.~ W ^ s.b.v.v.c.o.W Y i Y t c i.r # ",
"sX:XyXyXXXq.( d.d.Y ~ L ^ K.>.W b Q Q j G T P P ! +.5.{.6.`.6.) N , > w C G O.C.S.A.C.C.O.~ ! ~ ! O.l.l.l.c.c. .U S i i t x i.r q ",
"MX3XuXyX=X8._ c W d.! ~ +.T.<.a.a.c E G T G T E ! ~ _.`.6._.] ] , > w y u V T +.+.B.>.+.^ ! Q Q Q k.b.v.k.k.z.h U S Y I t r i.r # ",
"sXcXsXyXP.P.l.E a.p.~ ~ >.8.<.a.a.c E b b P j E W ^ ]._.`.] / ] * i e u e V Z Q +.~ ~ ^ J T k.k.k.l.b.v.k.} o.j U S U I r i.x r # ",
":X3X3X<X2X^.C.D a.a.>.l.7.K.<.s.u.d.d.a.! k.p.! Q >.{.tX_./ ] < D I y y V i I W Q Q ~ ~ k.b.N.k.k.k.b.N.k.o.} V S U Y I t x r r x ",
"eX=X;X:X:X2XK.>.S.A.b.J.P.K.>.^ u.u.E k.E Q b.W Y 5.{.0X_.] _.D _ u w * t u i m E o.W ! p.c.j.a.Q k.k.N.z.n d U S ' U I x x r i.p ",
"-XQ.E.E.>X=XE.P.;X;XQ.Q.Y.C.>.^ d.u.b P R ! a.W ^ `._.0X_.6.w.9 _ u y * w e w I E k.k.k.b.p.k.n G o.H o.k.d d D U Y U V r r r i.q ",
"( >.q.E.E.q.8.K.<.C.C.C.C.+.Q I i.V P I a.p.p.s.Z.wX_.0X8X2.8./ J w V & * e e y V T T T ! E p.l z  .R k.n h R S U _ Y y r x i.y.x ",
"L L 9 ;.;.;.:.K.J.>.+.x.v.s.d.a.a.E E E E s.l.V.wXrX_.8X3.4.#./ U k k c $ w e w w V V Z T T b j z f b k.n n s.S C Y C e i.i.y.y.i.",
"L B 8 L L 9 ;.....O.l.^ l.b.b.Q a.p.s.W p.l.A.wXtX) 8X'._ 4.#.B i j s c e = A I I t k V Z I T z j E n h n Q ^ C U J y r x i.y.i.x ",
"F A M ~ ..K K L Z G p.l.Q ~ s.p.! Q ^ Q v.S.iXwX'.t.r.8X~ ;.O.M s s a e + = 2 A ! o.b e j R b m m m b b Q b C Z ! ^ y q c v i.i.# ",
"= a A ! ! Z 3 s s Z W E T T R P l Q l.~.Q.wX8Xr.2.wXoXw._ +.! Z $ $ a g a $ % s F H o.n n n n E ! m n n z f V l Z I V c n o.n p 0 ",
"+ % s A ! W G B d A W k.W k k j ! l.l.E.wXwXq.oX0XzX1.8.3 j a.c = ; X - f 3 + 7 3 F  .G H n G b m m b R R l l z z 7 Q b.O.o.b.h 0 ",
"@ = = = w e 3 B a.m P a.P c p.k.k.<.T.'._.8Xq.iXzXwXK 7.o.P E j   7  .:.9.J l b 4 z n H J X.<...2 j j T R R n  . .{ x.x.#.@.z @ # ",
"O # # & & & & = e w s j E o.C.<.>.D.'.T.>XoXuXuXyX>X7 K k.J s d 3 f F K +.% d z z z H F F  .X.K...f s B f P n } n k.N.C.&.#.z 1 q ",
". . O & = & + = 0 s b l.J.J.C.>.1.E.e.=X-X-X@X-X=XK.7   f H l G  .K K z K o - f l n l z 8 L L 7.9.:.f f j V j T J +.7.7.<. .a 0 # ",
". . O +   $ $ = s j H <.~ T N N ..1.8.=XXXXXP.P.8.7 * s = F l j h  .K K o : * = f l l f f M f Z U ~ #.R l % > B z X.+.#.@. .d a 0 ",
". . .   + 2 3 l G f N N * 7 N L L L ....L ;.J.P.7.F - y y j $ d l ....f 3 $ : * : & s = a s s j N i I I i u Z j j j d a 4 H H p q ",
". . + + % a s - = * i : - A G G D i u > ^ <.;XK.L <.+.L Z V 3 F +.<...4 - 3 f s 2 - 3 y * $     * * * I ' ' f.g.g.i - = & + a a q ",
"# + + # X   O $ = , u : s Z J J L u * w i N ^ O.~ O.l.k.B > 3 - $ ; ; 3 o : 3 f - X : ; , i *     : : , I d.i d.d.g.i e t q & q & "
};
