/* XPM */
static char *_445af8ea4124976c735e25b30409538mPzQkvScNIa3nju1[] = {
/* columns rows colors chars-per-pixel */
"68 70 244 2 ",
"   c #020203",
".  c #04060B",
"X  c #06090C",
"o  c #0A0C0C",
"O  c #070806",
"+  c #0D110C",
"@  c #121A0D",
"#  c #12130E",
"$  c #080D13",
"%  c #080D15",
"&  c #0B121B",
"*  c #0C1415",
"=  c #131413",
"-  c #151D14",
";  c #161A1A",
":  c #25080C",
">  c #1B2518",
",  c #1E3316",
"<  c #24261C",
"1  c #26371E",
"2  c #0D1523",
"3  c #0E1927",
"4  c #0F1D30",
"5  c #111E32",
"6  c #121B29",
"7  c #192528",
"8  c #15243C",
"9  c #152536",
"0  c #272A25",
"q  c #2A3726",
"w  c #323D2B",
"e  c #343228",
"r  c #2F3537",
"t  c #403D2B",
"y  c #7D1218",
"u  c #335B1C",
"i  c #356B16",
"p  c #366B1B",
"a  c #3A6D1C",
"s  c #366819",
"d  c #3C731C",
"f  c #3D7B1C",
"g  c #387219",
"h  c #35422D",
"j  c #37482A",
"k  c #384734",
"l  c #3E5737",
"z  c #324C26",
"x  c #3B6C22",
"c  c #3A6526",
"v  c #3D7422",
"b  c #3E7A22",
"n  c #41751D",
"m  c #437C1E",
"M  c #487C1D",
"N  c #494B38",
"B  c #445938",
"V  c #57523B",
"C  c #436B2A",
"Z  c #427523",
"A  c #447C23",
"S  c #497E24",
"D  c #44742B",
"F  c #4A7D2B",
"G  c #47782A",
"H  c #4A6739",
"J  c #516C3E",
"K  c #4C7535",
"L  c #52783B",
"P  c #527A2F",
"I  c #667A31",
"U  c #192D4B",
"Y  c #182A44",
"T  c #1B3352",
"R  c #1E375B",
"E  c #1B304D",
"W  c #26374A",
"Q  c #223A58",
"!  c #282844",
"~  c #233E64",
"^  c #1F3B61",
"/  c #1E4050",
"(  c #26475A",
")  c #3B514A",
"_  c #26456A",
"`  c #264673",
"'  c #2A4C7D",
"]  c #284976",
"[  c #2D5673",
"{  c #32657A",
"}  c #4F5652",
"|  c #4C6646",
" . c #526B45",
".. c #597847",
"X. c #547253",
"o. c #676E4E",
"O. c #507172",
"+. c #636661",
"@. c #5B3445",
"#. c #9F1C25",
"$. c #C91D24",
"%. c #C93336",
"&. c #BC4F33",
"*. c #913757",
"=. c #A06E54",
"-. c #C34646",
";. c #3F811E",
":. c #3E8320",
">. c #43821E",
",. c #49841E",
"<. c #448A1E",
"1. c #4B8C1F",
"2. c #4D901F",
"3. c #458323",
"4. c #4A8424",
"5. c #468B23",
"6. c #4C8B24",
"7. c #468329",
"8. c #4B842A",
"9. c #4D8B2A",
"0. c #518C25",
"q. c #51852B",
"w. c #528C2B",
"e. c #538927",
"r. c #4D9224",
"t. c #4D922A",
"y. c #4D9A28",
"u. c #529325",
"i. c #529926",
"p. c #53942B",
"a. c #59942C",
"s. c #559A2B",
"d. c #5A9C2D",
"f. c #5A9B26",
"g. c #4D8533",
"h. c #538433",
"j. c #548C32",
"k. c #588838",
"l. c #549432",
"z. c #5A9432",
"x. c #559B32",
"c. c #5B9C33",
"v. c #5D9D3A",
"b. c #5B943C",
"n. c #4F9030",
"m. c #629E36",
"M. c #639432",
"N. c #5BA22D",
"B. c #57A22C",
"V. c #5DA233",
"C. c #5CA437",
"Z. c #4FA028",
"A. c #62A52E",
"S. c #62A434",
"D. c #64AA36",
"F. c #63A43A",
"G. c #65AA3A",
"H. c #6BAA3B",
"J. c #6DB33E",
"K. c #5D8546",
"L. c #62864A",
"P. c #679848",
"I. c #709250",
"U. c #69A844",
"Y. c #74B548",
"T. c #75AC48",
"R. c #868D58",
"E. c #9A946E",
"W. c #B2AB7B",
"Q. c #2B4E80",
"!. c #2D5488",
"~. c #315B95",
"^. c #335D9A",
"/. c #3A5F97",
"(. c #31578A",
"). c #35728C",
"_. c #35639E",
"`. c #367896",
"'. c #316984",
"]. c #3563A3",
"[. c #3766AA",
"{. c #3869AD",
"}. c #3867A9",
"|. c #3A6EB6",
" X c #3B6FB8",
".X c #3C72BA",
"XX c #3D75B9",
"oX c #51768F",
"OX c #4474B6",
"+X c #4878BB",
"@X c #77638A",
"#X c #3F7EC2",
"$X c #417EC2",
"%X c #3B85A6",
"&X c #3F8DB1",
"*X c #4396BB",
"=X c #5988B9",
"-X c #718FAC",
";X c #72ABB4",
":X c #3F82C3",
">X c #4185C6",
",X c #438BC9",
"<X c #4596CB",
"1X c #4798D3",
"2X c #739CC8",
"3X c #4CAADB",
"4X c #51A4CA",
"5X c #4EB3E5",
"6X c #4FBAE9",
"7X c #51B5E6",
"8X c #50BBEB",
"9X c #59BFE8",
"0X c #51B7E7",
"qX c #4CACE0",
"wX c #70B8D1",
"eX c #6DC3DC",
"rX c #8293AD",
"tX c #8FA9B3",
"yX c #AAB0AB",
"uX c #A6A689",
"iX c #C4BE8C",
"pX c #BAC6B5",
"aX c #D4CC95",
"sX c #E4DDA9",
"dX c #EAE4A9",
"fX c #F5ECAA",
"gX c #F6EDB5",
"hX c #F9F1BC",
"jX c #E5DD9D",
"kX c #80BACA",
"lX c #97ADCD",
"zX c #95D1CC",
"xX c #86CED6",
"cX c #91CFCB",
"vX c #B4C7E2",
"bX c #B2C4D4",
"nX c #D8D7D7",
"mX c #CBCBC9",
"MX c #EFEAC9",
"NX c #FBF9EB",
"BX c #FCFCFC",
"VX c #FAFAF6",
"CX c #E7E7E7",
"ZX c #D1DCEB",
/* pixels */
",.9.9.r.i.d.d.H.F.u.:.A 9.p.d.a.6.u.u.6.>.>.>.f g ,.,.>.4.0.A a s d 7.7.9.6.s.7.A A 3.t.c.l.w.b.P.n.g.:.6.4.A d b m m >.m Z A n s s s n ",
"f.p.p.p.s.V.S.D.V.9.b b 3.t.c.0.6.i.0.,.m d f g g m m M >.m d a a Z 5.5.7.6.r.3.S 5.7.4.l.0.z.m.U.P.b.n.6.3.m f d d m 4.4.m n Z a s s m ",
"u.a.s.p.t.s.f.V.V.t.8.7.6.p.p.w.0.p.r.6.>.f g f f >.m >.S m d g d Z F 8.7.F 8.A S 3.4.e.0.0.a.m.U.U.v.9.6.A f f f d m 4.e.Z n n n s i m ",
"6.p.s.s.p.r.9.l.x.p.9.9.r.r.6.w.8.u.r.0.1.>.f M 3.>.4.1.4.m d g K B q 1 q 0 1 z F 9.0.w.t.0.u.c.c.x.l.5.5.b A A f f m 3.S Z Z a n m n m ",
"u.a.a.x.p.0.6.u.l.j.w.t.6.6.9.5.4.r.y.i.2.>.M >.r.9.l.l.6.3.d d L k O O   O O @ K 0.w.a.6.6.4.y.t.9.9.6.3.3.S 7.b A S A b D v Z 4.4.S d ",
"8.p.w.p.p.6.6.6.l.c.x.p.l.9.8.3.4.r.s.N.s.<.;.r.d.B.c.d.t.9.P V } ).`.`.)._   + | ....L.q.3.5.t.9.4.8.w.e.6.4.3.m 8.K.L...L.K.w.z.a.0.9.",
"4.t.9.5.A m >.3.t.l.z.z.l.9.9.8.6.f.N.N.i.<.6.B.N.N.N.N.u.x.j @ / &X6X6X4X).  O O X o @ ..A A 6.6.3.4.p.a.,.S S S C h o + >  .z.M.a.u.w.",
"7.6.6.5.>.3.u.s.p.t.p.z.a.0.6.a.2.1.2.1.,.;.t.s.B.B.N.D.I.+.%X%X&X3X3X%X[ [ R R R R Q Q O...K.3.3.m >.4.>.S M P .... ...K.o.L.L.L.h.6.4.",
"h.z.p.u.0.w.9.f.i.r.6.p.a.0.0.u.6.6.5.6.<.3.3.r.y.i.d.z.1 > '.<X5X6X*X{ 5 T ].].].].].^.( > | 8.3.M m m A G F C k h  .G G F L.> 1 F p.w.",
"U.H.c.a.p.0.t.r.y.6.9.0.e.4.6.0.6.9.8.6.6.3.3.5.6.t.g.L >   ( `.%X%X`.( U ~ |.|.|.|.|.{.` 9 } L h.4.4.m n D J H l j K x g v k.q w K h.4.",
"F.F.C.N.p.p.9.9.4.9.u.0.6.3.3.6.6.p.l.0.6.4.3.6.0.w., #     % & & & 9 _ ].[.|.|.|.|.|.|.}._.(.7 j 8.6.b v z + w K c x a p v v x c j < C ",
"l.M.F.B.B.d.p.6.3.9.l.u.1.>.>.6.u.d.c.p.6.3.:.4.0.j.@         . O   2 ` |. X|.|.|.|. X|.|.|.!.% w F 9.d x ,   q K p g x a x v v c 1 > C ",
"4.w.S.V.s.N.V.8.3.4.0.6.>.f m r.d.d.s.i.9.5.7.F > 7 !._.*.$.$.$.y : 2 _ |.|.|.|.|.|.|.|.|.|.!.% 0 D 3.x x ,   X @ q L Z d g x x c < @ B ",
"S.D.V.c.f.d.S.r.1.,.>.:.f f 6.d.c.d.d.d.x.x.n.j.@ 2 _.{.*.%.$.$.#.: 5 _ |.|.|.|.|.|.|.|.|.|.!.2 r c v x D 1 X .   1 ..d b x x p c h 1 c ",
"Z.J.Y.Y.J.A.d.w.6.1.5.6.<.1.6.s.C.F.x.s.s.s.N.v.* 2 ^.|.! : : : 8 ' _.OX|.OX|.|.|.|.|.|.|.|..X<X).7 o o o T ~._ 2 0 ..i g v D 0 w C n C ",
"D.J.R.Y.Y.G.d.p.u.r.t.t.6.5.6.c.U.Y.U.B.s.p.p.b.+ 2 oXOX! & % & E _.+X+X$X+X+X+X+X+X|.|.#X|.#X5X`.& O X % Q }.' 3 r X.v d v P = < C n a ",
"J.J.Y.Y.J.G.B.V.f.f.p.t.>.>.6.V.U.U.U.V.y.r.p.b.@ ; tXvXoXQ.~ ~ oXlXvXvXvXvXvXbXpXyX=X|. X X>X7X%X; . T ` ~.{._.Q.(.oXL.O.B  .H H Z n a ",
"J.J.Y.J.D.D.A.D.f.u.9.6.>.:.6.c.F.C.C.V.s.6.d.b.= = mXBXrX$X{.OXlXZXVXVXBXVXVXNXgXfX-XOX|..X>X7X%X* . ' {.|.|.|.|.|.XX_.` 3 k G D d n a ",
"J.D.J.Y.U.G.V.U.K.....J L J ..K.L.U.P.x.d.r.a.K.= = nXBX+X(.oX-XrXyXyXyXyXpXBXNXMXhXpXtX=XOX,X6X%X3 . Q.|.|.|.|.|.].] R )  .L.F A n d p ",
"C.D.Y.Y.U.U.v.C > O O O . O O O , T.x.y.s.y.t.k.= = mXVX+.: o.iXuX@.o o 2 } BXBXBXBXhXsXtXOX:X5X%X2 . Q.|.|.|. X|.~.Y > | h.k.h.n d d p ",
"V.C.U.I.L.X...0 o O & 4 4 4 4 4 9 X.........X.B o = nXVX} + o.iXW.N     # } BXBXBXBXMXfXtX+X{.).[ E R ~.|.|. X[.^.{ }  ...8.8.S d b S A ",
"B.C.P.z > > - o O 3 _ ^.^.~.^.^.' 7 > - - - - = . = mXBX+.= o.iXW.N     = } BXBXBXBXhXdX-XOX!.4 9 !.].{.|.|.|.!.Y r | v G 8.q.3.d b Z b ",
"F.R.T.N 9 * . & 9 ( _.>X>X>X$X X_.& . 3 5 5 9 2 . = mXNX+.r =.aXiX+.0 0 r +.BXBXVXNXhXdXrX+X] X & ^.|.|.|.[.^.` 9 z J x f S 4.n d d m b ",
"T.&.%.-X4X( & ( %X3X3X7X5X7X1X X/.& % ` ].].].] % o aXgXMXCXMXgXgXMXnXnXnXCXBXVXhXhXfXdX-XOX] % 3 ~.|.|.|.` 4 h L x x p b A A A Z b d d ",
"R.&.%.rX7X_ & ( &X6X6X6X7X7X3X X^.& % Q.|.|.|.!.5 7 iXaXMXVXMXsXsXnXCXCXCXCXNXNXfXfXjXaX-XOX` & 4 _.XX{.[.~ 2 h K.b a p b v g G A A b a ",
"J.%.$.@X+XR * T }.:X#X&X$X$X.X X^.2 % Q.{.|.|.|.[.(.0 0 uXsXE.V < 0 0 0 e +.gXgXfXfXV < ; & 5 !._.{.{.T 3 k ..g.7.b v d v g p v A A S b ",
"R.-.%.@X}.T % Y !.{.|. X X X|.|.^.& & Q.|.|.|.|.|.~.3 $ E.jX=.0         o V dXfXfXfXt   . . 5 [.|.}.].9 X j g.A 5.3.b b b b x a a d 3.d ",
"H.-.%.@.8 & . & 5 T ~. X|.|. X.X^.& % ' |.|.|.|.|.[.` ~ } | e #           >  .=.dXfXt O 5 ~ ` {.(.U 8 ) C K S S 3.3.f d f b b v x v 3.3.",
"M.M.I j # + o O . 3 ] [.[.[.}.}.~.2 ; ` ].[.[.[.[.[.[.[.U 2 X .           O < V aXdXt = ~ ].{.|.Q.2 + u b v v Z b :.b b d d A b a a 3.9.",
"M.M.6.h.K.K.K.H 7 . 6 8 8 8 8 9 9 }  .W 9 9 9 8 5 T ].|.!.~ 8 %         o e E.=.V o._ ' ^.|.|.|.Q.& $ c b G A b v g v v v f b d x g :.l.",
"F.M.a.a.c.F.F.K.0   . X X X X X > P.k.k o . . X X 2 ^.OX{.[.^ 2         # N aXW.0 = ' [.|.|. X XQ.& = c b A G v v v g g g g g v n A 8.z.",
"A.S.N.N.N.B.s.P.H h h h h k k k B U.v...B N l k } ) ~ ` ^.{.!.R U Y Y Y W X.yX-XW Y ~. X|.|.^.` Q k N D 7.G b b b b g g g p g f 4.0.0.a.",
"N.V.s.B.B.Z.t.0.p.d.s.t.5.r.5.6.B.A.V.V.c.d.x.7.t.P.> . ~ _.|.{.|.{.[.{.{.|.OX|.|.{.|.|.|..X_ o w D D b b 3.7.A A b d a a g i d 5.6.w.l.",
"V.x.l.s.f.s.d.5.9.a.c.x.y.:.5.y.Z.B.D.D.D.F.C.y.y.P.>   O.;XkXkXkXwX2XOX|. X|..X=XkXkXkXkXkXO.o N P 8.3.b S 7.5.3.A Z A S n g d 5.9.p.j.",
"B.n.n.n.t.y.s.r.9.s.V.B.s.r.5.y.Z.B.V.V.C.H.C.C.i.P.>   O.;XzXzXzXzXwX,X,X,X,X<X4XzXzXzXzXzXO.# k j.u.9.6.3.4.4.5.4.4.e.9.S A m 3.3.3.9.",
"C.l.t.t.y.t.i.r.i.s.s.d.y.y.t.r.r.Z.N.V.C.U.P.P.L.L.@   O.;XxXxXcXxXeX7X0X5X5X7X9XxXxXxXxXxX%X# k k.w.n.0.e.4.4.S 8.w.a.8.f m m b G v 5.",
"U.c.d.d.f.y.6.i.f.f.f.d.c.p.t.t.y.Z.B.A.U.I.@ @ @ @     { 4X9X9X9X9X8X8X8X8X8X8X8X9X9X9X9X9X).$ h k.w.A 7.8.m m M 4.8.e.,.M d d A b b n ",
"F.S.V.d.y.i.i.r.r.u.i.i.t.n.x.x.i.B.J.J.Y.K.% % $ $ * & '.3X6X6X0X0X8X8X8X8X8X8X8X8X8X8X8X8X).$ h P 7.3.g.8.4.n f 3.4.4.6.8.M n S 4.4.,.",
"d.m.V.d.i.s.s.y.<.r.y.r.6.9.l.l.B.A.D.K , [ *X*X*X*X&X<X:X:X#X#X#X#X1X5X8X8X8X8XqX:X:X:X:X:X' X h G S 0.u.8.M n A 3.8.w.9.l.8.A 8.4.6.3.",
"c.N.N.a.c.D.C.s.r.2.r.6.6.n.l.v.v.T.I.w X [ 9X8X8X8X8X8X:X#X X X X X,X5X8X8X8X8XqXXXXXXXXXXX` X w P w.a.6.A Z m ,.0.a.l.j.l.g.7.A v A x ",
"c.V.V.x.l.C.D.B.r.<.y.r.y.a.v.x.9.B q _ ' ].>X<X5X8X8X8X5X3X:X#X X X#X1X1X3X:X1X:X X X X.X.X` X h h.a.u.9.3.A S 0.a.a.w.8.j.j.7.b v x x ",
"x.v.V.x.t.V.C.B.y.y.y.r.y.p.s.r.3.w & ' |.|..XXXqX8X8X8X8X0X1X#X.X X X.XXXXX:X#X#X|..X X#X:X` X h j.c.c.t.4.F 4.4.4.8.6.8.j.b.j.D v x x ",
"n.x.x.5.5.s.B.y.r.2.5.7.9.r.6.5.7.q & Q.|.|. X.X,X1X0X8X8X8XqX1X,X#X X X|.|.XXXX X|.:X1X:X:X{ X w j.N.u.5.6.6.0.4.4.4.r.n.l.v.l.8.S A S ",
"n.l.t.5.6.y.B.y.i.i.y.6.t.6.5.r.4.0 ; Q.|. X|..X#X#X5X0X8X8X8X6X1X#X X|.|. X.XXX|. XqX8X5X5X'.$ h k.V.s.6.w.d.9.4.S 3.6.p.t.n.j.9.8.m >.",
"s.x.r.r.y.r.y.y.B.N.N.A.d.6.<.i.e.0 & ' |.|.|.|.|..X1X1X&X`.`.).'.] _ ~ ] ~.1X:X:X:X8X8X8X8X`.$ h h.d.d.u.l.j.4.b b A S 9.9.9.t.u.6.m >.",
"V.V.t.p.p.p.6.y.d.A.A.A.V.f.i.a.q.0 & ' {.|.|.|.|.|. X XT 2 % o % X X X ; _ 8X8X8X8X8X8X8X8X).$ w F w.0.0.9.8.n x v G 3.6.0.p.p.6.3.A 4.",
"B.N.x.x.f.a.r.r.s.D.S.B.V.N.c.I...0 4 Q.|. X X|.|.|.^.^.W 0 < < ; - ; - 7 ( &X&X8X8X8X8X8X8X`.$ w Z f 6.9.9.5.d x x v F 4.0.z.z.4.m m m ",
"i.d.V.c.p.6.<.6.f.A.N.s.x.V.g.w 7 !.~.[.|.|.|. X|.{.Y 3 K g.S F F Z Z Z K  .7 / 6X8X8X8X8X8X`.$ q x d 4.n.7.3.A A b v A S 8.b.b.8.m g n ",
"r.y.p.c.d.u.1.p.d.B.B.B.C.P...9 U ].|.|.|.|.|.|.|.[.2   G u.2.u.p.u.u.6.j.K X 5 <XqX8X8X6X8X`.o w c b 7.8.3.7.8.8.S Z F 8.j.z.z.8.d g i ",
"t.t.u.d.N.a.u.s.B.V.C.C.g.q k (.~.{.|.|.|.|.|.|.|.[.2   K 9.2.a.w.9.6.6.8.C o 3 XX:X7X8X8X8X`.$ w v b b m S 8.F 8.S A A q.q.j.q.A d n a ",
"t.9.r.p.s.l.t.6.d.C.G.C.c   4 [.|.|.|.|.|.|. X|.|.[.2   K u.6.p.c.a.0.0.w.D o 4 [.|.5X7X8X8X`.$ w D :.m >.4.w.0.S m n M S F 8.8.b a s a ",
":.3.5.y.f.t.6.r.i.s.s.s.u   4 ]. X|. X|.|.|.|.].U 9 X   C 9.3.t.d.p.6.6.4.C X 3 [.|.>X>X>X>X!.X q G 6.6.4.4.4.>.3.A S S m A 4.8.S d s a ",
"g b 6.p.s.p.6.u.6.3.5.6.u   5 [. X X X.X.X|.|.~.&       K 9.9.y.i.6.5.F K.K . 4 [.|.|..X X XQ.% w q.z.8.4.,.S m d m S S S S 4.4.4.>.Z n ",
"b b 9.l.c.d.a.0.>.3.>.1.A c k Y U U U U U U U ( l c C c w.u.u.f.f.p.g.H , 7 R _ {.|.|.|.|.|.Q.% w P j.4.4.M m b b A A A A m S 8.4.S Z d ",
"3.A w.z.F.S.a.M :.f >.,.e.4.u = + * + = + + * q G 3.5.6.6.a.d.N.S.v.P.H . 8 [.{.|.|.|.|.|.{.Q.= h K q.4.4.m d d d Z G F A m n S S n i i ",
"g f 3.9.l.a.8.d f >.>.,.,.3.A G P g.F A A x x v :.>.5.3.4.c.G.G.F.m.P.H . Y |.|.|.|..X{.] Y W ..L.q.w.w.4.n Z a a n S 7.A m d M M n i i ",
"f M 6.9.t.0.6.n d f 6.5.:.3.5.t.x.l.p.r.1.<.>.b :.r.5.5.p.D.H.F.F.U.P.J o 8 |.|. X X X{.R % r z.c.l.w.8.A S a n A >.3.3.:.d d m n i g m ",
":.3.6.u.j.w.w.e.,.u.p.6.4.3.9.l.x.d.y.5.2.2.6.3.:.:.5.y.t.d.S.A.G.U.I.| X Y |.|. X X|.[.T . k j.a.0.9.f S S n n a n g f :.n g g s s n M ",
";.>.3.6.j.M.S.A.f.f.d.f.r.2.u.c.v.r.<.6.r.0.w.w.y.<.<.<.5.t.a.d.A.F.P.H . Y  X|.|. X|.{.T . r 8.q.4.3.M M n n s s p i d A 4.M g i s s n ",
">.3.7.4.l.m.A.S.N.d.f.a.6.2.i.x.x.6.6.6.6.6.l.M.s.r.<.<.<.6.0.6.a.d.k.B . 8  X|.|.|.|.{.T . k D b m m 4.m d i i s s p d M M ,.n g g s n ",
"6.9.g.j.j.l.V.C.v.S.m.a.0.6.r.s.p.0.,.4.9.t.z.m.p.6.,.6.,.3.m f 4.9.k.B . 8 |.|.|.|. X{.T X w a d d f S n i g n a p d n m m f d d d s a ",
"V.c.v.l.p.9.t.v.P.F.D.S.d.0.t.p.p.w.4.3.7.l.p.a.z.4.4.6.3.b d f m b L k X Y |.|.|.|.|.{.T X w Z f d d d i i n n n d d a S A m g d a p p ",
"F.v.l.l.6.5.t.v.C.C.V.N.d.z.l.z.w.6.6.9.t.l.9.8.q.e.0.,.f b M m d g K l X 5  X|.|.|.|.{.U . w x d Z a a g g n n M m n a S M m a s p p p ",
"a.l.y.t.5.r.t.x.C.F.d.a.m.F.F.c.a.w.w.8.4.8.6.4.3.,.,.<.>.f 3.:.d b K B X Y  X|. X|.|.{.U . w x n m n g M M n n n Z S e.a.e.S g p x g p ",
"t.w.n.t.r.r.t.C.F.D.c.p.l.c.m.b.l.w.8.3.M m 6.w.9.4.,.,.>.f 3.:.>.3.h.B . 8 |. X|.|.|.{.U . h A 4.,.>.>.>.,.M n a b S e.0.e.,.g d m m d ",
"6.t.p.p.s.l.x.v.z.z.p.p.l.c.l.q.4.4.M m >.3.u.w.w.w.6.m d v v A 4.4.L B * Y [.|.{.{.{.].W $ k 8.4.M m ,.1.,.M m n n A 8.,.n d d m 4.S 4.",
"u.t.j.l.c.c.l.l.a.w.6.9.l.z.j.F 4.6.3.m 3.6.p.9.j.z.6.A d x b f m m G C B l Y Y U Y U U | H P 8.3.f M 4.,.m M S 4.S 4.4.M g g d n 4.A 4.",
"0.l.l.C.F.x.s.t.p.r.5.6.p.z.w.4.4.9.6.3.3.9.x.p.w.j.8.b g n 3.f g g s a 4.K X X X X X # L j.a.2.3.m 4.,.M n d S q.e.e.e.e.d d g n n n n ",
"t.x.c.F.F.c.a.u.9.5.>.>.3.7.7.7.S 9.9.7.5.9.p.l.w.F f d g d n g i g n n 4.q.| H J J J J k.M.f.e.,.e.P n a n n S w.z.w.4.w.S m n n n n n ",
"x.v.d.x.S.d.a.6.5.3.:.m m 3.5.F v 3.9.t.s.p.p.t.w.4.>.f p g i i g n M M 4.1.A A Z D P k.e.M.a.,.,.S M s s n M S h.M.k.4.S G Z G S n n d "
};
