/* XPM */
static char *aacfdb906e444a9ac23004247d9cf445JlgTfHCqbgrlbEJV[] = {
/* columns rows colors chars-per-pixel */
"70 70 247 2 ",
"   c #020204",
".  c #090807",
"X  c #02060B",
"o  c #050A0D",
"O  c #0C0D0C",
"+  c #090707",
"@  c #0E120C",
"#  c #0C1409",
"$  c #11150D",
"%  c #12190E",
"&  c #1A160F",
"*  c #030912",
"=  c #030C1B",
"-  c #050910",
";  c #0B1418",
":  c #131B13",
">  c #151916",
",  c #100F0B",
"<  c #1C2618",
"1  c #21271C",
"2  c #21301A",
"3  c #030F22",
"4  c #0A1A24",
"5  c #061729",
"6  c #111E23",
"7  c #031935",
"8  c #041935",
"9  c #0C222E",
"0  c #142527",
"q  c #0C2638",
"w  c #152F3B",
"e  c #242523",
"r  c #2A3726",
"t  c #3E382A",
"y  c #343634",
"u  c #366C16",
"i  c #34651A",
"p  c #366B1A",
"a  c #3A6D1C",
"s  c #376817",
"d  c #3A7217",
"f  c #36721B",
"g  c #3C731C",
"h  c #3D7B1D",
"j  c #367518",
"k  c #2F6418",
"l  c #324329",
"z  c #3A4836",
"x  c #394E2F",
"c  c #3B6E21",
"v  c #396923",
"b  c #3D7321",
"n  c #3E7B22",
"m  c #3B7625",
"M  c #315F19",
"N  c #42751D",
"B  c #427B1E",
"V  c #487E1F",
"C  c #445A39",
"Z  c #417522",
"A  c #447C23",
"S  c #497E23",
"D  c #457C2A",
"F  c #4A7D2B",
"G  c #45752B",
"H  c #486438",
"J  c #4C7B37",
"K  c #527A3B",
"L  c #476F31",
"P  c #041F44",
"I  c #092848",
"U  c #133549",
"Y  c #062A57",
"T  c #153B55",
"R  c #0F324A",
"E  c #233A41",
"W  c #042E62",
"Q  c #07346B",
"!  c #053978",
"~  c #133F6A",
"^  c #174358",
"/  c #194A65",
"(  c #1E5D7E",
")  c #144774",
"_  c #255A78",
"`  c #2E5569",
"'  c #365F63",
"]  c #645B43",
"[  c #4D6A45",
"{  c #587946",
"}  c #53704E",
"|  c #6F7150",
" . c #526E6D",
".. c #757871",
"X. c #535354",
"o. c #867A5B",
"O. c #3E831C",
"+. c #3F8621",
"@. c #44821E",
"#. c #49841E",
"$. c #478B1E",
"%. c #4C8C1F",
"&. c #458323",
"*. c #4B8424",
"=. c #468A22",
"-. c #4C8B24",
";. c #468229",
":. c #4C842A",
">. c #4D8B2A",
",. c #458B2A",
"<. c #518C26",
"1. c #51852B",
"2. c #528C2C",
"3. c #538728",
"4. c #4D9225",
"5. c #4E922A",
"6. c #4A9727",
"7. c #529325",
"8. c #539A26",
"9. c #53942B",
"0. c #5A942D",
"q. c #549B2C",
"w. c #5A9B2D",
"e. c #5B9C26",
"r. c #4E8733",
"t. c #548C33",
"y. c #57873A",
"u. c #549431",
"i. c #5B9433",
"p. c #559B32",
"a. c #5B9C33",
"s. c #5D9A3B",
"d. c #5B953B",
"f. c #4F9931",
"g. c #619E2D",
"h. c #629B37",
"j. c #5BA22D",
"k. c #56A12D",
"l. c #5DA333",
"z. c #5BA537",
"x. c #62A434",
"c. c #63A53A",
"v. c #64AA3B",
"b. c #67AA3A",
"n. c #6CB13C",
"m. c #66A832",
"M. c #5C8444",
"N. c #5C8647",
"B. c #5C9142",
"V. c #5D825A",
"C. c #618B45",
"Z. c #64894B",
"A. c #669649",
"S. c #668957",
"D. c #6B9951",
"F. c #6BAC44",
"G. c #66A945",
"H. c #6EB243",
"J. c #73B446",
"K. c #77AD52",
"L. c #689F54",
"P. c #8F9265",
"I. c #053C81",
"U. c #08458A",
"Y. c #054593",
"T. c #084B98",
"R. c #1B5986",
"E. c #226588",
"W. c #246C94",
"Q. c #27749C",
"!. c #376D8A",
"~. c #044CA2",
"^. c #0752A9",
"/. c #0659BA",
"(. c #176AAF",
"). c #2D78A7",
"_. c #1E6490",
"`. c #045CC4",
"'. c #0663CB",
"]. c #0369DD",
"[. c #0466D6",
"{. c #1476D2",
"}. c #026BE3",
"|. c #026EEB",
" X c #086EE2",
".X c #0171EE",
"XX c #0878EB",
"oX c #0373F0",
"OX c #0A7DF0",
"+X c #1077E9",
"@X c #2978D3",
"#X c #526E85",
"$X c #2C81AD",
"%X c #2D88B6",
"&X c #3188B5",
"*X c #6A88A2",
"=X c #3296C9",
"-X c #329DD3",
";X c #298ECE",
":X c #33A2D9",
">X c #0E83F1",
",X c #138AF2",
"<X c #1C96F5",
"1X c #1386EA",
"2X c #209BF8",
"3X c #239DF4",
"4X c #2788E3",
"5X c #36ABE6",
"6X c #38B1ED",
"7X c #29A8F8",
"8X c #2FB0FB",
"9X c #36B5F3",
"0X c #33B5FC",
"qX c #36BBFD",
"wX c #39BDFD",
"eX c #39B7F5",
"rX c #32AFF2",
"tX c #1780D9",
"yX c #4C94DA",
"uX c #6BA2CF",
"iX c #6FA5D1",
"pX c #6BAAEA",
"aX c #79AEE7",
"sX c #619DD3",
"dX c #8C8C8B",
"fX c #909090",
"gX c #A5ACA7",
"hX c #CDBC88",
"jX c #D7C592",
"kX c #E2CE94",
"lX c #E6D297",
"zX c #D4D5B7",
"xX c #E5D7A6",
"cX c #EDDDB1",
"vX c #FCE7A8",
"bX c #F8E9B7",
"nX c #AEC4C2",
"mX c #D7D7D8",
"MX c #CBCDCB",
"NX c #FDF1C9",
"BX c #FAF1D5",
"VX c #E1EEF8",
"CX c #FDFDFD",
"ZX c #F9F9F5",
"AX c #F4F1E6",
"SX c #D5E5F3",
"DX c #89B5E5",
/* pixels */
"5.<.%.-.5.-.8.w.e.c.c.9.h n >.9.w.9.-.8.<.#.@.@.B B B #.@.#.*.S a i g ;.>.-.9.5.n ;.A =.9.i.2.t.B.B.r.:.-.*.A g n h B @.B b Z c s a a B A g ",
"9.-.7.9.9.9.8.w.j.m.l.>.n n =.9.0.9.<.9.7.B h j j d d B B #.B h g a n =.,.=.>.-.@.;.;.&.>.9.0.h.G.G.B.2.=.*.B B g h B *.*.N N Z s s g V *.h ",
"7.7.<.7.0.f.6.9.9.a.a.9.*.;.-.7.9.2.7.9.-.@.@.h h h @.@.*.*.h g a g b >.u.2.>.>.A &.:.:.>.9.7.h.v.G.s.5.*.@.h &.j g B *.S N g Z N u d B N N ",
"-.7.<.7.w.q.9.7.5.9.p.9.>.-.4.4.5.<.-.4.4.%.#.@.h @.&.@.2.;.B g c c D i.a.u.>.;.A :.<.<.2.-.<.w.l.s.u.5.=.n Z *.g h A &.F Z a g N N d g g A ",
"4.4.-.9.w.0.u.9.-.9.9.u.>.5.4.-.-.;.*.4.8.e.4.@.@.=.9.>.a.>.*.Z x x x x C C 2.*.A ,.<.0.4.$.-.5.9.>.-.-.;.&.&.;.d A A Z Z Z Z S 3.*.B Z S A ",
"q.w.2.>.9.-.-.-.#.=.u.p.u.u.u.2.:.&.-.8.j.j.4.O.=.e.j.l.a.9.9.t.% X O o o # y.>.D D @.<.@.@.@.-.>.&.:.2.2.-.*.&.@.B A S D F F i.0.0.2.0.t.V ",
"4.p.>.>.>.-.@.B #.=.5.0.0.a.t.>.<.<.-.e.j.q.$.$.q.j.j.j.2.S F K % * q w w ^ { D r.&.n -.-.@.h -.>.&.A 2.<.*.V A @.A &.:.1.1.t.0.i.0.<.0.h.V ",
"=.2.>.>.>.4.=.A >.7.9.5.<.a.i.-.<.7.%.4.4.%.O.=.7.k.k.A.# # O # . q %X5X5X:X9 < M.>.h -.<.*.h n &.@.@.*.*.#.V N S N N A :.:.S 2.1.-.<.:.3.#.",
"<.:.1.t.0.<.9.<.<.8.8.4.-.0.0.-.7.<.-.-.-.$.&.&.-.2.9.A.    X X   w =XwXwX6X9 : M.=.n -.*.B h B &.@.B N B A *.N b g b A A A B ;.D >.2.-.<.3.",
">.t.h.F.c.0.9.<.-.>.6.-.*.>.<.*.>.-.-.:.;.-.*.&.;.y.K ' Y.Y.Y.I.Y.U./ ( -XeX$XQ. .[ M.;.A b A *.-.-.*.B h B *.B p a f c c g A &.A *.*.*.S c ",
"=.>.a.b.c.a.e.7.9.-.*.>.2.7.-.@.=.-.5.0.9.>.-.=.-.K , W |.|..X.X|./.7 9 &XwXwX5X_ O N.&.A h &.-.@.7.>.A a h A h k p c a a c Z A b B N N N Z ",
"=.4.2.u.l.l.k.k.p.>.;.-.9.7.$.h @.-.9.a.w.2.:.A v [ 8 ! oX.X.X.X|.`.Y R ).-X-X=X/ o [ G D B B @.O.-.-.A p c n b k f f b a g b g b N a a B A ",
"=.-.*.-.a.l.q.j.x.9.=.*.<.7.@.d &.2.w.e.q.5.-.l O ) '.]..X.X.X.X.X|.]./.I 3 ; = X   O @ H *.g g h &.;.g p a b b f f g g c c f c v a i a N N ",
"A =.9.x.b.v.q.j.x.9.*.#.@.h h h -.a.w.w.w.p.9.l X ! }.|..X.X.X.X.X|..X`.P     + X X X @ [ r.A B h h g g g g f c f k u g f c f p Z v i i s s ",
"m 5.f.j.J.J.J.m.w.9.4.-.=.5.$.$.-.p.c.z.9.q.p.l X ! }.|..X.X.X.X.X.X.X`.P o _ W.W.W.R.U.` } } &.h f f ;.:.N a a A p k u g b v c Z v v N s Z ",
">.j.z.m.J.K.J.b.z.9.4.5.5.9.$.$.9.z.K.J.b.k.q.r X ! }..X.X.X.XoX|.oX|.`.P = -XeXeXwX<X}.I.* e h g p a B #.*.B u h a g u a g A f a N s a b S ",
"-.0.m.n.J.J.n.n.j.g.j.e.2.5.@.O.7.l.G.F.v.0.>.z 9 U.|..X.X.X.X|..X.XoX`.Y 8 &X-X:X:X+X}.I.- 1 g n g h A $.B h u a u u p a c b b a a a b c p ",
"=.7.m.n.H.J.n.n.m.m.e.e.9.=.&.h 5.a.z.c.h.} H Q.$X{..X.X.X.X.XoX.X.X.X X/.~.~ T E T ^. XU.X 1 g n b A @.&.B g p p p s p b b b A Z g N b Z i ",
"4.7.z.m.H.J.n.n.v.j.e.<.-.@.O.h -.w.c.x.t.r O =XqX<XoX.X.X.X X.XoX|.oXoX+X[.8 ; - - I. XI.- 1 g g h B O.@.B N a k k i a A :.:.D Z b g b B B ",
"x.4.k.z.G.H.F.G.z.8.8.7.*.%.h =.*.K C.M.K : X =XwX<XoX.X.X4XsXiXpXpXpXpXpXpX! ~ W Q ).pX!.- 1 N h f f h h g h N s i p a G t.t.S g g g g B -.",
"j.q.z.z.v.H.H.G.x.q.4.-.&.-.+.=.D : % % @ .   =XwX<XoX.XOXsXzXcXVXVXVXVXVXSX@X[.[.[.aXSX*X, 1 S O.g m n n g B B g a g g A t.:.b a A A b h &.",
"v.e.q.l.v.H.H.n.G.p.w.2.F D D n L 0 0 4 ; X   =XwX<XoX+X4XiXcXbXCXZXAXmXmXmXyX+X{.'.DXZXfX, 1 V A n n n A &.B 3.h g p b &.2.:.B g h h b h n ",
"v.q.w.c.H.n.H.n.c.p.l.i.M.x l l ' $X$X$XW.4 X =XqX<XoXyXnXMXAXAXZXmX..X.X.X.gXgX#XY fXZXdX, 1 S S D ,.>.>.&.#.-.A p a f A *.N g f A n n g A ",
"v.j.a.x.l.k.l.z.l.j.q.0.Z.# X X ^ 5XwXeX-Xq X =XqX<XoXuXbXNXZXCXCXMXy   X ; jXkX| = dXZXdX, e F :.D A :.:.=.*.-.:.g a c A B A S A b g g g m ",
"z.z.s.z.8.=.4.k.k.q.5.r.N.w w w _ 9XwXwX5X/ w Q.;XtXXXuXvXNXCXCXCXMXy X   , jXkX] , dXZXdX+ 1 D :.A A S &.A *.:.r.G G L G a b D S A g g f j ",
"G.v.z.z.4.@.=.8.e.4.{ r ` =X-X-X:XqXwXwXeX-X-X^ q U.}.uXvXNXZXCXCXnXy     , jXkXo., dXZXfX, 1 J D A &.*.S H 2 < < < > 1 < x v Z N &.A g g g ",
"F.F.z.a.8.*.=.4.4.5.[ 0 / 6XwXwXwXwXwXwXwXwXwXq o ! ].uXvXNXZXCXCXMXy +   > hXkXo.+ dXZXfX, e y.;.;.>.:.F C @ X   X X X . r v v p &.h h h h ",
"G.l.i.>.4.7.4.9.d.{ ' ) (.0XwXwXwXwXwXwXwXwXwXq X ! }.uXvXbXBXBXCXmXdX....o.xXlXgXo.gXBXo.; > ..{ N.{ { { ` Q Q Q Q Q P + 1 [ { } { -.=.;.O.",
"J.G.c.q.4.-.5.:.H X Y.].<XqXwXwXwXwXqXqXwXwXwXq o ! }.sXvXvXvXbXZXCXCXCXCXCXbXvXAXCXNXxXP.O     + +     - Y.}..X.X.X X^.-         $ t.,.S A ",
"n.P.n.k.-.;.>.t.H - Y.}.1X8X8X8XqXwXqX:X:X9XqX^ q ) ^.sXzXxXvXvXmXmXMXmXmXMXhXjXcXAXcXhX| . X 6 9 8 6   * Y.|.XX>XXX1X/.q 4   X > w N.y.d.3.",
"v.H.n.z.w.8.e.i.H - Y.}.oXOXOXOX<XqX5XR ^ -XqX5X-X( 5 ) 4XiXxXlXt e e e e e e t P.vXo.1 ,   4 :X:X:X=X4 * Y.|.<X8X0X0X9X:XW.4 q $X=X0 2 Z.S ",
"k.n.v.z.j.k.j.p.H - Y.]..X|.|.oX>XqX5X; 9 =X9XwXrX( - W  XsXxXlX&             > o.lX|       4 eXqXqX5X4 o Y.}.<XwXqXwXwXwX$X4 U -X5X4 : { N ",
"z.G.c.l.a.q.j.9.C * I.}.|.oX|.|.].Q.W.Q Q E.Q.6XwX%X/ ) U.*XxXlX] ] ] ] ] ] ] ] o.P. ./ / / E.eXwXwX6X6 * I.|.,X2X7X2X3X3X(.4 I ;X4X= % { Z ",
"G.G.z.k.9.9.q.>.H = T.}.oX|.oX|.~.* = '.`.7 X =XwXwXwXW.. ] kXvXvXvXvXvXvXvXvXlX| O E.eXwXeXwXwXwXwX6X; * Y.|..X.X.X.X|.oX~.5 8 /.[.3 % { a ",
"G.v.z.p.>.f.5.>.H : Y.`.}.|..X|.~.- = [.`.I = %X5X9XwXQ.4 ] hXkXlXkXkXlXkXkXkXhX..0 W.wXwXwXwXwXwXwX6X4 * Y.|..X.X.X.X|.[.Y.3 8 ^.`.4 < Z.s ",
"f.z.z.s.5.5.6.9.u.t.} R I.}.|.|.~.* = '.].`./.T U Q.eX6X%X!.z t t t t t t t t C ' %X5XwXwXwXwXwXwXwX5X4 * Y.|..X.X.X|./.P 5 X - 8 q K J F a ",
"+.z.G.z.a.q.q.8.7.9.{ 4 Y }..X|.~.* = [.|.|.].7 ; ( 9XwX9XQ.; . + + + O + + + > E.6XwXwXwXwXwXwXwXwX6X4 * Y.}..X|.oX}.^.*         @ F S S n ",
"+.z.z.s.l.j.7.8.8.5.Z.C ` ^.`.|./.I Y [..X.X.X7 o ( 9XwXqX%X/ R U U U E U U U T ( &X&X&X&X%X%X%X&X&X&Xz y R.^.^.^.^.~.! X $ l z C C *.N b S ",
"p.f.u.p.x.w.9.w.l.q.=.>.S.; Y XX.X|.|..X.X.X.X7 o ( 9XwXwXwXwXwXwXwXwXeXwXwXeX5X( o               + ; C.d.C O     X       l L D F :.&.A A G ",
"l.p.p.l.l.q.u.x.z.k.4.>.B.< T [.}.|..X.X|.].[.q 9 E.9XwXwXwXwXwXwXwXwXwXwXwX5X-X_ > @ $ $ $ $ $ $ & 1 h.1.C > > $ $ % $ : x D D n A b N *.3.",
"v.f.p.z.z.p.u.a.z.j.6.6.a.B. .W I.|.|.|.[.I.W _.Q.-X0XwXwXwXwXwXwXwXwXwXwXeXE._  .S.V.M.{ C.Z.Z.Z.Z.A.0.>.y.{ { Z.Z.C.Z.{ N.t.A m c v b :.i.",
"z.f.u.p.z.q.9.l.m.k.6.6.8.0.N.X Y }.|.|.`.7 * =XeXwXqXqXwXwXwXwXwXwXwXwXwX9X9 < S.y.>.>.:.3.3.:.t.9.a.w.9.:.:.*.*.3.:.>.t.d.d.&.D c a c g S ",
"f.5.f.f.q.4.h 4.k.6.6.$.+.n A.r T /./.`.^.P 7 ;X8XqXwXwXwXwXwXwXwXwXwXeX:X%XE r D.9.,.e.0.3.#.<.-.9.j.q.=.=.7.9.*.A -.4.p.d.s.t.:.*.&.A A ;.",
"z.z.p.5.5.=.4.8.k.8.k.e.k.5.f.:.{ ; X - 8 /.]..XoX<XqXwXwXwXwXwXwXwXwX-XT : L.d.p.-.&.a.0.F 3.-.&.9.a.w.5.9.h.:.A *.&.=.-.:.>.>.2.B B *.2.z.",
"z.z.l.p.f.4.4.5.4.8.k.j.j.x.l.>.y.< & X 3 `.|.|.oX<X0XqXqX0X0XqXqX0X9X;XU O A.u.9.:.#.w.0.1.<.7.-.>.9.0.-.9.i.A b S A *.<.-.>.9.-.&.@.&.>.i.",
"j.m.j.j.p.5.6.0.4.4.w.m.x.x.m.8.d.| } , 5 `.|..XoX>X<X<X<X2X2X<X2X2X<X;XI . B.u.0.>.<.w.<.:.<.7.4.=.-.9.>.-.>.a v m A &.-.9.9.9.-.A &.*.A :.",
"j.m.j.j.j.q.p.0.4.4.q.x.m.w.x.w.p.i.y.> 7 `.|.|.|.oXoXoXoXoXoXoXoXoX.X'.q . B.u.9.9.i.7.-.*.%.<.-.h h ;.-.>.=.c a c Z S :.i.d.>.&.B B B n D ",
"8.k.8.q.w.h.w.-.$.=.q.j.j.8.l.p.u.r.{ E R `.|..XoX|.oX|.oXoX.X.XoXoXOX'.I o B.>.-.0.i.:.*.-.2.g.<.g f &.r.;.,.S :.b m S S t.s.t.S h a g b G ",
"6.6.%.6.9.a.j.e.%.9.k.k.j.j.n.z.B.r r &X;X X.X.X.X.X.X.X.X.X.X.X.X>X<X;XR . N.:.;.>.q.;.-.-.9.a.-.b m O.:.&.;.:.1.S A S :.t.t.2.S g u a g a ",
"+.+.$.6.5.9.w.w.9.4.j.z.z.z.n.H.A.: 5 5XrX>X.X.X.X.X.X.X|..X|.oX.X>X8X-XU ; A.1.*.A 6.A :.w.a.0.*.;.n h B A :.:.:.Z A S :.t.t.:.N a d a i j ",
"6.6.6.=.-.8.w.u.>.,.q.z.z.z.n.K.D.w R 6XrX,X>X.X|..X.X.X.X.X.X.X>X,X0X:X/ w S.A.t.c n O.2.w.x.0.-.@.O.A B *.<.<.A N A N A ;.*.&.h a a i M u ",
"+.$.$.+.=.4.8.9.>.4.7.9.p.5.A.O ^ 5X9XqXqXqXqX>X.X.X.X.X.X.X.XXX0XwXwXwXeX6Xq < { p b &.9.a.l.a.-.:.<.-.-.<.*.#.A B A *.A S :.*.A g p i i c ",
"$.$.n g &.6.e.q.9.<.-.=.=.>.Z.= / rXwXwXwXwXwX>XoX X].[.].}.XXOX0XwXwXwXqXrXq 6 } v n ,.0.p.p.a.9.0.h.3.#.S A N g S A S A S :.S *.S b c a d ",
"O.+.O.n S a.h.j.w.-.B ;.M.x ` ~.(.0XwXwXwXwXwX7X3X(.Y Y Y R.3X7XwXwXwX0X<X1X^.T.` z M.:.-.9.9.p.i.3.3.:.#.B h A c A A A S A S :.*.Z g a u u ",
"O.O.O.&.:.i.c.h.g.*.B A Z.; Y  X,XqXwXwXwXwXwXwX6XE.o   - ) 5XwXqXqXqX8X,XoX|.[.! $ { -.#.#.9.9.0.F :.:.*.N g b b A S A N N N :.V i i u u u ",
"j j j j &.;.t.p.t.J :.y. .q ! .X>X7X8XwXwXwXwX:X=X_ r r r ` %X-X7X8X8X7XOX.X.X[.Q O { 2.*.#.2.0.0.:.2.t.:.A g g a A *.*.B N N #.V g u u d d ",
"h h h B -.7.9.F C .   X Y ]..X.X.X|.oX0XwXwXwXq O } u.5.u.S.> 3 [..X.X.X.X.XoX[.Q - | D &.&.@.4.w.9.9.S A S Z N S &.+.&.h d g B u a #.#.S N ",
"O.@.O.@.&.2.t.K C o X = W |..X.X.X.XoX0XqX9X9Xw : [ +.+.p.D.: 3 [..X.X.X.X.X|.'.Q o } m S >.2.2.0.<.>.&.A S N s a a f g B N d u k u N N N N ",
"6.$.$.&.K H [ } ` ! ! I.~.|..X.X.X.X|.<X1XW.R.} { C.4.O.,.M.$ 3 [..X.X.X.X}.I.! 7   C C K >.2.>.3.=.&.A B N N s a s u g *.*.N d a u s N a N ",
"k.6.*.:.1 @ + 5 Y.}.|.}.|..X.X.X.X.X.X|.'.9 - A.h.h.6.$.$.M.> 3 [..X.X.X.X}.7 *     + $ H :.=.h g B h #.N a u d s u f h N B B h N s s N a N ",
"c.i.r.y.6 * * 5 Y.|..X|..X.X|..X.X.X.X]./.5 # B.h.0.<.*.r.{ 6 8 ]..X.X.X.X}.7 3 * * * = C v a j g g g N N u d N s g g N N B B d B p p p s a ",
"d.B.2 4 `.[.[.}.|..X.X|..X.X.X.X|.|.].7 0 M.d.9.<.3.3.Z.; T `.].|..X.X|..X.X}.].].[.[.[.U.> r a h g b g u u N N N N a g *.N N u g f i v M k ",
"f.N.< = `.].[.].}.}.].}.}.}.}.}.}.}.'.3 : r.2.2.*.:.3.{ * Y `.].].}.].].].}.[.].].].].[.! - 2 a g Z a a N d N N V S N N :.S B u s u a i i M ",
"u.M.$ X Q I.I.I.I.I.I.I.I.I.I.! I.! ! * : G A :.-.-.*.M.  7 ! I.I.I.I.I.I.I.I.I.I.I.I.! P X 1 N B @.B d B V Z g g Z :.3.0.3.h u p g a a s s ",
"r.{ $   * = = = = = = = = = = = = = =   % N N *.7.<.-.{   X = = = = = = = = = = = = = = -   1 B #.-.#.#.#.#.V u a b :.<.3.#.B d g h g g a u ",
";.K < @ @ $ $ $ $ % $ $ $ @ $ $ $ $ $ $ 1 A %.-.2.2.t.Z.# @ @ @ @ @ $ O , $ , $ # $ @ $ , $ r :.*.V B #.#.#.#.S Z g *.*.N N d N *.*.S S N N ",
"A S d.A.A.D.K.D.D.A.A.A.B.C.L.D.C.C.B.B.y.&.*.5.5.u.t.i.y.J K y.y.K y.K K K K K K y.y.y.y.y.y.<.=.h N #.*.N N &.3.*.*.:.B u j g V A S A d N ",
"A *.>.u.a.s.F.a.w.0.9.5.=.>.0.i.2.1.>.2.>.=.;.5.9.9.2.1.A b Z A B a N a a N B B N S #.#.*.3.0.<.=.N *.S N a N D 3.0.<.3.S g g a N N N g a u ",
";.0.9.p.a.l.v.a.q.7.-.=.@.=.A *.*.S :.>.:.=.>.9.u.9.:.b h f g g u u d N N #.@.g a N N 3.3.3.g.3.#.<.3.N a N N V 2.h.3.3.3.A A N N N N d p i ",
":.h.s.s.a.q.a.a.a.-.=.&.A A h &.;.m n ,.>.q.8.9.5.2.2.@.O.u d u u h B V S #.@.g d d s 1.3.<.g.#.*.S N s s N V S y.h.1.S G Z G S S N d d u a "
};
