/* XPM */
static char *_9f2e9c86a674753d578d1772bab7fc2R0NFsfgrNlJJ5rzV[] = {
/* columns rows colors chars-per-pixel */
"70 70 246 2 ",
"   c #020304",
".  c #060806",
"X  c #02060B",
"o  c #0B0D0A",
"O  c #04090C",
"+  c #0D130C",
"@  c #0E190D",
"#  c #11190C",
"$  c #16170E",
"%  c #010712",
"&  c #030A13",
"*  c #060D16",
"=  c #0A1518",
"-  c #141C13",
";  c #191D16",
":  c #121815",
">  c #110F0C",
",  c #192416",
"<  c #2A291C",
"1  c #29311D",
"2  c #020E21",
"3  c #071827",
"4  c #031935",
"5  c #0B222C",
"6  c #152728",
"7  c #0D2B3B",
"8  c #0B2535",
"9  c #16313B",
"0  c gray13",
"q  c #302B21",
"w  c #2B3826",
"e  c #333834",
"r  c #211F1A",
"t  c #403B2E",
"y  c #356C16",
"u  c #34651A",
"i  c #366B1B",
"p  c #3A6D1C",
"a  c #376818",
"s  c #3A7217",
"d  c #36721C",
"f  c #3C731C",
"g  c #3D7B1C",
"h  c #367518",
"j  c #2F6518",
"k  c #384634",
"l  c #384A2F",
"z  c #3B6D21",
"x  c #376722",
"c  c #3D7421",
"v  c #3D7A22",
"b  c #3E7B2A",
"n  c #315F19",
"m  c #41751D",
"M  c #427C1D",
"N  c #487F1F",
"B  c #435738",
"V  c #504934",
"C  c #427523",
"Z  c #447C23",
"A  c #497D24",
"S  c #457C2A",
"D  c #4A7C2B",
"F  c #45742B",
"G  c #4A6C3B",
"H  c #4B7933",
"J  c #49742F",
"K  c #031F42",
"L  c #062548",
"P  c #133647",
"I  c #042A57",
"U  c #0B3659",
"Y  c #133B55",
"T  c #0F3143",
"R  c #032E62",
"E  c #04326A",
"W  c #0A3964",
"Q  c #043A7A",
"!  c #033775",
"~  c #263D55",
"^  c #15445B",
"/  c #334B4C",
"(  c #174D67",
")  c #1A5776",
"_  c #134A75",
"`  c #2E556A",
"'  c #36636B",
"]  c #545454",
"[  c #4B524A",
"{  c #4D6642",
"}  c #506C43",
"|  c #597948",
" . c #587857",
".. c #506D50",
"X. c #5C736B",
"o. c #817554",
"O. c #3E821D",
"+. c #3C851B",
"@. c #3E8521",
"#. c #43831D",
"$. c #49841E",
"%. c #458A1D",
"&. c #4A8B1E",
"*. c #4C911F",
"=. c #51801F",
"-. c #458323",
";. c #4A8424",
":. c #468A23",
">. c #4B8B24",
",. c #4C842B",
"<. c #4D8C2A",
"1. c #468429",
"2. c #518C26",
"3. c #51842D",
"4. c #528C2C",
"5. c #518625",
"6. c #4D9224",
"7. c #4E922A",
"8. c #4B9726",
"9. c #529425",
"0. c #539A25",
"q. c #53942B",
"w. c #5A942D",
"e. c #549B2B",
"r. c #5A9C2C",
"t. c #5B9C26",
"y. c #4D8533",
"u. c #548C32",
"i. c #5B8C3B",
"p. c #558737",
"a. c #4F9631",
"s. c #549532",
"d. c #5A9433",
"f. c #559B31",
"g. c #5B9C33",
"h. c #5C9B3A",
"j. c #5A943A",
"k. c #629B38",
"l. c #609F2C",
"z. c #5CA22D",
"x. c #56A12D",
"c. c #5DA333",
"v. c #5DA33A",
"b. c #5AA634",
"n. c #62A42D",
"m. c #62A434",
"M. c #63A934",
"N. c #63A43B",
"B. c #64AB3B",
"V. c #69AC3D",
"C. c #68A43E",
"Z. c #6CB13C",
"A. c #70B33E",
"S. c #5C8546",
"D. c #5A9240",
"F. c #63884B",
"G. c #669647",
"H. c #698C56",
"J. c #69AA45",
"K. c #6EB243",
"L. c #73B446",
"P. c #78B054",
"I. c #6D8F6A",
"U. c #699D5B",
"Y. c #9AAF64",
"T. c #043E81",
"R. c #044288",
"E. c #1B5D81",
"W. c #054996",
"Q. c #0D5097",
"!. c #1E6388",
"~. c #25749C",
"^. c #266F92",
"/. c #0653AA",
"(. c #0458B8",
"). c #0954A6",
"_. c #267BA6",
"`. c #1771B4",
"'. c #045DC5",
"]. c #0461CC",
"[. c #0A67C8",
"{. c #0465D4",
"}. c #0369DD",
"|. c #0769D9",
" X c #197BC7",
".X c #257CDB",
"XX c #036CE3",
"oX c #036FE9",
"OX c #0271EF",
"+X c #0975ED",
"@X c #0778EC",
"#X c #187AE6",
"$X c #0272F0",
"%X c #097CF1",
"&X c #2B88B6",
"*X c #2E87B2",
"=X c #2E94C6",
"-X c #3096C9",
";X c #2C98D3",
":X c #319ED4",
">X c #2889D3",
",X c #33A4DC",
"<X c #35A6DB",
"1X c #0D82F3",
"2X c #1389F3",
"3X c #1B95F6",
"4X c #1D97F6",
"5X c #0E81EF",
"6X c #34ACE6",
"7X c #37B1EC",
"8X c #2BABFB",
"9X c #28A5F7",
"0X c #32B5FC",
"qX c #36BAFD",
"wX c #39BEFE",
"eX c #39B7F5",
"rX c #30ACF9",
"tX c #2385DD",
"yX c #65A2DF",
"uX c #9B9D99",
"iX c #C5B68A",
"pX c #C2BFBC",
"aX c #B7C5BA",
"sX c #D6C38C",
"dX c #D9C895",
"fX c #E2CE93",
"gX c #EBD69B",
"hX c #CDCFB8",
"jX c #EADBAB",
"kX c #FFE8A6",
"lX c #F9E6AC",
"zX c #FCE9B3",
"xX c #EDE2B5",
"cX c #85BBF6",
"vX c #84B0D0",
"bX c #B5CDDB",
"nX c #C7C7C7",
"mX c #D3D5D7",
"MX c #FCF0CD",
"NX c #D4E3F2",
"BX c #ECECEC",
"VX c #E6F0FA",
"CX c #FEFEFD",
"ZX c #FDFBF3",
"AX c #FCF8E9",
"SX c #EADEC2",
/* pixels */
"7.2.&.>.q.6.6.t.t.B.N.q.g v <.0.r.q.6.w.2.$.%.#.g M M $.#.$.,.;.p u f 1.<.>.q.7.v 1.Z ;.q.g.4.d.D.D.y.1.&.;.Z f M g M $.M C C x a p m m Z f ",
"q.>.9.w.q.q.q.z.r.M.c.<.g b -.q.q.4.2.0.6.M h g s f s M M $.M m f p v :.:.1.<.>.Z ;.1.Z <.q.w.k.J.J.D.u.<.;.Z M h f M ;.A g m C a a p N -.M ",
"9.9.2.9.s.q.8.q.q.g.c.q.;.:.>.9.q.4.9.q.>.$.#.g f g +.M A -.g f p p v 7.q.u.<.<.Z :.,.;.<.9.9.k.J.J.h.7.:.M g Z h g Z ;.A C f m s y m M m M ",
">.6.>.w.r.e.q.6.6.q.s.s.,.<.6.2.q.<.2.8.6.&.$.M M #.:.#.4.;.M f z c F d.h.s.<.1.Z ;.4.4.4.<.2.w.g.h.s.6.-.v M ;.f g Z -.A C f f m m s m f A ",
"6.9.6.w.w.q.q.q.<.4.s.q.<.7.<.6.>.-.;.6.0.0.>.#.$.>.q.7.g.<.1.v l w l l l l 9.;.C 1.4.w.6.>.:.<.8.,.<.<.#.-.1.;.s -.M C C C C A ;.-.M C A C ",
"e.r.4.<.q.2.2.>.&.:.q.g.f.s.4.4.;.1.>.q.n.z.6.#.:.0.x.x.g.q.a.u.o X X O   # y.<.,.1.#.6.%.M %.6.7.;.,.4.4.5.;.-.#.Z Z A F D 3.d.k.q.w.4.w.N ",
"6.s.<.<.<.:.-.M $.%.7.s.w.g.s.<.2.5.>.r.z.r.%.%.q.z.z.z.n.q.p.S.^ ^ Y 7 * > H H J J M >.;.#.M ;.<.-.-.2.2.;.N Z M Z Z ,.3.3.4.w.w.w.w.w.d.N ",
":.<.<.<.<.6.:.Z ,.q.9.q.2.g.d.;.2.9.*.*.6.&.#.:.0.e.z.z.c.d., 6 <X6X7X&X7   o o o + v <.2.;.g g -.M #.;.;.$.A m A m v A 5.;.-.y.4.5.;.,.5.;.",
"9.,.3.u.w.2.4.4.2.0.0.6.<.w.9.2.9.2.>.>.>.&.:.-.:.7.q.9.r.4., 3 7XwXwX=XL         X F <.;.Z g Z M N N M M A A M v f c v Z Z M ;.;.<.4.4.5.2.",
"<.4.k.J.C.w.9.2.<.6.6.>.;.<.2.;.>.,.>.,.,.:.;.-.:.:.6.:.l [ *X=XeX-X( ^ W./././././.k B F v Z ;.:.>.-.M m M -.M i p p c d f Z A C -.;.-.C C ",
":.4.g.N.N.z.0.e.q.>.;.<.q.9.>.M %.<.7.q.q.2.,.:.:.>.6.,.. 5 ,XeXqX&X5 4 (.OXOXOXOXXX* + z C :.>.:.2.<.Z f f Z g j i d z p c C Z C M m m m C ",
":.>.q.d.g.c.x.x.e.<.1.<.q.9.%.M #.<.e.g.r.4.<.#.-.,.M F . 3 _.=X=X~.U R '.OXOXOXOXoXL 7 G z Z #.#.>.<.v p d v c j p d z p d c c c c p p M A ",
":.:.;.2.c.c.e.z.m.q.-.;.2.2.#.h %.4.w.t.e.7.<.-.;.H # +     * * * L (.XXoXOXOXOXOXOX}.'.L o F f g -.-.c i p v c d d f f c z i z x m u p m m ",
"-.-.q.m.v.b.e.r.M.q.;.%.-.g g M <.g.r.r.r.q.f.f.7.H + X O & O O   L '.OXOXOXOXOXOXOXOX}.K   H Z g g f f f p p z i j y f d z d p x C u u a a ",
"b u.e.x.A.L.K.M.t.q.<.&.:.7.%.&.>.e.v.v.q.e.e.e.G ' Q./.*X_._.^.O K '.OXOXOXOXOXOXOX$X}.K   H g v d d ,.;.M i f Z i a y f z i x m x x m a C ",
"<.z.b.M.Z.Y.L.K.c.q.9.7.7.q.%.%.q.v.P.L.V.x.r.4.. L }.1XwXwXeX:X& L '.OXOXOXOXOXOXOXOXXXK X i.f f y p M 5.-.M y f f p y f g v c p m p p z A ",
":.t.M.Z.L.L.A.Z.n.n.t.0.q.q.#.O.7.c.J.K.N.e.9.4.X L XX+X:X-X-X&X4 R ].OXOXOXOXOXOXOXOXXXW 8 | F b f f -.%.M g y f p y i p d v c p p p z z p ",
"-.9.M.Z.K.L.Z.V.M.n.n.9.4.:.#.g 6.g.v.N.v.e.7.4.  I XX'.T 9 7 U (.'.oX$XOXOXOXOXOXOXOXOX>X=X/ l H Z Z #.#.Z f u i y a i c c c C C m C g m u ",
"<.8.c.M.J.L.Z.Z.M.z.t.9.>.$.O.O.<.t.c.N.g.e.0.4.  K XX'.% X % 3 |.+X+X+X+X+X#X+XOXOXOX%X9XeX7 - J b Z Z -.M m p u j u p C ,.,.D C f p f Z M ",
"n.0.r.b.J.K.K.J.c.x.9.6.;.&.g -.%.2.r.x.e.0.0.y.. ~ cXyXQ Q T.Q.yXcXcXcXcXcXvXyX+XOXOX$X8XwX7 > B { G } p.Z f m a u u p C u.u.A p v f f M >.",
"x.e.b.b.B.K.K.B.N.q.0.>.-.>.@.@.g #.*.0.0.8.6.<.. ] NXbX|.|.|..XVXVXVXVXVXVXxXhX#X+X+X%X8XwX8   o : - - S.S m Z f f f p 1.4.,.Z f C Z v g :.",
"M.r.e.m.B.K.K.K.N.f.e.4.A 1.<.-.+.#.%.*.6.%.<.s.o ] BXNX'.[..X-XmXmXmXmXZXZXMXhX,X.X$X$X8XwX7 . = 3 5 6  .J C A A p p g ;.3.A M f g g c f v ",
"B.t.r.N.A.K.K.V.N.v.c.w.;.Z :.@.%.:.%.<.0.>.:.d.. ] BXmXK ~ uXaX[ [ [ X.mXZXAXBXnXaX#X$X8XwX7 = E.&X&X&X' e w w S.i i f Z ;.Z f s M -.v f Z ",
"B.c.g.m.c.x.c.c.c.x.q.q.7.<.:.1.6.6.0.e.q.:.-.u.. ] BXmX. q sXsX> X O t nXCXCXZXzXxX#X%X8XeX7 3 *XeXwXeX( * X . H.c z f C M Z S b c f d z v ",
"v.v.v.v.0.:.6.x.x.f.u.p.p.D.p.p.u.e.r.g.4.:.:.u.. ] BXmX  q iXsX>     e nXCXCXZXkXxX#X+X X*X( ( =XqXwXqX^.^ Y ^ X.S.H c c d c S A C f f f i ",
"B.v.v.b.9.#.:.0.0.F., , - , ; , w S.g.q.<.6.>.i.. ] BXnX  < sXfX>     e pXCXCXZXzXlX#X}.U 3 &X,XeXwXwXwX6X<X:X:X` , G c c z p b v -.Z f h g ",
"J.J.v.c.0.-.>.6.6.|           X -  .7.6.q.q.q.G.. ] BXmX  q fXiX>     e nXCXCXZXkXxX#X}.L X -XwXwXwXwXwXwXwXwXeX( + { S v c p z p -.v c g g ",
"J.c.s.<.6.F.| | | k X L T.T.R.R.R.' | | | | | B . [ xXSXuXuXgXjXuXuXuXuXBXCXMXMXlXlX#X}.4 X -XwXwXwXwXwXwXwXwXqX`.R.' { p.v Z c p Z :.:.-.Z ",
"L.J.N.r.4.l +       * R.oX@XOXOX|._ X       . X . V gXMXZXZXzXzXCXCXCXCXZXZXzXkXlXxX#X|.L O =XwXqXwXwXwXwXwXwXqX3X}.! % | g Z f p v 1.,.D M ",
"K.P.J.d.p./ P = X = P ).5X2X1X%X}.T.X = 7 7 7 5 . t Y.iXAXMXiXiXpXpXpXpXpXnXjXlXhXpX/./.U T :XeX:X=X6XwX0X8X8X8X1XXXQ X | c c p p g <.a.d.5.",
"B.K.J.| , &X=X^ * ) <X7X0X0X0X4X}.T.% ( =X,X<X_.  > r V zXfXt r 0 0 r 0 r e fXjX;X.X4 5 *X:XeX6X( 7 *X0X3X5X%X%X$XoXQ X | d d v M ;.4.d.u.A ",
"b.V.N.| = -X,X( * ) wXwXwXwXwX4XXXT.% ) 6XwXwX&X      q lXiXr             $ fXhX#XXX& = &XqXwX<X^ 5 ~.qX3X$XOXOXOXXX! X | i h Z =.2.4.w.,.m ",
"f.J.h.| =  XtXW * _ 4X3X4X4X3X1X}.T.. ) 6XwXwX<XE.E.!.' o.o.o.| | o.o.o.o.o.gXdX_ Q E.!.<XwX~.E.Q Q E.E.[.oX$XOXOXXXQ X | s y M >.2.4.4.A m ",
"J.J.h.| * (.].R & Q $XOX$X$X$XOX}.T.% ) 6XwXwXwXwXwXwX-X. q fXkXkXkXkXkXkXkXlXdX; * 7XwXwXwXT 2 ).'.R % R.XXOXOX$XXX! O | C f #.:.<.4.u.,.p ",
"J.B.h.| - /.(.I & E {.XX$XOXOXOX}.R.% ) 6XqXwXwXwXwXwX:X: e iXfXfXfXfXfXfXfXfXiX6 5 7XwX7X6XT 4 /.'.I % W.XX$XOXXX'._ : S.Z Z -.1.b :.<.3.u ",
"a.b.v.h.y./ 4 & X & 4 W.OX$X$XOX}.Q X ) 6XwXwXwXwXwXwXeX:X_.e q q q q q q q q e &X:XqX7X( 6 ).'.XX{.I % R.XX$XoXQ 4 ..H A g m g C c A ;.A p ",
"@.b.J.v.g.k o       & T.XXOXOXOX|.T.& ) 6XwXwXwXwXwXwXwXqX;X3 . . . . .     . 3 6XwXwX6XP X (.OXOX{.R % W.XX$XoXR o } p.;.M f m Z Z m N Z Z ",
"@.v.b.v.k.F.} G { w % I W.W.W.W.W.` ] ' ~._._._._._._._._.^.( ^ Y ^ ^ ^ ^ ^ ^ ) 7XwXwX7XT X (.OXOXXXT.R (.}.(.W.` { F.,.2.A m Z -.<.-.Z g Z ",
"f.a.a.f.m.r.q.r.g.F.            ;  .J.H.-                 5 <XwXwXwXwXwXwXwXwXwXwXwXwX6XP X (.OXOXOXOXOXOX{.R & H.5.4.<.s.u.S S A ,.;.Z C A ",
"v.f.f.c.c.r.q.c.N.F.@ @ # @ @ @ < F.g.H.1 # # + # # # $ : w =X6XwXwXwXwXwXwXwXwXwXwXwX7X^ 3 /.}.XXOXOXOX}.'.U : F.2.q.<.u.u.,.1.Z C v C A 5.",
"v.x.x.v.v.f.7.v.b.c.j.u.u.p.j.G.G.h.q.V.J.G.D.i.i.i.S.D.F.U.^ ) eXwXwXwXwXwXwXwXwXwXwXqX=X*XU E (.OXOXXXR.U  .| k.w.4.4.,.p.u.C c z x c ,.d.",
"b.8.7.h.v.e.7.c.B.x.8.8.e.f.<.e.a.@.6.z.M.r.g.c.r.9.:.:.a.D.6 8 7XwXwXwXwXwXwXwXwXwXwXwXwXeX7 2 W.oXoXXXR 6 | ,.5.=.>.<.<.j.j.1.Z z c z f A ",
"f.a.a.a.q.6.M 8.x.8.*.*.@.@.s.7.8.6.:.&.7.>.8.6.>.6.0.0.Z.c.l / &X:XeXwXwXwXwXwXwXwXwXwX0XrXW L R.(.(.(.( k G.w.$.Z >.6.f.h.h.u.,.1.;.A Z 1.",
"b.b.f.a.8.>.6.8.x.0.x.x.x.7.7.-.:.8.6.0.0.%.+.g +.%.8.*.x.8.v.P.: P :XwXwXwXwXwXwXwXwXqX1X$XOX].I X   . I.k.h.;.Z 1.-.;.<.,.<.<.4.Z M -.u.c.",
"b.b.c.e.e.>.8.7.6.0.r.z.n.k.c.:.6.0.t.9.6.:.#.M #.%.*.0.x.0.g.P.o P ;X0X0XqXqXqX0XqX0X0X1X$X$X].I X > ; H.s.d.A c A Z -.>.:.<.q.9.M #.-.,.s.",
"z.M.c.c.f.7.q.q.6.6.r.z.n.M.M.0.0.9.9.>.&.:.$.#.+.:.9.e.e.e.k.P.o L  X3X3X3X4X4X3X3X4X3X%X$X$X].L = [ H.G.4.<.f x c Z 1.5.w.q.7.;.M -.;.1.,.",
"z.n.n.z.x.r.e.s.6.6.t.M.M.t.z.c.q.9.&.%.>.*.>.%.:.6.z.e.8.e.k.P.o 8 '.$X$X$X$X$X%X$X$X$XOXOX$X{.I ;  .p.<.<.-.z d z C A ,.d.k.<.-.M M M C A ",
"x.x.0.0.r.k.r.>.:.>.e.z.z.8.c.g.q.<.&.6.%.8.r.e.f.f.x.x.x.0.l.J.o L [.5X$X$X$X$X$X$XOXOX$XOXOX|._ P  .H i.,.1.A ,.v c A ;.u.j.u.1.f f p v F ",
"*.8.8.0.e.g.l.9.>.0.e.x.x.b.M.M.g.q.>.&.:.q.x.c.v.b.z.z.0.*.9.G.O T >X9X5X$X$X$XOXOX$XOXOXOXOX@XtX*X` , H.H 1.,.5.A A A ,.u.d.u.A f y p m p ",
"+.+.@.8.<.r.r.r.w.q.c.b.B.b.Z.Z.M.c.e.&.%.0.e.M.B.M.z.0.>.:.s.U.= Y :X8X2X$XOX$XOXOXOXOXOXOXOX1X9X6X) : H.,.,.,.,.C M A ,.y.4.;.f f f y u d ",
"8.8.6.7.:.8.t.q.<.:.f.c.b.b.B.M.c.t.e.0.9.9.*.8.w.t.z.*.2.2.H.I.^ ) ,X0X3X1X$X$XOXOXOX$XOXOX1X2XrX6X!.Y I.F.k.2.Z m M M Z S ,.1.f i p u u y ",
"@.*.O.@.:.6.e.q.>.6.8.q.e.8.q.q.9.<.9.0.9.6.&.#.-.*.*.&.:.,., 8 6XeXwXwXwX0X%X+XOXOX$X$X$XOX8XwXwXwXeX7X( 0 | ;.Z Z A A M A ;.1.A f p u n f ",
"@.:.O.f -.8.0.r.q.9.:.:.:.:.9.$.%.&.>.0.0.&.%.%.-.:.:.2.-.y.- 7 7XeXqXwXwXeX%X%XXX}.}.XX+X+X8XwXwXwXwX0X( 6  .A Z M Z Z A A ,.-.;.A C p p y ",
"+.@.v g 1.d.k.k.r.5.#.g -.:.*.g #.&.>.q.6.#.M g -.-.-.y.w e ).(.2X4X0XwXwXwXrXtXI K K L >XrXqXwXwXwXwXqXtX/.( w | A Z Z Z A A ;.-.C f p y y ",
"+.g O.Z ;.d.J.m.l.5.g +.M &.2.N $.$.<.>.>.-.g h @.O.g ,.X 4 '.OX$X1X0XwXwXwXwX:X3 X   = &XwXwXwXwXwXwXqX2X|.U + H.F A F A N m A N u u y y y ",
"+.h h g #.,.<.q.4.c f #.%.$.N N :.2.q.s.8.*.%.g g +.#.u.  4 '.$XOX1X9X8XrX9X=X_./ k t / ~.&X7XwXwXwX0X8X5X}.R.L X.F.F.S.D m m $.N f i y s s ",
"g g g M <.6.7.,.<.-.f M >.:.g -.<.7.a.7.8.%.%.%.O.@.:.j.  4 ].OX$X$XOXOXOX|.2 @ J D 3.D w X -XwXwX0X2X$XOXOXOXXXI .     | m s m p y $.;.A m ",
"+.+.%.g #.9.4.p.w.w.2.w.r.9.;.;.<.s.g.e.%.6.*.2.<.@.@.|   2 '.XXOX$X$XOX$X{.2 @ C C z x w > =X7XqX0X2X$XOXOXOXXXE & & &  .C f y u y m m m m ",
"*.%.#.-.;.;.4.d.k.n.t.t.r.t.&.*.0.g.g.>.:.2.2.<.4.u.G B   % I Q oX$XOXOXOX}.2 @ C f x i H | ' E. X2X$X$X$XOXOXOX(.R.W.T.' B B B } i m C p m ",
"x.8.:.-.<.;.u.g.M.n.l.l.r.q.:.*.0.g.e.$.:.4.>.q.d.F.$ .     X 4 }.OX$XOX$X|.2 @ b c j u C D w 3 ).+X$X$XOXOXOXOXXXXXXXXXW o o - V a n a m m ",
"N.f.a.,.y.a.u.s.f.h.v.v.M.w.;.>.7.q.q.;.-.<.<.s.i.S.: X % % % 4 XXOXOXOXOX}.4 = c c f y a p w 3 W.|.oXOXOXOXOXOXOX$XOXoX! % % 3 [ u x C a p ",
"j.j.v.v.h.g.w.:.:.j.v.N.V.n.t.w.s.4.w.:.Z 1.q.D.. I |.OXOXoXOXOXOXOXOXOXOXOXOX'.* . b p u n p x k 3 W.oXOXoXOXOXOXOX$XOXoXoX$X|./.O { x n n ",
"a.a.h.c.f.q.<.:.7.s.v.N.c.e.r.g.g.w.4.4.<.-.y.i.X L '.XX}.}.}.XX}.}.}.}.}.}.|.(.& . c u u u a u l 3 T.}.}.}.}.}.XX}.XX}.}.XX}.].).& [ x u n ",
"u.u.<.q.q.6.&.:.a.f.h.m.g.4.l.C.C.r.w.2.4.-.Z p.  2 R E E E E E E E E E E E E I X   g a u u u p l * K E E E E E E E E E R E E R L . G m a a ",
",.,.<.<.7.8.:.>.8.h.v.m.c.q.q.h.k.g.q.5.;.-.m p.    * * & & & & & & & & & & & &   . v a y y d C l . O & * & * & & & * & & & & & % O { C a a ",
"S C ;.<.q.s.f.g.s.h.d.d.q.<.h.d.u.,.;.-.M #.$.i., ; ; ; ; ; ; ; ; ; ; - ; ; - ; ; , m p s m M D G , ; ; ; ; ; ; ; r ; ; ; ; ; ; ; , | A m m ",
"b Z >.6.q.s.N.g.w.q.w.4.:.-.g.g.4.A ;.,.Z #.;.q.j.j.j.j.S S J H 3.H D J F F C C C A N s N N ;.2.,.D u.i.p.3.H i.i.i.i.i.H J F D H D D A m m ",
"M >.<.q.f.g.N.g.e.q.6.>.-.:.u.q.5.;.:.<.<.-.-.7.q.s.d.u.-.z v -.M p f p p m m f p M $.$.N 5.9.2.-.A ;.A C m C D u.w.2.5.5.v v f A m m m y a ",
",.w.q.f.g.c.C.g.e.9.<.%.#.:.Z ;.,.A 1.<.;.:.6.7.s.<.,.C v h f f y y s p M $.$.s y N m D 5.2.l.5.$.2.5.m a m m A p.d.4.4.5.M Z m m m m f p i ",
",.k.h.h.h.e.r.g.r.<.:.-.Z Z g -.1.b b 1.<.t.q.q.q.4.4.#.+.y p y y g N N A $.#.s y h p 5.5.w.w.5.A A m a a m N A p.k.3.A A F F 5.A M s y y p "
};
